<svg width="613" height="448" viewBox="0 0 613 448" fill="none" xmlns="http://www.w3.org/2000/svg">
<g clip-path="url(#clip0)">
<path d="M341.937 440.907C463.677 440.907 562.367 342.207 562.367 220.453C562.367 98.7004 463.677 0 341.937 0C220.196 0 121.506 98.7004 121.506 220.453C121.506 342.207 220.196 440.907 341.937 440.907Z" fill="#EFF9F0"/>
<path d="M409.308 137.71C440.967 137.71 466.631 112.043 466.631 80.3806C466.631 48.7182 440.967 23.0509 409.308 23.0509C377.649 23.0509 351.984 48.7182 351.984 80.3806C351.984 112.043 377.649 137.71 409.308 137.71Z" fill="#FF6584"/>
<path d="M168.995 42.8398L170.562 75.5098C177.057 84.1736 184.064 94.0881 190.98 104.893L191.967 55.0521L192.512 55.4003C184.513 49.6852 176.381 45.3126 168.45 42.537L168.995 42.8398Z" fill="#5CAA45"/>
<path d="M169.42 73.992L167.902 42.3455C158.996 39.3076 150.354 38.2998 142.454 39.7087C142.043 39.782 141.639 39.8664 141.236 39.952C143.243 42.1055 154.94 54.8241 169.42 73.992Z" fill="#5CAA45"/>
<path d="M241.336 112.968L241.862 113.47C239.704 109.41 237.415 105.462 234.998 101.627L220.268 159.59L220.019 159.371C221.084 161.914 222.096 164.439 223.057 166.947L241.336 112.968Z" fill="#5CAA45"/>
<path d="M218.897 80.0151L219.44 80.4493C211.652 71.2213 202.799 62.9483 193.066 55.8031L192.059 106.594C198.495 116.751 204.257 126.756 209.345 136.608L218.897 80.0151Z" fill="#5CAA45"/>
<path d="M112.048 95.8723C112.876 104.433 114.566 112.889 117.094 121.11L204.93 130.17C200.344 121.714 195.611 113.78 191.016 106.549L112.272 96.5629L112.048 95.8723Z" fill="#5CAA45"/>
<path d="M120.289 130.59L120.053 129.901L208.951 137.803C207.877 135.702 206.791 133.629 205.693 131.584L117.533 122.49L117.301 121.8C118.189 124.697 119.185 127.627 120.289 130.59Z" fill="#5CAA45"/>
<path d="M233.997 100.418L234.531 100.89C230.124 93.9571 225.253 87.3298 219.954 81.053L210.272 138.411C213.628 145 216.667 151.496 219.39 157.899L233.997 100.418Z" fill="#5CAA45"/>
<path d="M232.117 196.232C235.65 211.522 236.988 225.98 236.105 239.444C241.076 228.851 259.982 184.965 252.915 144.064L232.117 196.232Z" fill="#5CAA45"/>
<path d="M136.597 161.502C141.301 167.839 146.424 173.854 151.932 179.505L151.718 178.739L230.795 195.009C228.738 186.471 226.171 178.064 223.107 169.834L136.597 161.502Z" fill="#5CAA45"/>
<path d="M168.737 74.5257C153.066 53.7914 140.701 40.6864 140.523 40.4988L140.726 40.062C128.834 42.7622 120.437 50.8542 115.817 62.5669L168.737 74.5257Z" fill="#5CAA45"/>
<path d="M223.789 168.893C224.081 169.673 224.378 170.454 224.66 171.231C227.376 178.672 229.684 186.255 231.576 193.947L252.176 142.274L252.68 142.778C251.375 135.588 249.165 128.592 246.103 121.957C244.887 119.356 243.615 116.794 242.286 114.271L223.789 168.893Z" fill="#5CAA45"/>
<path d="M190.095 105.108C183.251 94.43 176.323 84.6347 169.902 76.0728L115.768 63.8392L115.584 63.1559C112.205 72.0566 110.969 82.9909 111.993 95.2035L190.095 105.108Z" fill="#5CAA45"/>
<path d="M231.116 196.367L152.617 180.216C185.635 214.114 231.83 240.111 234.778 241.754C236.154 226.819 234.594 211.478 231.116 196.367Z" fill="#5CAA45"/>
<path d="M222.551 168.442L222.568 168.39C218.794 158.439 214.486 148.697 209.664 139.209L120.547 131.286C122.06 135.293 123.77 139.343 125.677 143.436C128.455 149.267 131.758 154.833 135.547 160.063L222.551 168.442Z" fill="#5CAA45"/>
<path d="M335.912 152.881L316.283 179.043C315.761 189.859 314.834 201.965 313.27 214.698L345.816 176.941L346.014 177.557C343.498 168.052 340.023 159.497 335.685 152.301L335.912 152.881Z" fill="#5CAA45"/>
<path d="M316.372 177.146L335.385 151.804C330.463 143.783 324.45 137.494 317.467 133.54C317.104 133.334 316.739 133.142 316.374 132.95C316.546 135.889 317.444 153.146 316.372 177.146Z" fill="#5CAA45"/>
<path d="M346.904 253.039L346.989 253.761C347.916 249.257 348.671 244.756 349.255 240.261L300.944 275.508L300.892 275.179C300.091 277.817 299.26 280.408 298.4 282.953L346.904 253.039Z" fill="#5CAA45"/>
<path d="M350.638 213.345L350.779 214.026C350.666 201.951 349.123 189.932 346.184 178.22L313.017 216.697C311.496 228.625 309.553 240.005 307.189 250.839L350.638 213.345Z" fill="#5CAA45"/>
<path d="M258.231 157.401C253.408 164.523 249.318 172.113 246.021 180.057L307.893 243.065C309.755 233.627 311.169 224.496 312.242 215.996L257.962 158.076L258.231 157.401Z" fill="#5CAA45"/>
<path d="M242.436 189.397L242.694 188.715L306.123 251.509C306.635 249.205 307.121 246.916 307.58 244.641L245.479 181.4L245.741 180.721C244.577 183.519 243.476 186.411 242.436 189.397Z" fill="#5CAA45"/>
<path d="M349.255 238.691L349.366 239.395C350.392 231.244 350.868 223.033 350.789 214.818L306.753 252.819C305.135 260.034 303.333 266.976 301.346 273.645L349.255 238.691Z" fill="#5CAA45"/>
<path d="M286.702 311.287C279.671 325.317 271.482 337.306 262.215 347.112C272.8 342.124 315.349 320.383 335.99 284.374L286.702 311.287Z" fill="#5CAA45"/>
<path d="M235.282 223.608C234.864 231.489 234.974 239.39 235.612 247.256L235.935 246.529L286.464 309.502C290.325 301.614 293.709 293.501 296.598 285.208L235.282 223.608Z" fill="#5CAA45"/>
<path d="M315.506 177.121C316.659 151.155 315.493 133.174 315.476 132.917L315.911 132.71C305.03 127.204 293.402 128.08 282.374 134.154L315.506 177.121Z" fill="#5CAA45"/>
<path d="M297.723 284.918C297.451 285.705 297.181 286.497 296.903 287.274C294.249 294.738 291.191 302.051 287.742 309.182L336.563 282.524L336.629 283.234C340.21 276.864 342.97 270.066 344.842 263.002C345.565 260.224 346.22 257.439 346.805 254.648L297.723 284.918Z" fill="#5CAA45"/>
<path d="M312.452 214.299C313.99 201.709 314.901 189.746 315.416 179.056L281.524 135.102L281.819 134.459C273.54 139.159 265.615 146.792 258.614 156.851L312.452 214.299Z" fill="#5CAA45"/>
<path d="M285.845 310.752L235.686 248.24C239.498 295.409 258.497 344.899 259.72 348.045C270.304 337.42 278.886 324.609 285.845 310.752Z" fill="#5CAA45"/>
<path d="M297.057 283.781L297.104 283.753C300.543 273.68 303.438 263.43 305.776 253.046L242.191 190.098C240.801 194.149 239.535 198.359 238.394 202.728C236.814 208.991 235.809 215.384 235.391 221.83L297.057 283.781Z" fill="#5CAA45"/>
<path d="M140.2 187.81L151.788 218.395C160.642 224.627 170.371 231.89 180.287 240.029L165.822 192.323L166.448 192.485C157.074 189.523 147.989 187.878 139.589 187.69L140.2 187.81Z" fill="#5CAA45"/>
<path d="M150.232 217.305L139.008 187.677C129.599 187.542 121.069 189.255 113.991 193.037C113.623 193.233 113.265 193.438 112.908 193.644C115.483 195.072 130.537 203.552 150.232 217.305Z" fill="#5CAA45"/>
<path d="M230.673 232.141L231.328 232.456C228.021 229.262 224.624 226.215 221.14 223.315L225.046 282.993L224.741 282.861C226.54 284.95 228.283 287.039 229.972 289.128L230.673 232.141Z" fill="#5CAA45"/>
<path d="M199.149 207.738L199.799 207.984C189.54 201.615 178.564 196.484 167.099 192.697L181.839 241.312C191.099 248.982 199.671 256.716 207.555 264.513L199.149 207.738Z" fill="#5CAA45"/>
<path d="M102.433 255.849C105.866 263.735 110.086 271.254 115.031 278.291L201.366 259.755C194.392 253.13 187.438 247.048 180.833 241.592L102.859 256.437L102.433 255.849Z" fill="#5CAA45"/>
<path d="M121 286.319L120.562 285.737L207.549 265.771C205.879 264.105 204.205 262.47 202.529 260.864L115.875 279.468L115.441 278.883C117.182 281.364 119.035 283.843 121 286.319Z" fill="#5CAA45"/>
<path d="M219.814 222.475L220.468 222.758C214.134 217.527 207.454 212.73 200.474 208.399L208.994 265.941C214.221 271.17 219.119 276.408 223.688 281.656L219.814 222.475Z" fill="#5CAA45"/>
<path d="M247.639 314.178C255.725 327.627 261.466 340.963 264.787 354.041C266.241 342.43 270.657 294.848 251.295 258.136L247.639 314.178Z" fill="#5CAA45"/>
<path d="M146.063 310.677C152.495 315.249 159.226 319.385 166.211 323.058L165.771 322.395L246.005 313.423C241.409 305.939 236.369 298.738 230.912 291.857L146.063 310.677Z" fill="#5CAA45"/>
<path d="M149.748 218.024C128.436 203.149 112.626 194.508 112.399 194.385L112.457 193.907C101.982 200.151 96.4975 210.442 95.7237 223.01L149.748 218.024Z" fill="#5CAA45"/>
<path d="M231.269 290.752C231.788 291.403 232.312 292.055 232.82 292.706C237.703 298.943 242.242 305.441 246.418 312.172L250.04 256.661L250.674 256.985C247.212 250.55 242.948 244.58 237.984 239.217C236.025 237.118 234.023 235.075 231.979 233.086L231.269 290.752Z" fill="#5CAA45"/>
<path d="M179.512 240.506C169.703 232.467 160.087 225.293 151.334 219.135L96.0698 224.235L95.6841 223.642C95.221 233.151 97.4252 243.932 102.173 255.23L179.512 240.506Z" fill="#5CAA45"/>
<path d="M246.729 314.615L167.082 323.521C208.96 345.553 260.928 355.997 264.24 356.648C260.932 342.019 254.707 327.912 246.729 314.615Z" fill="#5CAA45"/>
<path d="M229.953 290.706L229.953 290.651C223.288 282.353 216.181 274.421 208.662 266.888L121.461 286.902C124.138 290.245 127.016 293.568 130.094 296.871C134.538 301.558 139.4 305.829 144.619 309.633L229.953 290.706Z" fill="#5CAA45"/>
<path d="M612.6 374.712C612.6 401.152 476.604 448 308.844 448C141.084 448 5.08704 401.152 5.08704 374.712C5.08704 348.273 141.084 352.253 308.844 352.253C476.604 352.253 612.6 348.273 612.6 374.712Z" fill="#3F3D56"/>
<path opacity="0.1" d="M612.6 374.712C612.6 401.152 476.604 448 308.844 448C141.084 448 5.08704 401.152 5.08704 374.712C5.08704 348.273 141.084 352.253 308.844 352.253C476.604 352.253 612.6 348.273 612.6 374.712Z" fill="black"/>
<path d="M308.844 422.586C476.604 422.586 612.601 401.152 612.601 374.713C612.601 348.273 476.604 326.839 308.844 326.839C141.084 326.839 5.08704 348.273 5.08704 374.713C5.08704 401.152 141.084 422.586 308.844 422.586Z" fill="#3F3D56"/>
<path opacity="0.1" d="M361.507 324.675C361.507 353.48 321.36 344.57 272.204 344.57C223.048 344.57 183.498 353.48 183.498 324.675C183.498 295.869 223.639 289.605 272.795 289.605C321.951 289.605 361.507 295.869 361.507 324.675Z" fill="black"/>
<path d="M361.507 317.582C361.507 346.387 321.36 337.478 272.204 337.478C223.048 337.478 183.498 346.387 183.498 317.582C183.498 288.777 223.639 282.512 272.795 282.512C321.951 282.512 361.507 288.777 361.507 317.582Z" fill="#3F3D56"/>
<path d="M203.374 238.322C204.455 237.552 205.649 236.954 206.912 236.548C214.922 233.567 223.316 231.739 231.84 231.121C239.252 230.595 247.286 231.219 253.075 235.878C253.976 236.539 254.713 237.398 255.229 238.388C255.958 239.96 255.737 241.787 255.501 243.503C255.448 244.169 255.281 244.821 255.005 245.429C254.226 246.913 252.308 247.432 250.642 247.254C248.976 247.077 247.413 246.372 245.77 246.045C244.753 245.867 243.724 245.763 242.692 245.731L232.386 245.173C225.977 244.826 219.484 244.485 213.197 245.779C211.262 246.126 209.392 246.771 207.653 247.689C206.217 248.495 205.251 249.652 203.918 248.163C201.578 245.547 200.282 240.738 203.374 238.322Z" fill="#2F2E41"/>
<path d="M219.345 242.88C219.345 242.88 233.207 236.665 238.465 243.836C243.723 251.007 235.597 248.139 235.597 248.139L226.515 251.007L216.477 249.095L219.345 242.88Z" fill="#F2F2F2"/>
<path d="M220.062 238.339C220.062 238.339 221.974 247.422 220.54 249.812C219.106 252.202 228.666 255.549 228.666 255.549L237.748 251.724C237.748 251.724 235.358 236.904 237.748 234.036L220.062 238.339Z" fill="#FFB9B9"/>
<path opacity="0.1" d="M220.062 238.339C220.062 238.339 221.974 247.422 220.54 249.812C219.106 252.202 228.666 255.549 228.666 255.549L237.748 251.724C237.748 251.724 235.358 236.904 237.748 234.036L220.062 238.339Z" fill="black"/>
<path d="M211.105 347.557C212.39 350.223 213.447 352.992 214.263 355.836C214.277 355.93 214.31 356.02 214.36 356.1C214.411 356.181 214.478 356.249 214.557 356.302C214.636 356.354 214.725 356.39 214.819 356.405C214.912 356.421 215.008 356.417 215.1 356.393L223.603 356.383C224.652 356.382 226.06 356.045 226.049 354.996C226.041 354.258 225.287 353.799 224.727 353.32C223.17 351.992 222.765 349.802 222.12 347.86C220.867 344.119 218.453 340.875 215.228 338.602C214.792 338.261 214.291 338.013 213.755 337.874C213.216 337.796 212.667 337.826 212.14 337.962C210.647 338.263 205.073 339.293 206.126 341.464C206.58 342.399 208.26 343.372 208.964 344.246C209.785 345.276 210.502 346.386 211.105 347.557Z" fill="#575A89"/>
<path d="M240.671 337.695C240.371 338.325 240.038 338.939 239.672 339.533C238.44 341.565 236.986 343.46 235.839 345.541C235.066 346.812 234.588 348.241 234.442 349.721C234.377 350.462 234.49 351.207 234.772 351.895C235.055 352.582 235.498 353.192 236.065 353.673C237.299 354.609 238.991 354.653 240.525 354.434C242.059 354.216 243.584 353.776 245.129 353.892C244.609 350.944 247.095 348.349 247.716 345.421C247.891 344.598 247.917 343.745 248.151 342.938C248.403 342.199 248.725 341.486 249.113 340.81C250.351 338.398 251.226 335.817 251.71 333.15C251.769 332.827 244.152 332.774 243.438 332.929C241.208 333.411 241.534 335.846 240.671 337.695Z" fill="#575A89"/>
<path d="M181.966 291.379C179.792 294.782 180.293 299.291 181.82 303.03C183.347 306.768 185.778 310.073 187.441 313.753C188.502 316.099 189.246 318.586 190.44 320.867C191.919 323.692 194.078 326.181 195.07 329.211C195.703 331.142 195.848 333.259 196.873 335.014C197.492 335.951 198.199 336.829 198.984 337.633C201.191 340.162 202.848 343.122 203.85 346.326C204.786 343.535 207.591 341.706 210.471 341.103C213.351 340.499 216.336 340.909 219.25 341.321C217.624 338.802 215.983 336.252 215.014 333.415C214.077 330.672 213.801 327.753 213.169 324.924C211.875 319.122 209.11 313.77 206.372 308.493L220.443 307.377C222.74 307.146 225.049 307.06 227.356 307.12C230.988 307.291 234.546 308.182 238.159 308.593C241.771 309.005 245.593 308.897 248.813 307.207C242.656 316.041 239.45 326.595 239.653 337.361C241.029 336.295 242.625 335.55 244.326 335.181C246.028 334.811 247.79 334.827 249.484 335.227C251.178 335.627 252.761 336.401 254.117 337.491C255.474 338.582 256.569 339.963 257.323 341.532C262.838 333.995 262.182 323.504 266.552 315.251C267.45 313.553 268.551 311.973 269.521 310.315C271.353 306.987 272.922 303.52 274.213 299.946C275.435 296.82 276.666 293.341 275.494 290.195C275.007 289.002 274.299 287.911 273.405 286.982C270.884 284.203 267.375 282.146 263.623 282.061C257.864 281.929 253.107 286.199 248.055 288.967C242.024 292.173 235.202 293.588 228.394 293.045C221.455 292.553 214.827 290.282 208.216 288.281C204.908 287.234 201.547 286.366 198.145 285.683C195.31 285.151 192.61 285.74 189.816 286.465C186.774 287.255 183.717 288.639 181.966 291.379Z" fill="#2F2E41"/>
<path d="M242.05 229.255C242.047 233.058 240.535 236.704 237.847 239.393C235.158 242.082 231.512 243.594 227.71 243.597C226.855 243.599 226.003 243.522 225.162 243.368C222.478 242.883 219.988 241.643 217.984 239.793C215.98 237.943 214.545 235.56 213.848 232.923C213.15 230.287 213.219 227.506 214.046 224.907C214.872 222.308 216.423 219.998 218.516 218.249C220.609 216.501 223.157 215.385 225.861 215.033C228.566 214.682 231.314 215.108 233.785 216.264C236.255 217.419 238.345 219.255 239.809 221.556C241.273 223.857 242.05 226.528 242.05 229.255V229.255Z" fill="#FFB9B9"/>
<path d="M219.345 242.88C219.345 242.88 221.974 244.075 222.93 245.031C223.886 245.987 226.754 251.246 231.534 247.9C236.314 244.553 236.792 242.641 238.226 242.641C239.66 242.641 241.572 245.509 241.572 245.509L254.718 284.949C251.175 288.949 247.068 292.411 242.528 295.228C234.88 300.008 225.798 302.399 221.496 300.486C217.194 298.574 209.067 297.14 207.633 293.315C206.199 289.491 203.809 278.018 203.809 278.018L210.501 248.856L219.345 242.88Z" fill="#F2F2F2"/>
<path d="M217.499 282.769C218.541 280.517 218.693 277.969 218.781 275.49C218.921 273.034 218.856 270.571 218.586 268.127C218.163 264.929 217.121 261.848 216.464 258.69C215.887 255.92 215.607 253.097 215.628 250.268C215.637 248.977 215.731 247.618 216.434 246.535C216.925 245.78 217.693 245.195 217.999 244.349C218.6 242.688 217.115 240.95 215.487 240.266C213.504 239.522 211.335 239.435 209.299 240.018C207.279 240.601 205.328 241.4 203.479 242.399C202.08 242.996 200.794 243.827 199.676 244.858C198.192 246.393 197.539 248.532 197.012 250.601C196.591 252.258 196.216 253.985 196.537 255.664C197.058 258.39 199.28 260.44 200.465 262.95C201.84 265.865 201.748 269.261 201.2 272.438C200.653 275.614 199.682 278.719 199.382 281.928C199.083 285.137 199.543 288.587 201.553 291.106C202.372 292.132 204.595 294.565 206.094 294.29C207.272 294.074 208.98 291.48 209.93 290.658C212.671 288.282 215.925 286.17 217.499 282.769Z" fill="#2F2E41"/>
<path d="M242.543 241.321C242.585 243.987 241.41 246.522 240.028 248.802C238.646 251.083 237.022 253.239 236.004 255.704C234.738 258.789 234.48 262.195 235.266 265.435C235.558 266.539 235.91 267.626 236.32 268.692L238.939 275.876C239.292 277.006 239.803 278.08 240.458 279.065C241.05 279.82 241.745 280.489 242.522 281.051C244.512 282.658 246.801 283.852 249.257 284.565C251.729 285.272 254.369 285.121 256.745 284.137C256.998 274.398 258.562 264.736 261.397 255.415C261.92 253.694 262.493 251.882 262.089 250.13C261.636 248.166 260.059 246.692 258.561 245.346C253.977 241.229 248.936 236.905 242.8 236.35C239.248 236.029 242.513 239.393 242.543 241.321Z" fill="#2F2E41"/>
<path d="M211.174 296.903C211.538 297.614 211.764 298.389 212.123 299.103C212.654 300.06 213.31 300.943 214.074 301.726C217.27 305.271 221.177 308.801 225.944 309.015C226.418 309.059 226.896 308.999 227.343 308.839C227.747 308.633 228.093 308.331 228.353 307.96C228.612 307.588 228.777 307.159 228.832 306.71C229.17 304.858 228.353 303.011 227.535 301.316C225.762 297.643 223.767 293.877 220.446 291.508C218.789 290.372 216.895 289.626 214.907 289.327C212.92 289.028 210.89 289.183 208.972 289.781C207.242 290.314 204.375 291.245 206.664 292.823C208.401 294.02 210.167 294.931 211.174 296.903Z" fill="#FFB9B9"/>
<path d="M231.783 250.138C231.285 248.794 230.522 247.564 229.54 246.521C228.548 245.682 227.375 245.088 226.113 244.784C224.478 244.317 222.787 244.075 221.086 244.064C219.062 244.051 216.714 244.594 215.855 246.427C215.172 247.883 215.701 249.607 216.389 251.06C216.682 251.813 217.171 252.474 217.806 252.975C218.679 253.564 219.808 253.546 220.843 253.743C222.447 254.151 223.967 254.84 225.331 255.778L228.877 257.921L234.967 261.603C234.807 261.506 234.864 257.329 234.677 256.644C234.074 254.439 232.718 252.226 231.783 250.138Z" fill="#FFB9B9"/>
<path d="M214.042 354.754C212.617 356.691 212.902 359.459 211.64 361.506C210.546 363.28 208.484 364.21 207.115 365.782C206.678 366.304 206.289 366.864 205.952 367.456C204.682 369.583 203.65 372.309 204.9 374.447C205.906 376.167 208.021 376.839 209.96 377.297C212.411 377.877 214.957 378.34 217.436 377.897C219.916 377.455 222.338 375.937 223.222 373.578C223.396 372.985 223.603 372.402 223.841 371.832C225.185 369.187 229.4 369.158 230.775 366.529C231.737 364.688 230.853 362.464 229.968 360.585L227.267 354.847C226.371 352.942 222.738 354.037 220.843 353.581C218.373 352.986 215.819 352.33 214.042 354.754Z" fill="#2F2E41"/>
<path d="M234.933 349.824C233.827 350.695 232.981 351.853 232.489 353.172C231.152 356.256 230.693 359.637 230.248 362.969C229.993 364.294 229.967 365.653 230.17 366.987C230.746 369.708 233.212 371.712 235.865 372.544C238.519 373.376 241.365 373.248 244.143 373.112C245.039 373.135 245.929 372.954 246.745 372.583C248.141 371.813 248.686 370.004 248.447 368.428C248.207 366.851 247.346 365.449 246.504 364.096C245.661 362.743 244.799 361.341 244.558 359.765C244.152 357.114 245.297 353.223 243.669 350.825C242.037 348.422 237.111 348.297 234.933 349.824Z" fill="#2F2E41"/>
<path d="M241.689 221.781C241.434 220.923 240.872 220.19 240.111 219.72C240.15 218.801 240.037 217.883 239.777 217C238.909 214.433 236.852 214.58 234.911 213.445C234.068 212.952 234.12 212.517 233.682 211.708C233.108 210.647 232.247 209.769 231.198 209.174C229.953 208.38 228.638 207.563 227.165 207.462C224.069 207.251 221.695 210.164 218.736 211.099C217.432 211.51 216.03 211.527 214.719 211.917C213.408 212.306 212.1 213.236 211.904 214.59C211.814 215.215 211.973 215.857 211.882 216.481C211.7 217.723 210.61 218.593 209.881 219.615C208.268 221.874 208.453 225.065 209.743 227.523C210.014 228.032 210.325 228.518 210.673 228.979C210.78 230.14 211.114 231.27 211.655 232.304C212.944 234.762 215.164 236.598 217.482 238.124C217.292 237.309 217.177 236.478 217.138 235.642C217.106 235.364 217.142 235.081 217.244 234.82C217.502 234.28 218.184 234.136 218.705 233.841C219.782 233.228 220.205 231.873 220.236 230.634C220.267 229.395 220.004 228.154 220.134 226.922C220.139 226.638 220.204 226.359 220.323 226.102C220.443 225.845 220.615 225.616 220.829 225.429C221.226 225.203 221.681 225.094 222.138 225.117C224.345 225.027 226.652 224.987 228.599 223.943C229.227 223.525 229.902 223.184 230.61 222.925C232.265 222.494 233.956 223.654 234.91 225.073C235.864 226.493 236.339 228.182 237.219 229.649C238.099 231.116 239.619 232.424 241.321 232.25C241.417 232.25 241.511 232.23 241.599 232.191C241.686 232.152 241.765 232.095 241.829 232.024C241.902 231.892 241.935 231.741 241.922 231.591L242.017 225.087C242.096 223.974 241.986 222.856 241.689 221.781Z" fill="#2F2E41"/>
<path d="M196.307 255.802C194.938 257.821 193.361 259.762 192.609 262.082C192.167 263.446 192.029 264.887 191.709 266.284C190.643 270.938 187.564 275.072 187.254 279.837C187.146 280.895 187.301 281.964 187.707 282.948C188.59 284.87 190.704 285.883 192.721 286.52C194.738 287.157 196.904 287.616 198.513 288.988C199.324 289.765 200.059 290.617 200.708 291.533C203.334 294.799 206.867 297.217 210.863 298.482C210.548 296.306 210.4 293.684 212.138 292.34C213.08 291.612 214.337 291.482 215.522 291.38L221.123 290.896C217.388 287.273 213.272 284.066 208.846 281.33C207.297 280.374 205.611 279.364 204.904 277.687C204.539 276.606 204.387 275.464 204.458 274.325C204.419 270.159 204.066 266.002 203.403 261.89C202.941 259.034 202.331 256.204 201.633 253.397C201.437 252.609 200.278 249.074 198.852 249.901C198.516 250.096 198.202 252.338 198.006 252.803C197.539 253.856 196.97 254.861 196.307 255.802V255.802Z" fill="#2F2E41"/>
<path d="M260.815 248.174L263.102 252.931C264.204 254.887 264.705 257.124 264.544 259.364L264.68 273.634C264.785 275.541 264.627 277.453 264.21 279.316C264.068 279.931 263.799 280.508 263.421 281.013C263.034 281.448 262.577 281.817 262.069 282.103C257.74 284.808 252.127 286.345 247.554 284.079C246.506 283.52 245.51 282.87 244.578 282.136C242.755 280.786 240.905 279.41 239.542 277.597C238.115 275.7 237.297 273.429 236.337 271.257C234.613 267.363 232.387 263.711 229.714 260.395C229.272 259.956 228.984 259.386 228.894 258.769C228.866 257.518 230.35 256.902 231.507 256.427C233.484 255.614 235.347 254.045 235.678 251.933C239.882 257.446 244.52 263.27 251.153 265.284C251.257 265.351 251.377 265.388 251.5 265.392C251.623 265.396 251.746 265.366 251.853 265.306C251.961 265.246 252.051 265.158 252.113 265.051C252.175 264.944 252.207 264.823 252.205 264.699C252.582 263.124 252.715 261.502 252.99 259.905C253.495 256.999 254.468 254.193 255.871 251.598C256.656 250.142 259.2 244.816 260.815 248.174Z" fill="#2F2E41"/>
<path opacity="0.1" d="M204.057 261.931C204.12 265.308 203.403 268.654 201.961 271.708C201.586 272.383 201.31 273.109 201.141 273.862C200.89 275.469 201.804 277.025 202.85 278.272C204.912 280.723 207.586 282.583 210.601 283.665" fill="black"/>
<path opacity="0.1" d="M253.724 259.085C253.387 259.991 253.693 260.993 253.952 261.925C254.705 264.626 255.056 267.424 254.995 270.228C255.006 270.277 255.005 270.328 254.991 270.377C254.977 270.425 254.952 270.469 254.917 270.505C254.881 270.541 254.838 270.568 254.79 270.582C254.742 270.597 254.691 270.6 254.642 270.59C253.538 270.658 252.275 270.665 251.527 269.852" fill="black"/>
<path opacity="0.1" d="M441.22 394.216C482.344 394.216 515.682 387.072 515.682 378.259C515.682 369.445 482.344 362.301 441.22 362.301C400.096 362.301 366.759 369.445 366.759 378.259C366.759 387.072 400.096 394.216 441.22 394.216Z" fill="black"/>
<path d="M478.451 235.821L473.132 241.14L478.451 246.459L483.77 235.821H478.451Z" fill="#A0616A"/>
<path d="M479.649 189.697C481.141 190.308 481.851 191.978 482.414 193.489L489.313 212.031L490.656 215.64C491.315 217.41 491.974 219.181 492.531 220.985C492.883 222.127 493.194 223.28 493.464 224.444C493.744 225.441 493.851 226.478 493.782 227.511C493.595 228.648 493.181 229.735 492.562 230.706C490.162 234.887 486.744 238.394 482.625 240.9C482.387 239.367 481.769 237.918 480.827 236.685C479.885 235.453 478.649 234.476 477.232 233.845L480.799 231.883C481.554 231.529 482.233 231.031 482.799 230.418C483.144 229.94 483.39 229.398 483.521 228.823C483.652 228.248 483.666 227.652 483.562 227.071C483.348 225.913 482.992 224.785 482.503 223.713C481.306 220.726 480.267 217.677 479.391 214.58C478.873 212.748 478.397 210.865 477.37 209.262C476.438 207.807 475.089 206.644 474.243 205.139C472.953 202.845 472.986 200.02 473.556 197.45C474.036 195.28 474.843 193.192 475.522 191.08C476.055 189.42 478.051 189.043 479.649 189.697Z" fill="#D0CDE1"/>
<path d="M446.754 140.159C444.011 141.085 441.525 143.253 440.963 146.094C440.703 147.411 440.863 148.78 440.644 150.104C440.135 153.175 437.724 155.521 435.501 157.7C433.277 159.879 430.981 162.411 430.819 165.52C430.641 168.924 433.11 172.114 432.683 175.496C432.186 179.426 428.036 181.972 427.011 185.797C426.326 188.352 427.165 191.104 428.546 193.359C431.178 197.657 435.676 200.575 440.467 202.139C445.257 203.703 450.359 204.033 455.398 204.085C461.534 204.15 468.196 203.623 472.806 199.573C475.439 197.239 477.093 193.996 477.435 190.493C477.873 185.802 475.915 180.955 477.266 176.441C478.116 173.6 480.247 171.006 479.929 168.058C479.618 165.175 477.101 163.132 475.374 160.803C473.761 158.629 472.783 156.061 471.824 153.53L468.543 144.869C467.898 143.166 467.19 141.375 465.752 140.258C463.062 138.166 458.735 138.577 455.588 139.008C452.669 139.409 449.561 139.211 446.754 140.159Z" fill="#2F2E41"/>
<path d="M449.292 168.703C449.292 168.703 449.613 178.338 448.65 179.302C447.686 180.265 452.504 186.689 452.504 186.689L461.174 186.367L465.67 182.834L461.817 177.696C461.817 177.696 460.211 169.345 461.495 167.418C462.78 165.491 449.292 168.703 449.292 168.703Z" fill="#A0616A"/>
<path opacity="0.1" d="M449.292 168.703C449.292 168.703 449.613 178.338 448.65 179.302C447.686 180.265 452.504 186.689 452.504 186.689L461.174 186.367L465.67 182.834L461.817 177.696C461.817 177.696 460.211 169.345 461.495 167.418C462.78 165.491 449.292 168.703 449.292 168.703Z" fill="black"/>
<path d="M429.221 243.054L434.68 255.259L438.855 250.12L430.505 239.2L429.221 243.054Z" fill="#A0616A"/>
<path d="M414.609 365.261L412.361 377.787L408.507 383.247L410.755 384.531L414.609 383.889L419.105 382.283L421.032 374.896L424.565 365.261H414.609Z" fill="#A0616A"/>
<path d="M455.715 357.552L454.43 375.539L457.642 378.108L462.78 373.611V360.443L455.715 357.552Z" fill="#A0616A"/>
<path d="M454.591 172.396C460.976 172.396 466.152 167.22 466.152 160.834C466.152 154.448 460.976 149.272 454.591 149.272C448.206 149.272 443.03 154.448 443.03 160.834C443.03 167.22 448.206 172.396 454.591 172.396Z" fill="#A0616A"/>
<path d="M463.512 176.385C463.166 176.219 462.787 176.128 462.403 176.121C462.019 176.114 461.637 176.189 461.285 176.343C460.583 176.653 459.902 177.008 459.246 177.405C457.559 178.283 455.646 178.631 453.757 178.403C453.536 178.387 453.318 178.331 453.116 178.238C452.901 178.105 452.704 177.945 452.528 177.764C451.844 177.208 450.97 176.939 450.091 177.015C449.212 177.09 448.397 177.505 447.817 178.17C447.478 178.593 447.245 179.098 446.875 179.494C445.915 180.521 444.331 180.562 442.926 180.56C440.013 180.479 437.101 180.746 434.252 181.355C431.389 181.973 428.753 183.37 426.634 185.392C426.056 185.936 425.595 186.593 425.281 187.322C424.893 188.321 424.944 189.443 424.596 190.457C424.208 191.586 423.349 192.512 423.001 193.654C422.739 194.514 422.776 195.471 422.337 196.256C424.214 197.881 425.804 200.047 427.681 201.672C428.923 202.748 430.225 203.911 430.692 205.487C430.902 206.459 430.995 207.452 430.969 208.446C431.202 213.196 433.778 217.506 436.659 221.29C437.449 222.413 438.394 223.417 439.467 224.274C440.923 225.265 442.576 225.929 444.314 226.22C447.594 226.891 450.971 226.888 454.32 226.855C457.781 226.82 461.302 226.747 464.592 225.671C466.266 225.204 467.772 224.269 468.933 222.975C470.286 221.313 470.814 218.909 472.66 217.82C473.107 217.615 473.53 217.362 473.923 217.066C474.299 216.658 474.565 216.161 474.696 215.622C475.342 213.605 475.698 211.506 475.753 209.389C475.705 208.118 475.792 206.846 476.01 205.594C476.329 204.49 476.794 203.433 477.393 202.453L481.219 195.514C481.53 194.95 481.449 194.121 481.477 193.477C481.449 192.55 481.164 191.648 480.654 190.872C478.173 186.487 474.275 183.074 469.6 181.195C469.232 181.07 468.881 180.898 468.556 180.684C468.174 180.362 467.85 179.976 467.6 179.543C466.585 178.013 465.345 176.29 463.512 176.385Z" fill="#D0CDE1"/>
<path d="M415.836 214.173C415.081 216.008 414.527 217.918 414.183 219.872C413.814 222.57 414.249 225.318 415.434 227.77C417.496 232.014 421.554 234.893 424.419 238.641C427.08 242.125 428.665 246.3 430.97 250.029C430.568 249.079 431.056 247.98 431.714 247.187C432.372 246.393 433.212 245.735 433.695 244.824C434.023 244.118 434.229 243.362 434.305 242.588C434.649 240.275 434.835 237.763 433.656 235.744C432.769 234.225 431.236 233.216 430.023 231.941C428.809 230.645 427.917 229.081 427.419 227.377C426.92 225.672 426.829 223.875 427.153 222.128C427.387 220.926 427.816 219.772 428.138 218.591C428.536 217.003 428.838 215.392 429.041 213.768L430.487 203.834C430.871 201.192 431.197 198.268 429.701 196.057C429.409 195.594 429.005 195.212 428.527 194.946C428.131 194.765 427.71 194.647 427.278 194.594C425.704 194.337 423.572 193.648 422.803 195.334C421.876 197.37 421.23 199.589 420.454 201.688L415.836 214.173Z" fill="#D0CDE1"/>
<path d="M470.952 219.609C470.952 219.609 451.861 223.302 447.365 223.302H439.337C439.337 223.302 436.447 228.441 436.447 233.58C436.447 238.719 417.499 310.661 417.499 310.661C417.499 310.661 399.516 369.757 419.426 370.078C439.337 370.4 451.861 371.363 452.182 364.619C452.504 357.874 454.43 270.836 454.43 270.836L457.428 315.591C458.234 326.67 457.373 337.808 454.876 348.632C453.438 354.701 453.661 361.353 460.853 362.692C474.662 365.261 492.004 363.013 492.004 358.195C492.004 353.378 483.012 246.427 483.012 246.427C483.012 246.427 478.516 230.689 475.947 229.405C473.378 228.12 470.952 219.609 470.952 219.609Z" fill="#2F2E41"/>
<path d="M411.077 382.604L418.142 380.035L422.959 367.83L428.097 367.188C428.097 367.188 425.207 373.29 423.601 374.254C421.995 375.217 419.426 383.247 419.426 383.247C419.426 383.247 420.711 386.458 414.609 387.743C408.507 389.028 404.011 389.991 404.011 389.991C404.011 389.991 403.369 388.706 406.259 385.495C409.15 382.283 412.525 376.876 412.525 376.876L411.077 382.604Z" fill="#2F2E41"/>
<path d="M454.43 367.83L453.146 377.465C453.146 377.465 456.678 382.604 457.642 382.604C458.605 382.604 463.743 378.108 463.743 378.108C463.743 378.108 463.422 373.29 463.743 372.005C464.065 370.721 464.707 364.618 463.743 364.297C462.78 363.976 462.78 371.455 462.78 371.455L458.605 375.86L454.58 373.446L454.43 367.83Z" fill="#2F2E41"/>
<path d="M455.554 160.834C462.471 160.834 468.079 157.814 468.079 154.089C468.079 150.364 462.471 147.345 455.554 147.345C448.637 147.345 443.03 150.364 443.03 154.089C443.03 157.814 448.637 160.834 455.554 160.834Z" fill="#2F2E41"/>
<path d="M0 286.448C0 324.283 23.7334 354.899 53.0634 354.899Z" fill="#3F3D56"/>
<path d="M53.0634 354.899C53.0634 316.638 79.5485 285.679 112.279 285.679Z" fill="#5CAA45"/>
<path d="M19.2259 289.878C19.2259 325.817 34.3602 354.899 53.0634 354.899Z" fill="#5CAA45"/>
<path d="M53.0634 354.899C53.0634 306.011 83.676 266.451 121.507 266.451Z" fill="#3F3D56"/>
<path d="M41.9002 355.381C41.9002 355.381 49.4255 355.15 51.6934 353.535C53.9613 351.919 63.2691 349.991 63.8318 352.581C64.3944 355.171 75.1408 365.464 66.6448 365.533C58.1489 365.601 46.904 364.209 44.6404 362.83C42.3768 361.451 41.9002 355.381 41.9002 355.381Z" fill="#A8A8A8"/>
<path opacity="0.2" d="M66.7965 364.631C58.3005 364.7 47.0556 363.307 44.792 361.929C43.0682 360.878 42.3813 357.11 42.1514 355.372C41.9923 355.379 41.9002 355.381 41.9002 355.381C41.9002 355.381 42.3768 361.451 44.6404 362.83C46.904 364.209 58.1489 365.601 66.6449 365.533C69.0973 365.513 69.9444 364.64 69.8979 363.348C69.5572 364.129 68.6218 364.616 66.7965 364.631Z" fill="black"/>
</g>
<defs>
<clipPath id="clip0">
<rect width="612.601" height="448" fill="white"/>
</clipPath>
</defs>
</svg>
