<svg width="576" height="323" viewBox="0 0 576 323" fill="none" xmlns="http://www.w3.org/2000/svg">
<g clip-path="url(#clip0)">
<path opacity="0.6" d="M0 322.08C361.804 186.235 705.495 188.597 1032 322.08H0Z" fill="url(#paint0_linear)"/>
<path d="M208.099 289.44C219.873 289.44 229.419 279.89 229.418 268.111C229.417 256.332 219.872 246.782 208.098 246.783C196.324 246.784 186.778 256.333 186.779 268.112C186.791 279.885 196.33 289.427 208.099 289.44ZM208.099 258.347C213.49 258.347 217.86 262.718 217.858 268.111C217.857 273.504 213.488 277.875 208.098 277.874C202.707 277.874 198.338 273.503 198.338 268.111C198.344 262.722 202.711 258.352 208.099 258.347Z" fill="#23286B"/>
<path d="M294.682 284.794C298.135 284.78 301.438 283.384 303.856 280.92C308.086 276.761 309.107 270.325 306.371 265.061L296.273 245.023L292.587 246.881L302.684 266.919C304.592 270.597 303.884 275.088 300.937 277.999C298.273 280.775 294.101 281.469 290.683 279.702L229.315 244.803L227.275 248.394L288.779 283.368C290.608 284.3 292.631 284.788 294.682 284.794Z" fill="#A1C3FC"/>
<path d="M296.093 247.185L292.746 244.765L359.752 151.989L363.098 154.409L296.093 247.185Z" fill="#A1C3FC"/>
<path d="M191.209 286.724C191.766 286.725 192.299 286.5 192.687 286.1L229.178 248.651C234.261 248.584 261.377 248.236 294.443 248.016C295.583 248.008 296.501 247.078 296.493 245.937V245.936C296.486 244.796 296.35 241.777 295.175 241.8C258.61 242.044 228.559 244.527 228.268 244.531C227.721 244.539 227.2 244.763 226.818 245.155L189.73 283.215C188.935 284.033 188.951 285.339 189.768 286.135C190.155 286.514 190.671 286.724 191.209 286.724Z" fill="#A1C3FC"/>
<path d="M377.514 148.68H362.899C361.074 148.68 359.594 150.16 359.594 151.986C359.594 153.813 361.074 155.293 362.899 155.293H377.514C379.339 155.293 380.819 153.813 380.819 151.986C380.819 150.161 379.339 148.68 377.514 148.68Z" fill="#23286B"/>
<path d="M208.098 272.311C205.78 272.311 203.9 270.431 203.9 268.111C203.9 265.791 205.78 263.911 208.098 263.911C210.417 263.911 212.296 265.791 212.296 268.111C212.296 270.431 210.417 272.311 208.098 272.311Z" fill="#23286B"/>
<path d="M301.056 203.793H191.267C191.267 203.793 219.549 243.602 233.595 244.104C245.433 244.527 274.716 244.162 289.2 244.088C293.852 244.064 296.846 240.922 297.817 236.873L301.056 203.793Z" fill="url(#paint1_linear)"/>
<path d="M384.375 163.844C384.375 163.844 394.408 164.911 398.441 157.953C402.475 150.995 404.15 151.696 409.683 150.599C412.069 150.125 420.951 147.954 427.786 146.172L414.378 135.389C408.482 140.362 400.249 146.834 396.58 147.625C390.551 148.916 384.95 146.962 382.246 147.363C379.515 147.766 378.84 148.175 378.831 150.176C378.831 150.176 377.523 150.599 374.064 151.413C367.444 153.402 380.053 163.729 384.375 163.844Z" fill="url(#paint2_linear)"/>
<path d="M463.951 264.261C463.907 264.302 454.065 273.509 443.478 278.042C432.868 282.587 429.685 288.72 429.685 288.72L491.758 288.718L483.024 264.261H463.951Z" fill="url(#paint3_linear)"/>
<path d="M504.136 264.238C503.062 265.236 493.719 273.77 483.738 278.043C473.128 282.587 469.944 288.72 469.944 288.72L532.019 288.718L523.309 264.237L504.136 264.238Z" fill="#428DFC"/>
<path d="M468.824 113.194C463.926 116.652 456.755 117.549 456.755 117.549L443.967 116.188L442.278 138.05C441.76 150.7 439.766 166.43 442.128 181.187C444.646 196.916 459.627 242.275 463.951 264.261H483.025C489.454 250.566 488.184 238.84 485.574 218.465C482.422 193.857 487.592 201.033 482.315 177.998C477.043 154.961 478.453 159.508 480.151 125.052C480.702 113.905 482.283 112.547 479.838 105.903" fill="url(#paint4_linear)"/>
<path d="M451.18 145.258C452.19 158.681 454.234 173.238 457.645 185.582C461.282 198.714 494.546 249.052 504.135 264.238H523.308C523.131 259.929 522.994 242.421 518.842 231.15C514.061 218.224 510.033 221.759 509.112 211.263C508.178 200.776 504.898 194.463 499.04 184.228C493.201 173.981 485.221 177.155 490.885 138.89C493.225 123.623 490.98 108.004 484.438 94.009C483.648 94.3354 482.793 94.6733 481.887 95.0189L481.812 94.4012C481.812 94.4012 480.239 95.2092 477.785 96.4842C477.015 96.7429 476.217 97.0022 475.383 97.2629C475.347 97.4436 475.306 97.6186 475.267 97.7949C465.361 102.963 447.811 112.259 448.859 112.718C450.31 113.353 451.18 145.258 451.18 145.258Z" fill="#23286B"/>
<path opacity="0.86" d="M484.018 117.68C483.956 117.655 483.886 117.686 483.862 117.747C483.835 117.804 483.861 117.873 483.917 117.899C483.919 117.9 483.92 117.901 483.921 117.901C483.983 117.926 484.052 117.895 484.077 117.834C484.101 117.775 484.075 117.708 484.018 117.68ZM481.35 116.586C481.288 116.561 481.219 116.592 481.194 116.654C481.17 116.716 481.201 116.786 481.263 116.81C481.325 116.835 481.394 116.804 481.419 116.742C481.44 116.68 481.41 116.612 481.35 116.586ZM478.69 115.494C478.628 115.469 478.558 115.498 478.533 115.56C478.508 115.622 478.537 115.692 478.599 115.717C478.6 115.717 478.6 115.718 478.601 115.718C478.659 115.741 478.725 115.713 478.747 115.655C478.748 115.653 478.748 115.652 478.749 115.649C478.777 115.596 478.757 115.529 478.703 115.5C478.699 115.498 478.694 115.495 478.69 115.494ZM475.535 126.333C475.509 126.273 475.439 126.245 475.38 126.271C475.32 126.297 475.292 126.366 475.318 126.426C475.344 126.486 475.413 126.513 475.473 126.487C475.532 126.461 475.56 126.392 475.535 126.333ZM474.427 123.68C474.406 123.623 474.342 123.593 474.285 123.613C474.281 123.614 474.276 123.616 474.272 123.618C474.211 123.641 474.179 123.709 474.202 123.771C474.232 123.831 474.302 123.858 474.365 123.834C474.425 123.809 474.453 123.74 474.427 123.68ZM473.32 121.028C473.293 120.967 473.223 120.935 473.159 120.957C473.099 120.986 473.072 121.057 473.096 121.119C473.121 121.179 473.19 121.207 473.25 121.181C473.311 121.158 473.342 121.089 473.32 121.028ZM472.206 118.366C472.18 118.306 472.112 118.279 472.051 118.304C471.99 118.333 471.963 118.404 471.988 118.467C472.013 118.527 472.082 118.554 472.142 118.529C472.203 118.5 472.231 118.428 472.206 118.366ZM479.611 121.67C479.565 121.625 479.492 121.626 479.448 121.672C479.404 121.717 479.404 121.791 479.45 121.835C479.496 121.879 479.568 121.878 479.613 121.833C479.657 121.792 479.661 121.722 479.619 121.677C479.616 121.676 479.613 121.672 479.611 121.67ZM477.571 119.637C477.525 119.593 477.453 119.595 477.408 119.639C477.39 119.658 477.379 119.682 477.374 119.708C477.368 119.745 477.381 119.784 477.409 119.81C477.414 119.817 477.423 119.821 477.431 119.821L477.439 119.823C477.48 119.851 477.537 119.844 477.57 119.809C477.618 119.764 477.619 119.69 477.574 119.643C477.574 119.641 477.572 119.639 477.571 119.637ZM475.528 117.613C475.482 117.568 475.409 117.57 475.365 117.615C475.321 117.661 475.322 117.734 475.367 117.778C475.41 117.825 475.482 117.827 475.53 117.784C475.577 117.74 475.578 117.666 475.533 117.618C475.532 117.616 475.53 117.614 475.528 117.613ZM473.488 115.58C473.442 115.535 473.37 115.537 473.324 115.582C473.277 115.627 473.276 115.701 473.321 115.748C473.323 115.749 473.324 115.751 473.325 115.752C473.366 115.797 473.436 115.8 473.481 115.758C473.484 115.756 473.486 115.753 473.49 115.749C473.537 115.703 473.539 115.629 473.492 115.581C473.49 115.582 473.489 115.581 473.488 115.58ZM469.402 125.957C469.335 125.957 469.279 126.01 469.279 126.079C469.279 126.146 469.332 126.201 469.401 126.202C469.468 126.202 469.524 126.148 469.524 126.08C469.524 126.012 469.47 125.958 469.402 125.957ZM491.135 126.887C491.043 126.804 490.902 126.81 490.82 126.901C490.818 126.903 490.817 126.905 490.815 126.908C490.735 126.999 490.744 127.139 490.835 127.219C490.836 127.219 490.836 127.219 490.837 127.22C490.928 127.303 491.069 127.297 491.151 127.205C491.153 127.204 491.154 127.202 491.156 127.199C491.236 127.108 491.227 126.968 491.136 126.888C491.136 126.887 491.136 126.887 491.135 126.887ZM487.011 123.304C486.92 123.224 486.78 123.233 486.7 123.324C486.699 123.325 486.699 123.325 486.699 123.326C486.616 123.42 486.624 123.563 486.72 123.646C486.814 123.729 486.958 123.72 487.041 123.625C487.117 123.527 487.105 123.386 487.011 123.304ZM482.894 119.73C482.8 119.648 482.656 119.656 482.573 119.751C482.49 119.845 482.499 119.989 482.594 120.072C482.688 120.154 482.832 120.146 482.915 120.051C482.997 119.959 482.992 119.819 482.9 119.736C482.898 119.734 482.896 119.732 482.894 119.73ZM478.778 116.157C478.686 116.074 478.546 116.08 478.463 116.171C478.461 116.173 478.46 116.175 478.458 116.178C478.407 116.232 478.387 116.309 478.405 116.382L478.413 116.384C478.422 116.428 478.445 116.468 478.478 116.499C478.499 116.518 478.526 116.53 478.555 116.534C478.669 116.578 478.797 116.522 478.843 116.408C478.877 116.32 478.851 116.217 478.778 116.157ZM474.537 140.653C474.412 140.662 474.319 140.768 474.324 140.893C474.331 141.012 474.433 141.104 474.553 141.098C474.557 141.098 474.562 141.097 474.565 141.097C474.69 141.088 474.783 140.982 474.777 140.858C474.767 140.735 474.66 140.643 474.537 140.653C474.537 140.653 474.537 140.653 474.537 140.653ZM474.15 135.21C474.027 135.221 473.936 135.328 473.945 135.451C473.952 135.576 474.058 135.672 474.183 135.665C474.308 135.658 474.404 135.552 474.397 135.427C474.397 135.426 474.397 135.424 474.397 135.423C474.384 135.299 474.276 135.207 474.15 135.21ZM473.771 129.768C473.647 129.782 473.554 129.89 473.558 130.015C473.564 130.134 473.667 130.227 473.786 130.22C473.79 130.22 473.795 130.22 473.798 130.22C473.922 130.215 474.016 130.111 474.011 129.989C474.011 129.986 474.011 129.983 474.011 129.981C474.002 129.858 473.895 129.762 473.771 129.768ZM473.384 124.333C473.261 124.343 473.17 124.45 473.179 124.573C473.179 124.573 473.179 124.573 473.179 124.574C473.188 124.698 473.296 124.793 473.42 124.784C473.545 124.775 473.638 124.668 473.631 124.543C473.622 124.419 473.514 124.324 473.39 124.333C473.387 124.333 473.386 124.333 473.384 124.333ZM473.005 118.892C472.88 118.905 472.789 119.016 472.802 119.14C472.814 119.262 472.919 119.351 473.04 119.345C473.159 119.338 473.252 119.237 473.245 119.117C473.245 119.113 473.245 119.108 473.245 119.105C473.236 118.98 473.129 118.886 473.005 118.892ZM488.328 115.793C488.216 115.752 488.092 115.81 488.052 115.923C488.05 115.926 488.05 115.93 488.048 115.934C488.005 116.048 488.064 116.176 488.179 116.219C488.293 116.262 488.421 116.203 488.464 116.088C488.466 116.084 488.467 116.078 488.468 116.074C488.508 115.961 488.451 115.837 488.338 115.797C488.335 115.795 488.332 115.793 488.328 115.793ZM483.158 114.06C483.042 114.019 482.914 114.08 482.873 114.196C482.871 114.2 482.871 114.203 482.87 114.208C482.83 114.323 482.892 114.448 483.008 114.486C483.008 114.486 483.009 114.487 483.01 114.487C483.127 114.529 483.256 114.468 483.297 114.352C483.298 114.35 483.298 114.349 483.299 114.348C483.338 114.23 483.275 114.102 483.158 114.06ZM485.254 135.224C485.201 135.109 485.064 135.06 484.949 135.113C484.835 135.166 484.785 135.302 484.838 135.418C484.891 135.533 485.028 135.582 485.143 135.529C485.144 135.528 485.146 135.528 485.147 135.527C485.259 135.472 485.306 135.337 485.254 135.224ZM482.818 130.344C482.765 130.229 482.628 130.18 482.513 130.233C482.398 130.286 482.348 130.422 482.401 130.537C482.455 130.652 482.591 130.701 482.706 130.648C482.708 130.648 482.709 130.647 482.71 130.646C482.822 130.591 482.87 130.457 482.818 130.344ZM480.38 125.464C480.319 125.354 480.183 125.31 480.068 125.364C479.957 125.423 479.912 125.562 479.973 125.674C480.031 125.782 480.162 125.826 480.273 125.775C480.384 125.716 480.432 125.58 480.38 125.464ZM477.935 120.591C477.884 120.479 477.75 120.429 477.638 120.481C477.526 120.532 477.476 120.666 477.528 120.778C477.53 120.781 477.531 120.785 477.533 120.788C477.586 120.898 477.721 120.944 477.831 120.889C477.833 120.889 477.835 120.887 477.837 120.887C477.944 120.838 477.991 120.711 477.941 120.603C477.939 120.6 477.937 120.596 477.935 120.591ZM475.499 115.712C475.441 115.602 475.307 115.56 475.197 115.616C475.091 115.671 475.047 115.8 475.097 115.908C475.152 116.019 475.287 116.066 475.4 116.014C475.511 115.96 475.556 115.825 475.501 115.714C475.5 115.714 475.5 115.713 475.499 115.712ZM464.298 136.747C464.185 136.707 464.061 136.766 464.022 136.878C464.02 136.883 464.019 136.89 464.017 136.895C463.978 137.01 464.04 137.135 464.155 137.173C464.156 137.173 464.157 137.174 464.158 137.174C464.276 137.214 464.404 137.152 464.446 137.035C464.479 136.915 464.415 136.79 464.298 136.747ZM466.033 131.581C465.916 131.539 465.788 131.6 465.746 131.716C465.745 131.718 465.745 131.719 465.744 131.72C465.705 131.838 465.766 131.966 465.884 132.008C466.004 132.041 466.129 131.978 466.173 131.861C466.212 131.746 466.15 131.621 466.035 131.582C466.034 131.581 466.033 131.581 466.033 131.581ZM489.933 132.736C489.874 132.643 489.75 132.613 489.656 132.672C489.562 132.731 489.533 132.854 489.592 132.948C489.592 132.949 489.592 132.949 489.593 132.95C489.653 133.044 489.777 133.071 489.87 133.011C489.963 132.952 489.991 132.829 489.933 132.736ZM487.351 128.61C487.292 128.516 487.169 128.488 487.075 128.547C486.982 128.607 486.953 128.73 487.013 128.823C487.072 128.917 487.195 128.945 487.289 128.886C487.381 128.83 487.412 128.71 487.356 128.617C487.355 128.615 487.353 128.613 487.351 128.61ZM484.771 124.475C484.756 124.44 484.727 124.413 484.692 124.399L484.684 124.398C484.622 124.371 484.551 124.376 484.495 124.413C484.398 124.473 484.369 124.6 484.43 124.696C484.431 124.696 484.431 124.697 484.431 124.698C484.492 124.79 484.614 124.818 484.708 124.76C484.751 124.735 484.782 124.692 484.789 124.641C484.811 124.587 484.805 124.524 484.771 124.475ZM482.19 120.349C482.13 120.256 482.007 120.229 481.914 120.286C481.818 120.346 481.789 120.471 481.849 120.566C481.909 120.66 482.031 120.69 482.127 120.633C482.223 120.572 482.252 120.445 482.191 120.35C482.19 120.351 482.19 120.35 482.19 120.349ZM479.616 116.224C479.552 116.132 479.428 116.104 479.331 116.161C479.237 116.223 479.21 116.348 479.271 116.442C479.331 116.532 479.449 116.56 479.543 116.507C479.638 116.447 479.67 116.322 479.616 116.224ZM469.589 136.021C469.481 135.996 469.374 136.063 469.349 136.171C469.349 136.172 469.348 136.173 469.348 136.174C469.321 136.278 469.382 136.384 469.486 136.413C469.489 136.413 469.492 136.414 469.495 136.414C469.606 136.437 469.716 136.371 469.745 136.262C469.763 136.154 469.695 136.048 469.589 136.021ZM470.686 131.279C470.578 131.255 470.47 131.322 470.445 131.43C470.445 131.431 470.445 131.431 470.445 131.433C470.417 131.536 470.479 131.643 470.582 131.671C470.585 131.672 470.587 131.672 470.591 131.673C470.698 131.698 470.805 131.633 470.832 131.527C470.858 131.419 470.793 131.31 470.686 131.279ZM471.783 126.539C471.675 126.514 471.568 126.581 471.543 126.689C471.543 126.69 471.542 126.691 471.542 126.692C471.513 126.792 471.569 126.898 471.669 126.928C471.676 126.929 471.681 126.931 471.687 126.931C471.795 126.956 471.903 126.889 471.927 126.781C471.927 126.78 471.928 126.779 471.928 126.778C471.951 126.672 471.888 126.567 471.783 126.539ZM472.871 121.796C472.763 121.777 472.658 121.844 472.63 121.95C472.606 122.06 472.676 122.168 472.785 122.192C472.892 122.215 472.997 122.15 473.025 122.046C473.047 121.935 472.98 121.826 472.871 121.796ZM473.976 117.056C473.865 117.033 473.755 117.099 473.727 117.208C473.701 117.317 473.769 117.424 473.878 117.45C473.988 117.475 474.096 117.407 474.12 117.298C474.12 117.297 474.121 117.296 474.121 117.295C474.142 117.191 474.079 117.087 473.976 117.056ZM487.898 118.257C487.804 118.197 487.681 118.219 487.614 118.307C487.55 118.4 487.572 118.527 487.664 118.592C487.759 118.653 487.885 118.626 487.945 118.531C488.005 118.44 487.983 118.321 487.898 118.257ZM483.929 115.437C483.839 115.37 483.713 115.389 483.646 115.478L483.646 115.479C483.586 115.573 483.608 115.696 483.696 115.763C483.789 115.827 483.916 115.805 483.981 115.713C484.043 115.627 484.024 115.505 483.938 115.443C483.935 115.44 483.932 115.438 483.929 115.437ZM479.95 133.872C479.842 133.896 479.771 134 479.787 134.11C479.806 134.218 479.909 134.291 480.017 134.273C480.127 134.255 480.201 134.154 480.186 134.044C480.168 133.93 480.061 133.854 479.95 133.872ZM479.148 129.071C479.04 129.095 478.968 129.199 478.985 129.31C479.004 129.417 479.107 129.49 479.214 129.472C479.32 129.457 479.393 129.359 479.379 129.255C479.378 129.251 479.377 129.247 479.377 129.242C479.359 129.132 479.258 129.056 479.148 129.071ZM478.345 124.279C478.239 124.293 478.166 124.391 478.18 124.496C478.181 124.5 478.182 124.503 478.182 124.508C478.2 124.616 478.301 124.691 478.41 124.673C478.518 124.656 478.593 124.554 478.575 124.445C478.575 124.444 478.574 124.442 478.574 124.441C478.56 124.335 478.462 124.262 478.357 124.277C478.353 124.277 478.349 124.278 478.345 124.279ZM477.543 119.479C477.433 119.496 477.358 119.598 477.374 119.708C477.381 119.75 477.402 119.79 477.431 119.821L477.439 119.823C477.485 119.865 477.549 119.884 477.611 119.871C477.719 119.851 477.791 119.747 477.772 119.64C477.752 119.533 477.651 119.461 477.543 119.479ZM489.56 120.782C489.515 120.733 489.44 120.73 489.391 120.775C489.342 120.82 489.339 120.895 489.384 120.946C489.429 120.995 489.505 120.997 489.553 120.953C489.6 120.907 489.603 120.833 489.56 120.782ZM487.601 118.688C487.556 118.639 487.481 118.636 487.432 118.681C487.383 118.726 487.38 118.803 487.425 118.852C487.47 118.901 487.546 118.903 487.596 118.859C487.641 118.812 487.645 118.738 487.601 118.688ZM485.636 116.584C485.593 116.537 485.521 116.535 485.474 116.578C485.425 116.615 485.416 116.684 485.453 116.734C485.457 116.738 485.462 116.744 485.467 116.748C485.509 116.795 485.582 116.797 485.629 116.755C485.678 116.717 485.687 116.647 485.648 116.598C485.644 116.593 485.64 116.588 485.636 116.584ZM483.678 114.49C483.631 114.443 483.557 114.44 483.508 114.483C483.461 114.529 483.46 114.603 483.506 114.651C483.506 114.652 483.508 114.652 483.509 114.654C483.552 114.7 483.624 114.703 483.671 114.66C483.717 114.614 483.72 114.539 483.678 114.49ZM478.15 124.985C478.085 124.983 478.031 125.034 478.028 125.098C478.026 125.163 478.076 125.217 478.141 125.22C478.205 125.222 478.26 125.172 478.263 125.107C478.265 125.041 478.214 124.987 478.15 124.985ZM478.245 122.116C478.182 122.111 478.129 122.158 478.123 122.221C478.123 122.224 478.123 122.226 478.123 122.231C478.121 122.295 478.171 122.35 478.236 122.353C478.302 122.356 478.36 122.306 478.365 122.24C478.366 122.174 478.313 122.118 478.246 122.117C478.248 122.116 478.246 122.116 478.245 122.116ZM478.35 119.248C478.287 119.244 478.234 119.291 478.228 119.354C478.228 119.356 478.228 119.36 478.228 119.363C478.226 119.428 478.276 119.482 478.341 119.485C478.405 119.487 478.46 119.437 478.463 119.372C478.465 119.305 478.414 119.25 478.35 119.248ZM478.445 116.379C478.434 116.377 478.423 116.378 478.412 116.382L478.404 116.381C478.358 116.398 478.326 116.442 478.323 116.492C478.321 116.557 478.372 116.611 478.436 116.614C478.488 116.613 478.534 116.58 478.554 116.533L478.558 116.501C478.562 116.438 478.515 116.385 478.452 116.379C478.452 116.379 478.448 116.379 478.445 116.379ZM489.205 113.756C489.152 113.728 489.085 113.749 489.057 113.802C489.055 113.807 489.053 113.812 489.05 113.816C489.023 113.872 489.046 113.94 489.101 113.967C489.104 113.968 489.106 113.97 489.111 113.971C489.17 113.996 489.239 113.97 489.266 113.911C489.293 113.853 489.267 113.784 489.21 113.758C489.207 113.758 489.206 113.758 489.205 113.756ZM483.91 122.574C483.891 122.514 483.827 122.481 483.767 122.5C483.763 122.501 483.759 122.502 483.756 122.504C483.695 122.524 483.663 122.59 483.683 122.65C483.684 122.652 483.685 122.654 483.685 122.657C483.712 122.716 483.778 122.745 483.838 122.726C483.901 122.703 483.933 122.635 483.91 122.574ZM482.898 119.878C482.876 119.819 482.81 119.79 482.751 119.812C482.749 119.813 482.747 119.814 482.744 119.815C482.683 119.84 482.653 119.906 482.675 119.968C482.701 120.026 482.767 120.056 482.827 120.037C482.89 120.016 482.924 119.947 482.901 119.883C482.901 119.883 482.9 119.879 482.898 119.878ZM481.894 117.19C481.867 117.132 481.801 117.102 481.741 117.121C481.68 117.144 481.648 117.212 481.671 117.273C481.691 117.333 481.754 117.366 481.815 117.347C481.818 117.346 481.822 117.345 481.825 117.344C481.886 117.323 481.918 117.257 481.898 117.197C481.895 117.194 481.894 117.192 481.894 117.19ZM480.889 114.503C480.863 114.444 480.797 114.415 480.737 114.433C480.675 114.456 480.644 114.525 480.667 114.586C480.686 114.646 480.749 114.679 480.81 114.66C480.813 114.659 480.817 114.658 480.821 114.656C480.88 114.633 480.911 114.565 480.889 114.503ZM472.853 122.217C472.8 122.189 472.733 122.209 472.705 122.263C472.703 122.267 472.701 122.272 472.699 122.277C472.672 122.336 472.699 122.405 472.759 122.431C472.818 122.458 472.887 122.431 472.913 122.371C472.94 122.313 472.913 122.243 472.853 122.217ZM474.046 119.605C473.993 119.577 473.926 119.598 473.898 119.651C473.896 119.656 473.894 119.661 473.892 119.665C473.863 119.721 473.886 119.791 473.943 119.818C473.943 119.818 473.943 119.818 473.943 119.819C474.005 119.847 474.077 119.82 474.106 119.759C474.133 119.702 474.108 119.633 474.051 119.607C474.049 119.607 474.048 119.607 474.046 119.605ZM475.239 116.995C475.18 116.966 475.109 116.988 475.078 117.045C475.049 117.107 475.076 117.179 475.137 117.208C475.198 117.237 475.271 117.21 475.3 117.149C475.323 117.091 475.297 117.022 475.239 116.995ZM491.645 123.611C491.608 123.55 491.529 123.53 491.468 123.568C491.466 123.568 491.466 123.569 491.464 123.57C491.401 123.606 491.379 123.687 491.416 123.75C491.418 123.753 491.42 123.755 491.422 123.759C491.459 123.821 491.538 123.84 491.599 123.803C491.601 123.802 491.601 123.801 491.603 123.801C491.666 123.759 491.685 123.676 491.645 123.611ZM489.877 120.851C489.84 120.79 489.761 120.77 489.699 120.808C489.698 120.808 489.697 120.809 489.696 120.81C489.632 120.85 489.613 120.935 489.653 120.999C489.694 121.063 489.779 121.082 489.843 121.042C489.904 121.003 489.922 120.921 489.884 120.86C489.881 120.856 489.879 120.854 489.877 120.851ZM488.115 118.092C488.076 118.027 487.99 118.007 487.926 118.047C487.862 118.086 487.842 118.172 487.881 118.236C487.882 118.237 487.882 118.237 487.883 118.238C487.881 118.246 487.89 118.247 487.897 118.256C487.943 118.303 488.016 118.313 488.073 118.281C488.137 118.24 488.156 118.156 488.115 118.092ZM486.348 115.331L486.32 115.294C486.312 115.293 486.305 115.284 486.289 115.282C486.248 115.259 486.197 115.261 486.158 115.288C486.094 115.329 486.075 115.414 486.116 115.478C486.156 115.542 486.241 115.56 486.305 115.52C486.369 115.48 486.387 115.395 486.348 115.331ZM477.973 125.969C477.899 125.96 477.831 126.006 477.811 126.077C477.795 126.149 477.839 126.22 477.911 126.238C477.977 126.258 478.047 126.22 478.068 126.153C478.069 126.149 478.07 126.143 478.071 126.138C478.091 126.064 478.046 125.989 477.973 125.97C477.973 125.969 477.973 125.969 477.973 125.969ZM478.677 122.769C478.603 122.76 478.535 122.806 478.515 122.877C478.499 122.949 478.543 123.02 478.615 123.038C478.689 123.057 478.764 123.013 478.783 122.94C478.796 122.864 478.75 122.791 478.677 122.769ZM479.38 119.57C479.306 119.561 479.238 119.607 479.218 119.678C479.202 119.75 479.246 119.821 479.318 119.839C479.385 119.858 479.457 119.819 479.475 119.751C479.477 119.745 479.478 119.738 479.479 119.731C479.496 119.659 479.452 119.587 479.38 119.57ZM480.084 116.37C480.01 116.357 479.939 116.405 479.922 116.478C479.906 116.55 479.95 116.621 480.022 116.638C480.089 116.658 480.161 116.619 480.179 116.551C480.181 116.544 480.182 116.537 480.183 116.53C480.201 116.459 480.155 116.387 480.084 116.37ZM489.929 113.824C489.865 113.785 489.781 113.802 489.737 113.862C489.696 113.921 489.71 114.002 489.769 114.042C489.771 114.044 489.773 114.045 489.777 114.046C489.831 114.089 489.911 114.08 489.953 114.025C489.955 114.022 489.957 114.018 489.96 114.014C490 113.953 489.987 113.87 489.929 113.824ZM484.848 124.511C484.837 124.438 484.769 124.387 484.697 124.399C484.696 124.399 484.694 124.399 484.692 124.399L484.685 124.398C484.615 124.415 484.57 124.484 484.582 124.555C484.593 124.627 484.66 124.678 484.733 124.667C484.734 124.667 484.735 124.666 484.737 124.666C484.756 124.661 484.774 124.652 484.79 124.641C484.834 124.615 484.858 124.562 484.848 124.511ZM484.112 121.168C484.038 121.186 483.99 121.257 484 121.332C484.02 121.404 484.091 121.45 484.164 121.436C484.236 121.421 484.282 121.352 484.267 121.281C484.267 121.28 484.267 121.28 484.266 121.279C484.256 121.207 484.186 121.157 484.112 121.168ZM483.54 117.947C483.465 117.959 483.416 118.03 483.428 118.103C483.44 118.177 483.511 118.227 483.584 118.214C483.658 118.202 483.708 118.132 483.696 118.058C483.684 117.986 483.617 117.935 483.545 117.947C483.544 117.947 483.541 117.947 483.54 117.947ZM482.96 114.725C482.889 114.739 482.843 114.808 482.857 114.881C482.857 114.881 482.857 114.882 482.857 114.882C482.868 114.95 482.932 114.997 483.001 114.988C483.005 114.988 483.01 114.987 483.014 114.986C483.088 114.973 483.137 114.904 483.125 114.83C483.109 114.756 483.035 114.71 482.962 114.727C482.961 114.725 482.961 114.725 482.96 114.725ZM472.509 121.828C472.45 121.787 472.369 121.801 472.329 121.86C472.327 121.862 472.326 121.864 472.325 121.867C472.283 121.927 472.297 122.008 472.357 122.051C472.417 122.095 472.501 122.084 472.546 122.024C472.546 122.023 472.548 122.021 472.548 122.021C472.589 121.956 472.572 121.871 472.509 121.828ZM474.388 119.14C474.324 119.098 474.238 119.116 474.195 119.179C474.154 119.238 474.168 119.317 474.227 119.358C474.23 119.36 474.232 119.361 474.235 119.363C474.289 119.406 474.369 119.396 474.412 119.341C474.414 119.338 474.417 119.335 474.419 119.331C474.463 119.271 474.45 119.185 474.388 119.14C474.388 119.14 474.388 119.141 474.388 119.14ZM476.267 116.453C476.206 116.41 476.122 116.425 476.078 116.486C476.077 116.488 476.076 116.49 476.075 116.491C476.033 116.554 476.05 116.638 476.113 116.679C476.174 116.72 476.256 116.705 476.298 116.645C476.339 116.583 476.326 116.5 476.267 116.453ZM489.703 137.988C489.575 138.008 489.487 138.126 489.504 138.253C489.525 138.38 489.644 138.465 489.77 138.445C489.897 138.424 489.984 138.307 489.97 138.18C489.948 138.054 489.829 137.967 489.703 137.988ZM488.826 132.437C488.699 132.458 488.614 132.577 488.634 132.704C488.654 132.83 488.774 132.916 488.901 132.896C489.027 132.874 489.113 132.756 489.092 132.63C489.072 132.502 488.952 132.416 488.826 132.437ZM487.957 126.887C487.83 126.903 487.741 127.018 487.756 127.145C487.772 127.271 487.888 127.361 488.014 127.345C488.018 127.345 488.021 127.345 488.025 127.344C488.153 127.324 488.241 127.206 488.224 127.079C488.202 126.952 488.083 126.866 487.957 126.887ZM487.08 121.335C486.954 121.354 486.868 121.471 486.887 121.597C486.887 121.598 486.888 121.6 486.888 121.602C486.908 121.728 487.028 121.814 487.154 121.793C487.28 121.773 487.366 121.653 487.346 121.527C487.346 121.527 487.346 121.527 487.346 121.527C487.326 121.401 487.209 121.315 487.084 121.335C487.084 121.335 487.081 121.335 487.08 121.335ZM486.211 115.784C486.085 115.805 485.999 115.923 486.019 116.048C486.039 116.172 486.154 116.258 486.278 116.24C486.406 116.221 486.494 116.102 486.477 115.975C486.457 115.85 486.337 115.765 486.211 115.784ZM466.861 132.476C466.754 132.401 466.609 132.427 466.534 132.532C466.462 132.634 466.483 132.775 466.581 132.853C466.688 132.927 466.834 132.904 466.915 132.802C466.987 132.697 466.963 132.554 466.861 132.476ZM470.172 127.936C470.068 127.861 469.922 127.885 469.847 127.989C469.772 128.092 469.796 128.238 469.899 128.313C470.003 128.388 470.149 128.364 470.224 128.261C470.299 128.157 470.275 128.011 470.172 127.936ZM473.481 123.395C473.381 123.317 473.238 123.335 473.161 123.434C473.16 123.435 473.158 123.437 473.158 123.439C473.083 123.545 473.106 123.692 473.209 123.772C473.314 123.846 473.457 123.822 473.534 123.72C473.61 123.619 473.588 123.475 473.487 123.399C473.485 123.398 473.482 123.396 473.481 123.395ZM476.79 118.854C476.691 118.776 476.548 118.794 476.47 118.893C476.468 118.895 476.468 118.896 476.466 118.898C476.394 119.006 476.416 119.15 476.517 119.231C476.623 119.305 476.766 119.281 476.842 119.179C476.919 119.082 476.903 118.942 476.806 118.866C476.802 118.861 476.797 118.857 476.79 118.854ZM480.109 114.306C480.003 114.232 479.86 114.256 479.784 114.358C479.709 114.463 479.733 114.61 479.838 114.685C479.94 114.759 480.083 114.737 480.161 114.638C480.235 114.531 480.212 114.386 480.109 114.306ZM478.739 135.023C478.616 134.994 478.493 135.07 478.464 135.191C478.464 135.193 478.463 135.194 478.463 135.195C478.432 135.319 478.505 135.444 478.627 135.479C478.753 135.504 478.875 135.429 478.913 135.306C478.943 135.182 478.866 135.054 478.739 135.023C478.739 135.023 478.74 135.023 478.739 135.023ZM480.057 129.564C479.938 129.532 479.815 129.603 479.783 129.723C479.782 129.727 479.781 129.733 479.78 129.737C479.75 129.859 479.824 129.982 479.945 130.013C480.071 130.043 480.198 129.967 480.23 129.84V129.84C480.262 129.721 480.191 129.598 480.071 129.566C480.067 129.566 480.061 129.564 480.057 129.564ZM481.377 124.097C481.25 124.07 481.125 124.15 481.099 124.277C481.073 124.402 481.15 124.524 481.274 124.554C481.397 124.583 481.52 124.507 481.549 124.386C481.549 124.385 481.55 124.383 481.55 124.381C481.581 124.254 481.504 124.127 481.377 124.097C481.377 124.097 481.378 124.097 481.377 124.097ZM482.695 118.636C482.57 118.609 482.448 118.686 482.419 118.81C482.389 118.935 482.467 119.059 482.591 119.088C482.713 119.117 482.837 119.042 482.868 118.921C482.899 118.794 482.822 118.667 482.695 118.636C482.696 118.636 482.696 118.636 482.695 118.636ZM482.138 136.836C482.011 136.809 481.887 136.89 481.861 137.017C481.834 137.143 481.916 137.268 482.042 137.294C482.169 137.32 482.293 137.24 482.319 137.113C482.347 136.987 482.265 136.863 482.138 136.836ZM483.224 131.345C483.096 131.325 482.974 131.408 482.946 131.535C482.926 131.659 483.006 131.776 483.128 131.805C483.255 131.832 483.379 131.751 483.406 131.624C483.43 131.496 483.35 131.374 483.224 131.345ZM484.302 125.86C484.177 125.837 484.057 125.918 484.032 126.043C484.008 126.168 484.089 126.288 484.215 126.313C484.341 126.34 484.466 126.259 484.492 126.132C484.511 126.004 484.428 125.885 484.302 125.86ZM485.389 120.368C485.265 120.343 485.146 120.422 485.119 120.545C485.119 120.547 485.119 120.548 485.119 120.55C485.096 120.675 485.178 120.795 485.302 120.82C485.422 120.848 485.541 120.772 485.568 120.652C485.57 120.648 485.57 120.642 485.571 120.638C485.596 120.514 485.517 120.395 485.394 120.369C485.393 120.369 485.39 120.369 485.389 120.368ZM486.475 114.877C486.352 114.851 486.233 114.93 486.206 115.054C486.206 115.056 486.206 115.057 486.206 115.059C486.187 115.143 486.22 115.231 486.288 115.282C486.304 115.284 486.311 115.294 486.319 115.295C486.338 115.313 486.362 115.324 486.387 115.329C486.513 115.353 486.633 115.271 486.658 115.146C486.682 115.021 486.6 114.901 486.475 114.877ZM491.502 122.825C491.376 122.854 491.295 122.974 491.317 123.101C491.34 123.226 491.461 123.308 491.587 123.284C491.712 123.26 491.795 123.14 491.771 123.014C491.77 123.012 491.77 123.01 491.769 123.009C491.747 122.884 491.627 122.802 491.504 122.825C491.503 122.825 491.502 122.825 491.502 122.825ZM490.395 117.34C490.269 117.367 490.186 117.489 490.211 117.616C490.24 117.742 490.367 117.821 490.492 117.791C490.613 117.763 490.691 117.647 490.67 117.524C490.644 117.399 490.523 117.317 490.395 117.34ZM472.805 129.863C472.702 129.793 472.561 129.821 472.491 129.924C472.489 129.927 472.488 129.929 472.486 129.933C472.417 130.038 472.443 130.18 472.548 130.251C472.655 130.323 472.801 130.296 472.874 130.19C472.946 130.084 472.918 129.939 472.812 129.867C472.809 129.865 472.807 129.864 472.805 129.863ZM475.911 125.204C475.808 125.135 475.668 125.162 475.598 125.266C475.596 125.268 475.595 125.271 475.593 125.274C475.523 125.38 475.55 125.522 475.655 125.593C475.762 125.665 475.908 125.637 475.981 125.532C476.053 125.425 476.025 125.281 475.918 125.209C475.915 125.207 475.913 125.205 475.911 125.204ZM479.017 120.546C478.909 120.479 478.767 120.509 478.697 120.615C478.627 120.721 478.654 120.863 478.759 120.933C478.866 121.006 479.012 120.978 479.085 120.873C479.157 120.766 479.13 120.622 479.022 120.55C479.021 120.549 479.019 120.547 479.017 120.546ZM482.123 115.887C482.015 115.823 481.875 115.854 481.803 115.957C481.733 116.062 481.76 116.204 481.865 116.275C481.973 116.346 482.117 116.32 482.191 116.214C482.263 116.106 482.233 115.96 482.125 115.889C482.124 115.888 482.123 115.888 482.123 115.887ZM482.109 127.226C482.026 127.184 481.925 127.216 481.884 127.3C481.881 127.305 481.879 127.311 481.877 127.316C481.838 127.404 481.878 127.508 481.967 127.546C482.056 127.584 482.159 127.544 482.198 127.455C482.236 127.366 482.196 127.265 482.109 127.226ZM483.771 123.344C483.685 123.305 483.581 123.342 483.541 123.428C483.541 123.43 483.54 123.432 483.539 123.434C483.5 123.523 483.54 123.627 483.629 123.666C483.719 123.705 483.823 123.665 483.862 123.576C483.9 123.487 483.86 123.384 483.771 123.344ZM485.433 119.463C485.343 119.424 485.239 119.464 485.2 119.553C485.161 119.643 485.201 119.747 485.29 119.786C485.38 119.825 485.484 119.785 485.523 119.696C485.56 119.605 485.521 119.503 485.433 119.463ZM487.095 115.581C487.004 115.545 486.9 115.589 486.862 115.679C486.827 115.768 486.871 115.869 486.959 115.904C486.96 115.904 486.961 115.904 486.961 115.904C487.046 115.942 487.145 115.904 487.183 115.819C487.184 115.817 487.185 115.816 487.185 115.814C487.225 115.727 487.187 115.624 487.101 115.584C487.098 115.583 487.097 115.582 487.095 115.581ZM490.985 126.849C490.888 126.846 490.809 126.922 490.807 127.019C490.807 127.02 490.807 127.02 490.807 127.02C490.808 127.115 490.883 127.193 490.978 127.198C491.073 127.199 491.153 127.123 491.156 127.027C491.161 126.935 491.091 126.854 490.998 126.85C490.993 126.849 490.989 126.849 490.985 126.849ZM491.031 122.63C490.938 122.629 490.861 122.702 490.86 122.795C490.86 122.797 490.86 122.799 490.86 122.801C490.858 122.898 490.934 122.977 491.03 122.979C491.03 122.979 491.031 122.979 491.031 122.979C491.128 122.976 491.207 122.898 491.21 122.801C491.209 122.705 491.129 122.628 491.033 122.629C491.033 122.63 491.033 122.631 491.031 122.63ZM491.088 118.405C490.99 118.408 490.912 118.486 490.909 118.583C490.907 118.675 490.98 118.751 491.072 118.754C491.074 118.754 491.077 118.754 491.081 118.754C491.174 118.759 491.255 118.689 491.259 118.596C491.259 118.592 491.259 118.587 491.259 118.583C491.262 118.486 491.186 118.407 491.09 118.405C491.088 118.405 491.088 118.405 491.088 118.405ZM491.134 114.186C491.04 114.186 490.963 114.263 490.964 114.358V114.359C490.959 114.451 491.03 114.532 491.123 114.536C491.127 114.536 491.132 114.536 491.136 114.536C491.232 114.539 491.312 114.463 491.314 114.366C491.314 114.366 491.314 114.365 491.314 114.365C491.309 114.268 491.23 114.19 491.134 114.186ZM476.197 120.668C476.135 120.599 476.029 120.592 475.959 120.654C475.957 120.656 475.955 120.657 475.954 120.658C475.884 120.722 475.879 120.831 475.942 120.9C475.945 120.903 475.948 120.907 475.952 120.91C476.019 120.979 476.129 120.979 476.196 120.912C476.262 120.845 476.264 120.737 476.197 120.668ZM479.221 117.716C479.15 117.651 479.042 117.65 478.969 117.714C478.902 117.786 478.904 117.899 478.976 117.966C479.044 118.03 479.15 118.032 479.219 117.968C479.284 117.898 479.286 117.789 479.221 117.716ZM482.244 114.772C482.18 114.702 482.07 114.697 482.001 114.761C481.998 114.764 481.995 114.766 481.992 114.77C481.926 114.838 481.926 114.946 481.99 115.015C482.059 115.083 482.17 115.081 482.238 115.013C482.304 114.947 482.306 114.841 482.244 114.772ZM488.234 114.827C488.192 114.8 488.135 114.813 488.108 114.856C488.108 114.856 488.108 114.857 488.107 114.858C488.078 114.903 488.092 114.964 488.137 114.992C488.137 114.992 488.137 114.992 488.137 114.992C488.181 115.019 488.238 115.004 488.264 114.96C488.293 114.916 488.28 114.856 488.234 114.827C488.234 114.827 488.234 114.827 488.234 114.827ZM489.466 121.225C489.399 121.181 489.306 121.199 489.261 121.267C489.259 121.27 489.257 121.274 489.255 121.278C489.207 121.342 489.222 121.432 489.285 121.478C489.289 121.481 489.294 121.483 489.299 121.487C489.371 121.536 489.468 121.516 489.516 121.444C489.564 121.375 489.545 121.279 489.474 121.232C489.473 121.229 489.469 121.227 489.466 121.225ZM485.231 114.51C485.178 114.442 485.078 114.43 485.009 114.484C484.945 114.534 484.931 114.627 484.976 114.695C485.024 114.766 485.121 114.786 485.192 114.738C485.194 114.737 485.196 114.736 485.199 114.734C485.268 114.679 485.282 114.58 485.231 114.51Z" fill="white"/>
<path d="M421.251 44.3773C421.251 44.3773 431.081 43.4754 446.576 49.93C462.07 56.3847 466.881 62.0659 475.671 66.1086C484.461 70.1513 507.207 76.1129 506.217 101.461C506.217 101.461 501.496 117.567 452.73 114.914L412.608 52.6652C412.608 52.6652 418.9 51.7409 421.251 44.3773Z" fill="url(#paint5_linear)"/>
<path d="M413.484 55.8826C413.484 55.8826 425.208 77.1272 428.033 91.1621C430.857 105.198 430.509 110.323 422.134 119.361C415.597 126.414 409.348 132.444 409.348 132.444L429.742 168.497C429.742 168.497 442.815 162.749 446.293 151.253C450.205 138.324 455.895 136.241 461.572 132.586C467.25 128.932 477.778 117.537 468.912 97.5573C460.046 77.5775 446.897 59.2547 420.979 43.4702" fill="#A1C3FC"/>
<path d="M404.981 45.3635C404.981 45.3635 411.863 52.6454 413.484 55.8814C413.484 55.8814 416.115 56.2864 419.556 49.0045L411.459 38.8916L404.981 45.3635Z" fill="url(#paint6_linear)"/>
<path d="M389.798 21.4956C389.798 21.4956 388.773 29.1026 386.356 31.8109C382.929 35.6518 383.582 36.0574 387.774 37.8785C387.774 37.8785 396.988 53.6591 412.273 41.3783C412.273 41.3783 418.949 35.4519 418.544 32.0134C418.139 28.575 416.721 23.3154 413.078 22.5061C409.434 21.6974 390.405 15.8323 389.798 21.4956Z" fill="#FFBEB6"/>
<path d="M416.994 14.5957C421.029 14.5957 424.299 11.3283 424.299 7.29785C424.299 3.26736 421.029 0 416.994 0C412.96 0 409.69 3.26736 409.69 7.29785C409.69 11.3283 412.96 14.5957 416.994 14.5957Z" fill="#E94A47"/>
<path d="M450.834 32.695C449.268 29.5101 446.228 27.3045 442.712 26.8024C438.102 26.2122 429.704 29.9649 426.812 25.1257C426.612 24.699 426.411 24.2282 426.206 23.7261C426.149 23.5364 426.095 23.3416 426.05 23.1346C426.034 23.0407 425.973 22.9609 425.887 22.9213C425.869 22.8734 425.851 22.8319 425.832 22.7833C424.545 19.4177 422.233 16.5414 419.223 14.5574C423.228 14.4111 426.356 11.0486 426.211 7.04745C426.204 6.86668 426.191 6.68655 426.171 6.5077C426.129 6.07845 425.453 6.07398 425.495 6.5077C425.933 10.1148 423.363 13.3929 419.753 13.8311C419.171 13.9007 418.584 13.8943 418.005 13.8094C414.182 11.6478 408.968 10.369 402.01 10.6232C387.877 11.1368 386.159 21.8833 388 28.8394C388.183 28.3731 388.364 27.956 388.513 27.4693L388.533 27.4156L388.959 25.8673L389.006 25.6846L390.008 22.0877C390.008 22.0877 396.442 23.3039 399.919 27.4757C403.396 31.6474 408.444 29.9087 410.183 28.6919C411.922 27.4757 415.4 29.5638 413.829 33.2073C413.74 33.4168 413.64 33.6403 413.537 33.8741C409.864 40.0075 411.863 47.9556 418.001 51.6247C419.031 52.2398 420.141 52.7093 421.299 53.0197C421.481 53.0631 421.664 52.9514 421.707 52.77C421.749 52.5969 421.648 52.4212 421.479 52.3682C416.689 51.0766 413.147 47.0339 412.497 42.1212C413.548 45.1515 416.627 48.512 423.917 51.8048L448.788 34.2548C446.648 30.3316 442.225 28.2275 437.828 29.0425C432.08 29.9317 429.711 29.7841 427.823 26.9583C429.38 27.9362 431.2 28.4166 433.037 28.3354C435.831 28.3016 438.547 27.3185 441.345 27.392C445.138 27.4533 448.578 29.6334 450.249 33.0374C450.451 33.4213 451.035 33.0802 450.834 32.695Z" fill="#E94A47"/>
<path d="M391.846 28.5916C390.78 30.193 388.616 30.6286 387.013 29.5638C386.432 29.178 385.981 28.6273 385.717 27.9822C385.513 27.4935 386.24 27.0822 386.446 27.5785C386.949 28.9538 388.474 29.6615 389.85 29.1582C390.369 28.9684 390.816 28.6216 391.128 28.1668C391.437 27.7324 392.156 28.1534 391.846 28.5916Z" fill="#1C2868"/>
</g>
<defs>
<linearGradient id="paint0_linear" x1="1032" y1="271.58" x2="-1.68637e-05" y2="271.58" gradientUnits="userSpaceOnUse">
<stop stop-color="#D9E021"/>
<stop offset="1" stop-color="#B4C500"/>
</linearGradient>
<linearGradient id="paint1_linear" x1="247.574" y1="206.996" x2="274.161" y2="267.189" gradientUnits="userSpaceOnUse">
<stop stop-color="#A1C3FC"/>
<stop offset="1" stop-color="#84AFEF"/>
</linearGradient>
<linearGradient id="paint2_linear" x1="384.501" y1="166.703" x2="414.065" y2="133.706" gradientUnits="userSpaceOnUse">
<stop stop-color="#FFBEB6"/>
<stop offset="1" stop-color="#F2A19C"/>
</linearGradient>
<linearGradient id="paint3_linear" x1="429.685" y1="276.491" x2="491.759" y2="276.491" gradientUnits="userSpaceOnUse">
<stop offset="0.1291" stop-color="#428DFC"/>
<stop offset="0.9987" stop-color="#1D72D8"/>
</linearGradient>
<linearGradient id="paint4_linear" x1="419.652" y1="243.905" x2="479.809" y2="170.114" gradientUnits="userSpaceOnUse">
<stop stop-color="#23286B"/>
<stop offset="0.4316" stop-color="#1D225F"/>
<stop offset="1" stop-color="#151A4F"/>
</linearGradient>
<linearGradient id="paint5_linear" x1="457.882" y1="58.4307" x2="465.36" y2="140.764" gradientUnits="userSpaceOnUse">
<stop stop-color="#A1C3FC"/>
<stop offset="0.6955" stop-color="#81AEF2"/>
<stop offset="1" stop-color="#78A9EF"/>
</linearGradient>
<linearGradient id="paint6_linear" x1="419.632" y1="57.4395" x2="406.516" y2="39.1391" gradientUnits="userSpaceOnUse">
<stop stop-color="#FFBEB6"/>
<stop offset="0.0326" stop-color="#FEBDB5"/>
<stop offset="0.6116" stop-color="#F5A8A3"/>
<stop offset="1" stop-color="#F2A19C"/>
</linearGradient>
<clipPath id="clip0">
<rect width="576" height="322.08" fill="white" transform="matrix(-1 0 0 1 576 0)"/>
</clipPath>
</defs>
</svg>
