<svg width="1440" height="1024" viewBox="0 0 1440 1024" fill="none" xmlns="http://www.w3.org/2000/svg">
<rect width="1440" height="1024" fill="white"/>
<path d="M1065 135C942.521 119.656 831.911 80.2302 736.5 1H1439.5V317.5C1357.7 221.748 1283.76 178.728 1065 135Z" fill="#EFF9F0"/>
<g clip-path="url(#clip0)">
<path d="M1360.74 522.196C1359.3 510.91 1363.81 499.293 1361.13 488.245C1359.07 479.71 1352.96 472.585 1350.95 464.035C1348 451.364 1354.75 438.35 1363.36 428.621C1369.28 421.915 1376.72 415.83 1385.58 414.611C1391.05 413.833 1396.67 415.035 1401.72 417.265C1406.86 419.569 1411.47 422.906 1415.26 427.069C1419.04 431.231 1421.94 436.13 1423.75 441.46C1424.91 444.924 1425.59 448.547 1427.02 451.905C1429.5 457.691 1434.03 462.359 1436.85 467.99C1438.73 471.804 1439.79 475.97 1439.97 480.22C1440.15 484.469 1439.43 488.709 1437.87 492.666C1434.61 500.815 1427.76 507.633 1426.74 516.355C1426.01 522.639 1428.37 529.524 1425.3 535.062C1422.99 539.241 1418.23 541.35 1413.73 542.931C1403.26 546.573 1388.6 552.488 1378.09 546.857C1368.9 541.934 1362.08 532.612 1360.74 522.196Z" fill="#EFF9F0"/>
<path d="M1390.16 526.929C1390.16 526.929 1401.65 522.292 1403.1 519.684C1404.55 517.076 1406.58 501.717 1406.58 501.717" stroke="#D0CDE1" stroke-width="3" stroke-miterlimit="10"/>
<path d="M1390.01 605.187L1390.36 493.155" stroke="#D0CDE1" stroke-width="3" stroke-miterlimit="10"/>
<path d="M1303.34 485.278C1301.67 472.187 1306.9 458.712 1303.79 445.895C1301.4 435.996 1294.31 427.73 1291.98 417.813C1288.56 403.115 1296.39 388.019 1306.38 376.734C1313.25 368.956 1321.87 361.896 1332.15 360.483C1338.5 359.58 1345.02 360.975 1350.88 363.562C1356.84 366.233 1362.18 370.104 1366.58 374.933C1370.98 379.761 1374.33 385.444 1376.43 391.626C1377.79 395.644 1378.57 399.845 1380.23 403.742C1383.1 410.455 1388.36 415.872 1391.63 422.399C1393.81 426.824 1395.04 431.656 1395.25 436.585C1395.45 441.515 1394.62 446.433 1392.82 451.023C1389.03 460.475 1381.08 468.385 1379.91 478.5C1379.05 485.791 1381.79 493.777 1378.24 500.197C1375.56 505.045 1370.03 507.495 1364.81 509.324C1352.66 513.55 1335.66 520.411 1323.47 513.879C1312.81 508.173 1304.88 497.362 1303.34 485.278Z" fill="#5CAA45"/>
<path d="M1337.29 605.187V449.449" stroke="#333333" stroke-width="3" stroke-miterlimit="10"/>
<path d="M1337.46 494.581C1337.46 494.581 1355.36 487.358 1357.62 483.296C1359.88 479.234 1363.04 455.308 1363.04 455.308" stroke="#333333" stroke-width="3" stroke-miterlimit="10"/>
<path d="M1262.5 147.039L1041.59 147.579C1032.51 147.601 1025.17 154.978 1025.19 164.056L1026.23 589.279C1026.25 598.356 1033.63 605.697 1042.71 605.675L1263.62 605.135C1272.7 605.113 1280.04 597.736 1280.02 588.659L1278.98 163.436C1278.96 154.358 1271.58 147.017 1262.5 147.039Z" fill="#2F2E41"/>
<path d="M1271.03 579.366C1271.04 581.867 1270.05 584.268 1268.29 586.043C1266.53 587.818 1264.13 588.82 1261.63 588.83L1044.78 589.356C1042.28 589.359 1039.88 588.369 1038.11 586.604C1036.34 584.839 1035.34 582.442 1035.33 579.941L1035.19 516.222L1034.36 172.65C1034.35 170.149 1035.33 167.747 1037.1 165.972C1038.86 164.198 1041.25 163.195 1043.75 163.185L1089.11 163.079C1089.83 167.826 1092.23 172.157 1095.87 175.291C1099.51 178.424 1104.15 180.154 1108.95 180.168L1194.64 179.962C1199.46 179.942 1204.1 178.197 1207.74 175.044C1211.38 171.891 1213.77 167.539 1214.48 162.776L1260.54 162.663C1263.04 162.659 1265.44 163.649 1267.21 165.415C1268.98 167.18 1269.98 169.576 1269.99 172.077L1270.87 516.222L1271.03 579.366Z" fill="white"/>
<path d="M1271.03 583.699C1271.06 586.231 1270.08 588.671 1268.31 590.483C1266.55 592.295 1264.13 593.331 1261.6 593.364L1043.98 593.9C1041.45 593.882 1039.03 592.859 1037.26 591.056C1035.48 589.254 1034.49 586.819 1034.5 584.288L1034.36 519.226H1270.87L1271.03 583.699Z" fill="#EFF9F0"/>
<path d="M1176.91 163.612L1122.99 164.421C1122.26 164.432 1121.68 165.03 1121.7 165.756L1121.71 166.663C1121.72 167.389 1122.32 167.969 1123.04 167.958L1176.96 167.149C1177.69 167.138 1178.27 166.54 1178.26 165.814L1178.24 164.907C1178.23 164.181 1177.64 163.601 1176.91 163.612Z" fill="white"/>
<path d="M1190.29 166.943C1191.46 166.925 1192.4 165.96 1192.38 164.787C1192.36 163.614 1191.39 162.677 1190.22 162.695C1189.05 162.712 1188.11 163.677 1188.13 164.851C1188.15 166.024 1189.11 166.96 1190.29 166.943Z" fill="white"/>
<path d="M1085.27 221.927H1054.41C1050.6 221.927 1047.51 225.017 1047.51 228.83V259.692C1047.51 263.505 1050.6 266.596 1054.41 266.596H1085.27C1089.08 266.596 1092.17 263.505 1092.17 259.692V228.83C1092.17 225.017 1089.08 221.927 1085.27 221.927Z" fill="#EFF9F0"/>
<path d="M1140.41 221.927H1109.55C1105.73 221.927 1102.64 225.017 1102.64 228.83V259.692C1102.64 263.505 1105.73 266.596 1109.55 266.596H1140.41C1144.22 266.596 1147.31 263.505 1147.31 259.692V228.83C1147.31 225.017 1144.22 221.927 1140.41 221.927Z" fill="#EFF9F0"/>
<path d="M1195.54 221.927H1164.68C1160.87 221.927 1157.78 225.017 1157.78 228.83V259.692C1157.78 263.505 1160.87 266.596 1164.68 266.596H1195.54C1199.36 266.596 1202.45 263.505 1202.45 259.692V228.83C1202.45 225.017 1199.36 221.927 1195.54 221.927Z" fill="#EFF9F0"/>
<path d="M1250.68 221.927H1219.82C1216.01 221.927 1212.92 225.017 1212.92 228.83V259.692C1212.92 263.505 1216.01 266.596 1219.82 266.596H1250.68C1254.49 266.596 1257.58 263.505 1257.58 259.692V228.83C1257.58 225.017 1254.49 221.927 1250.68 221.927Z" fill="#EFF9F0"/>
<path d="M1085.25 288.886H1054.41C1050.6 288.886 1047.51 291.976 1047.51 295.789V326.635C1047.51 330.448 1050.6 333.539 1054.41 333.539H1085.25C1089.07 333.539 1092.16 330.448 1092.16 326.635V295.789C1092.16 291.976 1089.07 288.886 1085.25 288.886Z" fill="#5CAA45"/>
<path d="M1140.37 288.886H1109.53C1105.71 288.886 1102.62 291.976 1102.62 295.789V326.635C1102.62 330.448 1105.71 333.539 1109.53 333.539H1140.37C1144.18 333.539 1147.27 330.448 1147.27 326.635V295.789C1147.27 291.976 1144.18 288.886 1140.37 288.886Z" fill="#EFF9F0"/>
<path d="M1195.49 288.886H1164.64C1160.83 288.886 1157.74 291.976 1157.74 295.789V326.635C1157.74 330.448 1160.83 333.539 1164.64 333.539H1195.49C1199.3 333.539 1202.39 330.448 1202.39 326.635V295.789C1202.39 291.976 1199.3 288.886 1195.49 288.886Z" fill="#EFF9F0"/>
<path d="M1250.6 288.886H1219.76C1215.95 288.886 1212.86 291.976 1212.86 295.789V326.635C1212.86 330.448 1215.95 333.539 1219.76 333.539H1250.6C1254.42 333.539 1257.51 330.448 1257.51 326.635V295.789C1257.51 291.976 1254.42 288.886 1250.6 288.886Z" fill="#EFF9F0"/>
<path d="M1085.27 355.933H1054.41C1050.6 355.933 1047.51 359.024 1047.51 362.837V393.699C1047.51 397.511 1050.6 400.602 1054.41 400.602H1085.27C1089.08 400.602 1092.17 397.511 1092.17 393.699V362.837C1092.17 359.024 1089.08 355.933 1085.27 355.933Z" fill="#EFF9F0"/>
<path d="M1140.41 355.933H1109.55C1105.73 355.933 1102.64 359.024 1102.64 362.837V393.699C1102.64 397.511 1105.73 400.602 1109.55 400.602H1140.41C1144.22 400.602 1147.31 397.511 1147.31 393.699V362.837C1147.31 359.024 1144.22 355.933 1140.41 355.933Z" fill="#EFF9F0"/>
<path d="M1195.54 355.933H1164.68C1160.87 355.933 1157.78 359.024 1157.78 362.837V393.699C1157.78 397.511 1160.87 400.602 1164.68 400.602H1195.54C1199.36 400.602 1202.45 397.511 1202.45 393.699V362.837C1202.45 359.024 1199.36 355.933 1195.54 355.933Z" fill="#EFF9F0"/>
<path d="M1250.68 355.933H1219.82C1216.01 355.933 1212.92 359.024 1212.92 362.837V393.699C1212.92 397.511 1216.01 400.602 1219.82 400.602H1250.68C1254.49 400.602 1257.58 397.511 1257.58 393.699V362.837C1257.58 359.024 1254.49 355.933 1250.68 355.933Z" fill="#EFF9F0"/>
<path d="M1085.27 422.937H1054.41C1050.6 422.937 1047.51 426.027 1047.51 429.84V460.702C1047.51 464.515 1050.6 467.606 1054.41 467.606H1085.27C1089.08 467.606 1092.17 464.515 1092.17 460.702V429.84C1092.17 426.027 1089.08 422.937 1085.27 422.937Z" fill="#EFF9F0"/>
<path d="M1140.41 422.937H1109.55C1105.73 422.937 1102.64 426.027 1102.64 429.84V460.702C1102.64 464.515 1105.73 467.606 1109.55 467.606H1140.41C1144.22 467.606 1147.31 464.515 1147.31 460.702V429.84C1147.31 426.027 1144.22 422.937 1140.41 422.937Z" fill="#EFF9F0"/>
<path d="M1195.54 422.937H1164.68C1160.87 422.937 1157.78 426.027 1157.78 429.84V460.702C1157.78 464.515 1160.87 467.606 1164.68 467.606H1195.54C1199.36 467.606 1202.45 464.515 1202.45 460.702V429.84C1202.45 426.027 1199.36 422.937 1195.54 422.937Z" fill="#EFF9F0"/>
<path d="M1250.68 422.937H1219.82C1216.01 422.937 1212.92 426.027 1212.92 429.84V460.702C1212.92 464.515 1216.01 467.606 1219.82 467.606H1250.68C1254.49 467.606 1257.58 464.515 1257.58 460.702V429.84C1257.58 426.027 1254.49 422.937 1250.68 422.937Z" fill="#EFF9F0"/>
<path d="M1083.67 533.724H1051.08C1047.27 533.724 1044.18 536.815 1044.18 540.628V573.214C1044.18 577.027 1047.27 580.118 1051.08 580.118H1083.67C1087.48 580.118 1090.57 577.027 1090.57 573.214V540.628C1090.57 536.815 1087.48 533.724 1083.67 533.724Z" fill="#5CAA45"/>
<path d="M1140.93 533.724H1108.34C1104.53 533.724 1101.44 536.815 1101.44 540.628V573.214C1101.44 577.027 1104.53 580.118 1108.34 580.118H1140.93C1144.74 580.118 1147.83 577.027 1147.83 573.214V540.628C1147.83 536.815 1144.74 533.724 1140.93 533.724Z" fill="#5CAA45"/>
<path d="M1198.2 533.724H1165.61C1161.8 533.724 1158.71 536.815 1158.71 540.628V573.214C1158.71 577.027 1161.8 580.118 1165.61 580.118H1198.2C1202.01 580.118 1205.1 577.027 1205.1 573.214V540.628C1205.1 536.815 1202.01 533.724 1198.2 533.724Z" fill="#5CAA45"/>
<path d="M1255.46 533.724H1222.87C1219.06 533.724 1215.97 536.815 1215.97 540.628V573.214C1215.97 577.027 1219.06 580.118 1222.87 580.118H1255.46C1259.27 580.118 1262.36 577.027 1262.36 573.214V540.628C1262.36 536.815 1259.27 533.724 1255.46 533.724Z" fill="#5CAA45"/>
<path d="M1036.61 303.59V313.759L1024.5 331.51L1036.61 339.396C1036.61 339.396 1041.99 318.65 1044.9 316.208C1044.9 316.208 1049.46 312.955 1051.94 308.481C1054.42 304.007 1053.18 288.547 1041.16 302.377V304.006L1036.61 303.59Z" fill="#FDA57D"/>
<path d="M942.233 321.929L947.033 312.335C947.172 312.052 947.385 311.812 947.648 311.639C947.911 311.465 948.216 311.365 948.53 311.349L966.748 310.418C967.044 310.403 967.339 310.461 967.607 310.589C967.875 310.717 968.106 310.91 968.28 311.15C968.454 311.39 968.565 311.67 968.603 311.964C968.64 312.258 968.604 312.557 968.497 312.833L963.797 324.984C963.658 325.344 963.406 325.648 963.078 325.852C962.751 326.056 962.366 326.147 961.982 326.113L943.672 324.483C943.384 324.458 943.107 324.363 942.864 324.207C942.621 324.05 942.421 323.837 942.279 323.585C942.137 323.334 942.059 323.052 942.051 322.763C942.043 322.474 942.106 322.188 942.233 321.929Z" fill="#FDA57D"/>
<path d="M943.581 317.812L940.486 326.885L972.264 325.744L960.057 318.42L943.581 317.812Z" fill="#EDEEF9"/>
<path d="M930.878 416.969C932.154 423.247 931.403 429.767 928.733 435.59C924.263 444.947 924.263 454.727 929.954 466.102L931.584 525.093C931.584 525.093 933.616 552.761 931.584 558.455C929.552 564.15 932.382 591.415 932.382 591.415H955.167V573.104L962.893 518.994V491.322L976.75 520.21L960.913 586.935L981.658 595.483L1007.69 520.622C1007.69 520.622 1003.18 461.631 986.908 441.293L983.846 419.116L930.878 416.969Z" fill="#3F3D56"/>
<path d="M931.986 605.152V590.101H955.173C955.173 590.101 956.803 596.204 967.38 597.425C977.957 598.645 962.497 605.972 962.497 605.972L931.986 605.152Z" fill="#3F3D56"/>
<path d="M957.691 598.412L961.728 583.895L981.804 590.272C981.804 590.272 983.997 596.435 993.862 600.446C1000.58 603.179 993.261 606.321 993.261 606.321L990.621 607.003L957.691 598.412Z" fill="#3F3D56"/>
<path opacity="0.1" d="M983.849 420.334L930.871 418.189C931.527 421.348 931.663 424.594 931.273 427.797C933.694 433.498 938.894 431.939 938.894 431.939L985.248 430.513L983.849 420.334Z" fill="black"/>
<path d="M941.548 323.506L939.437 324.938C933.047 329.266 928.055 335.361 925.071 342.478C922.087 349.595 921.239 357.427 922.63 365.018V365.018C922.63 365.018 934.428 388.113 930.766 411.208C927.104 434.304 938.902 430.74 938.902 430.74L985.485 429.306L988.943 359.262C988.943 359.262 1017.01 363.254 1029.63 353.488L1039.8 337.951L1024.34 327.281L1019.06 334.828C1019.06 334.828 1002.49 331.331 993.393 327.635C989.149 325.904 984.632 324.936 980.051 324.778L941.548 323.506Z" fill="#5CAA45"/>
<path opacity="0.1" d="M941.956 436.204C941.956 436.204 939.105 450.444 955.383 474.04Z" fill="black"/>
<path opacity="0.1" d="M989.128 359.311C989.128 359.311 1008.65 352.802 1017.2 352.802C1025.74 352.802 1024.32 356.49 1024.32 356.49C1024.32 356.49 1010.71 362.564 989.128 359.311Z" fill="black"/>
<path opacity="0.1" d="M967.004 311.246L959.231 312.176C958.987 312.176 958.762 312.513 958.631 312.994C960.34 316.076 962.477 317.91 964.8 317.91C965.629 317.898 966.44 317.671 967.156 317.253L967.747 313.656C967.947 312.46 967.551 311.18 967.004 311.246Z" fill="black"/>
<path d="M961.58 317.093C974.684 317.093 985.308 306.469 985.308 293.364C985.308 280.259 974.684 269.636 961.58 269.636C948.475 269.636 937.852 280.259 937.852 293.364C937.852 306.469 948.475 317.093 961.58 317.093Z" fill="#FDA57D"/>
<path opacity="0.1" d="M981.765 279.929L980.55 281.024C980.042 281.49 979.659 282.076 979.437 282.729C979.214 283.382 979.16 284.081 979.279 284.76C979.399 285.439 979.687 286.078 980.118 286.616C980.549 287.155 981.108 287.576 981.745 287.841V287.841C981.745 287.841 971.115 298.471 969.637 300.444C968.159 302.418 969.881 307.611 969.881 307.611C969.881 307.611 974.579 316.262 949.862 314.282C949.862 314.282 933.55 310.825 935.28 288.825C935.451 286.621 931.822 280.907 942.696 277.951C943.022 274.863 944.3 271.952 946.354 269.623C948.407 267.294 951.134 265.661 954.157 264.951C958.361 263.906 962.703 263.525 967.024 263.823C971.051 264.176 974.798 266.027 977.527 269.008C980.256 271.99 981.768 275.887 981.765 279.929V279.929Z" fill="black"/>
<path d="M982.279 278.636C982.279 278.636 984.8 279.414 984.919 287.682L981.335 287.438C981.335 287.438 973.048 309.61 973.919 306.719C977.132 296.089 970.705 298.068 969.221 300.048C967.736 302.028 969.465 307.214 969.465 307.214C969.465 307.214 974.163 315.865 949.445 313.886C949.445 313.886 933.134 310.428 934.863 288.429C935.035 286.225 931.406 280.51 942.28 277.554C942.603 274.468 943.878 271.558 945.927 269.228C947.977 266.898 950.7 265.262 953.72 264.548C957.923 263.503 962.265 263.122 966.586 263.42C974.955 264.125 982.279 270.269 982.279 278.636Z" fill="#72351C"/>
<path d="M867.485 605.194C867.485 605.194 857.124 570.02 869.458 544.129C874.684 533.305 876.259 521.078 873.948 509.283C872.805 503.691 871.152 498.216 869.01 492.925" stroke="#D0CDE1" stroke-width="2" stroke-miterlimit="10"/>
<path d="M876.65 476.541C876.65 480.854 868.846 493.353 868.846 493.353C868.846 493.353 861.042 480.861 861.042 476.541C861.042 474.471 861.865 472.485 863.329 471.021C864.793 469.556 866.779 468.734 868.849 468.734C870.92 468.734 872.906 469.556 874.37 471.021C875.834 472.485 876.657 474.471 876.657 476.541H876.65Z" fill="#EFF9F0"/>
<path d="M890.2 500.42C887.859 504.036 874.513 510.282 874.513 510.282C874.513 510.282 874.757 495.549 877.097 491.926C878.223 490.188 879.992 488.969 882.017 488.536C884.041 488.103 886.155 488.493 887.892 489.618C889.63 490.744 890.849 492.513 891.282 494.538C891.715 496.563 891.325 498.676 890.2 500.414V500.42Z" fill="#EFF9F0"/>
<path d="M888.984 541.229C885.138 543.202 870.457 541.827 870.457 541.827C870.457 541.827 878.103 529.23 881.956 527.284C883.804 526.352 885.947 526.193 887.913 526.841C889.878 527.489 891.507 528.891 892.438 530.739C893.37 532.588 893.53 534.731 892.882 536.697C892.234 538.663 890.832 540.291 888.984 541.223V541.229Z" fill="#EFF9F0"/>
<path d="M881.601 572.012C878.136 574.576 863.442 575.733 863.442 575.733C863.442 575.733 868.853 562.025 872.317 559.461C873.141 558.851 874.078 558.41 875.072 558.162C876.067 557.914 877.1 557.865 878.114 558.017C879.128 558.168 880.102 558.518 880.98 559.046C881.859 559.574 882.625 560.27 883.234 561.094C883.844 561.919 884.285 562.855 884.533 563.849C884.781 564.844 884.83 565.878 884.678 566.891C884.527 567.905 884.177 568.879 883.649 569.758C883.121 570.636 882.425 571.402 881.601 572.012V572.012Z" fill="#EFF9F0"/>
<path d="M857.466 511.13C860.556 514.135 874.967 517.245 874.967 517.245C874.967 517.245 871.436 502.932 868.346 499.934C866.849 498.574 864.882 497.849 862.86 497.912C860.839 497.974 858.92 498.819 857.509 500.268C856.098 501.717 855.305 503.658 855.297 505.681C855.289 507.703 856.067 509.65 857.466 511.111V511.13Z" fill="#EFF9F0"/>
<path d="M849.294 547.238C853.14 549.211 867.821 547.837 867.821 547.837C867.821 547.837 860.174 535.24 856.322 533.294C855.407 532.832 854.41 532.555 853.387 532.479C852.365 532.403 851.338 532.529 850.365 532.85C849.391 533.171 848.491 533.68 847.714 534.349C846.938 535.018 846.3 535.833 845.839 536.749C845.377 537.664 845.101 538.661 845.025 539.683C844.948 540.705 845.074 541.732 845.395 542.706C845.716 543.679 846.225 544.58 846.894 545.357C847.563 546.133 848.379 546.77 849.294 547.232V547.238Z" fill="#EFF9F0"/>
<path d="M846.164 583.419C849.629 585.983 864.323 587.14 864.323 587.14C864.323 587.14 858.912 573.432 855.447 570.868C854.623 570.258 853.687 569.817 852.693 569.569C851.698 569.321 850.664 569.272 849.651 569.424C848.637 569.575 847.663 569.925 846.784 570.453C845.906 570.981 845.14 571.677 844.531 572.502C843.921 573.326 843.48 574.262 843.232 575.256C842.984 576.251 842.935 577.285 843.086 578.298C843.238 579.312 843.588 580.286 844.116 581.165C844.644 582.043 845.34 582.809 846.164 583.419V583.419Z" fill="#EFF9F0"/>
<path d="M1439.72 605.477H843.041V606.546H1439.72V605.477Z" fill="#2F2E41"/>
</g>
<defs>
<clipPath id="clip0">
<rect width="597" height="460" fill="white" transform="translate(843 147)"/>
</clipPath>
</defs>
</svg>
