<svg width="100" height="100" viewBox="0 0 100 100" fill="none" xmlns="http://www.w3.org/2000/svg">
<path d="M35.5764 34.0004C35.3835 34.0339 35.2091 34.1306 35.0719 34.2683L31.4211 37.9587C31.3692 37.9922 31.3172 38.0331 31.2727 38.0777C31.2504 38.0963 31.2319 38.1149 31.2133 38.1373C31.1911 38.167 31.1725 38.1968 31.154 38.2265C31.1169 38.2824 31.0872 38.3419 31.0649 38.4051C31.0315 38.4907 31.013 38.58 31.0056 38.673C30.9981 38.7437 30.9981 38.8106 31.0056 38.8813C31.0056 38.9111 31.0056 38.9408 31.0056 38.9706V73.0476C31.0056 73.5722 31.4322 74 31.9554 74H68.0474C68.5706 74 68.9972 73.5722 68.9972 73.0476V38.9111C69.0009 38.8627 69.0009 38.8106 68.9972 38.7623C68.9972 38.7511 68.9972 38.7437 68.9972 38.7325C68.9972 38.7139 68.9972 38.6916 68.9972 38.673C68.9972 38.6544 68.9972 38.632 68.9972 38.6134C68.9898 38.5725 68.9787 38.5316 68.9675 38.4944C68.9527 38.4423 68.9304 38.394 68.9082 38.3456C68.897 38.3344 68.8896 38.327 68.8785 38.3158C68.8451 38.2526 68.8043 38.1931 68.7598 38.1373C68.7598 38.1261 68.7598 38.1187 68.7598 38.1075C68.7486 38.0963 68.7412 38.0889 68.7301 38.0777H68.7004C68.6819 38.0554 68.6633 38.0368 68.641 38.0182L64.9309 34.2683C64.7491 34.0897 64.5005 33.993 64.2483 34.0004H35.7545C35.7248 34.0004 35.6952 34.0004 35.6655 34.0004C35.6358 34.0004 35.6061 34.0004 35.5764 34.0004ZM36.1701 35.9051H63.8327L65.7323 37.8099H54.7503C54.2272 37.8099 53.8006 38.2377 53.8006 38.7623C53.8006 40.9311 52.1644 42.5717 50.0014 42.5717C47.8384 42.5717 46.2022 40.9311 46.2022 38.7623C46.2022 38.2377 45.7756 37.8099 45.2524 37.8099H34.2705L36.1701 35.9051ZM32.9051 39.7146H44.4807C44.9445 42.4081 47.1817 44.4765 50.0014 44.4765C52.8211 44.4765 55.0583 42.4081 55.5221 39.7146H67.0976V72.0953H32.9051V39.7146ZM58.8166 49.5062L48.1018 60.2501L43.0857 55.2204L41.7204 56.5895L47.4191 62.3037L48.1018 62.9584L48.7845 62.3037L60.182 50.8752L58.8166 49.5062Z" fill="#F05F6B"/>
<path d="M0 15C0 6.71573 6.71573 0 15 0H85C93.2843 0 100 6.71573 100 15V85C100 93.2843 93.2843 100 85 100H15C6.71573 100 0 93.2843 0 85V15Z" fill="#F05F6B" fill-opacity="0.1"/>
</svg>
