<svg width="100" height="100" viewBox="0 0 100 100" fill="none" xmlns="http://www.w3.org/2000/svg">
<path d="M0 15C0 6.71573 6.71573 0 15 0H85C93.2843 0 100 6.71573 100 15V85C100 93.2843 93.2843 100 85 100H15C6.71573 100 0 93.2843 0 85V15Z" fill="#3C9A9D" fill-opacity="0.1"/>
<path d="M47.2857 30C43.3097 30 40.0476 33.262 40.0476 37.2381C40.0476 41.2142 43.3097 44.4762 47.2857 44.4762C51.2618 44.4762 54.5238 41.2142 54.5238 37.2381C54.5238 33.262 51.2618 30 47.2857 30ZM47.2857 49.9048C41.602 49.9048 31 52.7023 31 58.0476V62.5714H50.8942C50.4237 61.8766 50.0107 61.1487 49.6289 60.4049C48.2482 57.7142 47.4494 54.7452 47.3281 51.7178H47.3211C47.3066 51.4482 47.2857 51.1798 47.2857 50.912C47.2857 50.5664 47.33 50.2322 47.4023 49.9083C47.3662 49.9083 47.3219 49.9048 47.2857 49.9048ZM51.912 49.9048C51.4705 49.9048 50.9048 50.2353 50.9048 50.912C50.9048 55.4756 52.7555 59.8321 55.8986 63.0097C59.0743 66.151 63.4309 68 67.9927 68C68.6695 68 69 67.4343 69 66.9927V63.4656C69 62.9191 68.5658 62.471 68.0175 62.4583C67.3842 62.4439 66.5873 62.4056 66.0843 62.317C65.5396 62.2211 64.8846 62.0323 64.4232 61.8893C64.0613 61.7771 63.6661 61.8795 63.3983 62.1473L62.0941 63.349C62.0941 63.3471 59.9524 62.5714 58.1429 60.7619C56.3333 58.9524 55.4674 56.7223 55.4674 56.7223L56.761 55.5065C57.0288 55.2387 57.1276 54.8435 57.0154 54.4816C56.8725 54.022 56.6837 53.3652 56.5878 52.8205C56.4991 52.3175 56.4627 51.5206 56.4464 50.8873C56.432 50.3408 55.9857 49.9048 55.4392 49.9048H51.912Z" fill="#3C9A9D"/>
</svg>
