<svg width="100" height="100" viewBox="0 0 100 100" fill="none" xmlns="http://www.w3.org/2000/svg">
<path d="M69 50C69 60.4766 60.4766 69 50 69C46.9761 69 43.9789 68.2685 41.2932 66.8824L34.0153 68.9145C33.8053 68.9715 33.5916 69 33.3788 69C32.7566 69 32.1476 68.7549 31.6963 68.3046C31.0912 67.6985 30.8584 66.8112 31.0883 65.9875L33.1204 58.7134C31.7315 56.0249 31 53.0257 31 50C31 39.5224 39.5234 31 50 31C60.4766 31 69 39.5224 69 50ZM51.425 53.325C51.425 51.862 52.1413 51.1932 53.1322 50.266C54.276 49.1973 55.7 47.8672 55.7 45.25C55.7 42.1064 53.1435 39.55 50 39.55C46.8564 39.55 44.3 42.1064 44.3 45.25C44.3 46.0366 44.9374 46.675 45.725 46.675C46.5125 46.675 47.15 46.0366 47.15 45.25C47.15 43.6787 48.4287 42.4 50 42.4C51.5713 42.4 52.85 43.6787 52.85 45.25C52.85 46.5686 52.2791 47.1633 51.1866 48.1846C50.0228 49.2714 48.575 50.6241 48.575 53.325C48.575 54.1116 49.2124 54.75 50 54.75C50.7875 54.75 51.425 54.1116 51.425 53.325ZM50 56.65C48.9502 56.65 48.1 57.5002 48.1 58.55C48.1 59.5997 48.9502 60.45 50 60.45C51.0497 60.45 51.9 59.5997 51.9 58.55C51.9 57.5002 51.0497 56.65 50 56.65Z" fill="#FFE600"/>
<path d="M0 15C0 6.71573 6.71573 0 15 0H85C93.2843 0 100 6.71573 100 15V85C100 93.2843 93.2843 100 85 100H15C6.71573 100 0 93.2843 0 85V15Z" fill="#FFE600" fill-opacity="0.1"/>
</svg>
