<svg id="_x33_0" enable-background="new 0 0 64 64" height="512" viewBox="0 0 64 64" width="512" xmlns="http://www.w3.org/2000/svg"><g><path d="m38 22c1.654 0 3-1.346 3-3h-2c0 .551-.449 1-1 1s-1-.449-1-1h-2c0 1.654 1.346 3 3 3z"/><path d="m20 7h4v2h-4z"/><path d="m26 7h2v2h-2z"/><path d="m32 5h4v2h-4z"/><path d="m58 15c-2.542 0-4.646 1.906-4.96 4.364-1.262.685-2.04 1.988-2.04 3.432 0 1.043.406 2.024 1.144 2.762l.856.856v12.481l-18-1.8v-1.095h1c3.519 0 6.432-2.613 6.92-6h1.08c1.103 0 2-.897 2-2v-2c0-1.033-.404-1.967-1.05-2.678-.126-2.188-.606-4.305-1.425-6.322h2.475c1.103 0 2-.897 2-2v-2c0-1.103-.897-2-2-2h-3.256l-1.259-4.197c-1.042-3.471-4.175-5.803-7.799-5.803-1.257 0-2.516.297-3.641.859l-.956.478c-.627.314-1.379.267-1.963-.122-1.193-.795-2.581-1.215-4.014-1.215-3.437 0-6.421 2.446-7.095 5.816l-.837 4.184h-2.18c-1.103 0-2 .897-2 2v2c0 1.103.897 2 2 2h2v2.669c0 5.542 2.711 10.749 7.251 13.927l2.749 1.925v.649l-3.718.698-9.868-9.868h-3.414c-3.86 0-7 3.14-7 7v11c0 1.103.897 2 2 2h6.083c-.05.428-.083.86-.083 1.299v7.337c0 4.06 3.304 7.364 7.364 7.364h22.222.414c2.206 0 4-1.794 4-4v-.414-9.586h13c3.86 0 7-3.141 7-7v-22c0-2.757-2.243-5-5-5zm-3.946 6.091.946-.473v-.618c0-1.654 1.346-3 3-3s3 1.346 3 3v5h-6.586l-.856-.856c-.354-.355-.558-.846-.558-1.348 0-.727.404-1.38 1.054-1.705zm-17.674 18.152-1.174 2.739c-.511-.743-1.243-1.321-2.103-1.657l1.272-1.282zm-6.38 10.343-4-4v-.586c0-1.103.897-2 2-2h1.415l.293-.293c.455-.456 1.061-.707 1.756-.707 1.398 0 2.536 1.138 2.536 2.536 0 .677-.263 1.313-.739 1.789zm12-21.586v-2h-2v2h-2c0-2.206 1.794-4 4-4 1.103 0 2 .897 2 2l.001 2zm.832-5.91c-.269-.057-.546-.09-.832-.09-3.309 0-6 2.691-6 6 0 1.103.897 2 2 2h2.899c-.465 2.279-2.484 4-4.899 4h-5v2h2v1.588l-2.075 2.093-3.925-3.16v-9.021l-3.068-2.301c-.592-.444-.932-1.129-.932-1.935 0-.605.235-1.173.663-1.601s.996-.663 1.601-.663h1.517l1-4h13.565c.747 1.626 1.252 3.328 1.486 5.09zm-24.854-14.881c.488-2.439 2.647-4.209 5.134-4.209 1.037 0 2.042.304 2.904.879 1.182.787 2.701.881 3.967.247l.956-.478c.849-.424 1.799-.648 2.747-.648 2.733 0 5.098 1.759 5.883 4.377l1.087 3.623h-23.436zm-4.978 5.791h33l.001 2h-33.001zm10.398 18.958c-4.006-2.804-6.398-7.398-6.398-12.289v-2.669h8.719l-.5 2c-1.122.012-2.175.454-2.97 1.249-.806.805-1.249 1.876-1.249 3.072 0 1.385.631 2.652 1.732 3.478l2.268 1.701v4.579zm2.333 6.11 3.293 2.651c-.139.09-.28.175-.409.281h-.615c-.74 0-1.424.215-2.019.567l-2.986-2.986zm-1.164 4.913c-.352.595-.567 1.279-.567 2.019v.526l-.033.027-14.931-14.931c.154-.8.787-1.431 1.588-1.584zm-11.567-5.567 1.413 1.413c-.499.294-.972.622-1.413.985zm-10 7.586v-11c0-2.596 1.996-4.712 4.531-4.953-.328.581-.531 1.24-.531 1.953v.414l4 4v6.563c-.647.922-1.154 1.939-1.494 3.023zm8 10.636v-7.337c0-3.399 1.911-6.453 4.899-7.985l6.512 6.512-3.411 2.791v-4.617h-2v6.253l-3.633 2.972 1.267 1.549 10.299-8.428 3.653 3.654-8.433 8.434c-1.01 1.009-2.356 1.566-3.789 1.566-2.958 0-5.364-2.406-5.364-5.364zm10.399 5.364c.055-.052.114-.099.168-.152l7.433-7.434 7.586 7.586zm17.979-.036-8.964-8.964 1.586-1.586 8.964 8.964c-.153.801-.786 1.433-1.586 1.586zm16.622-13.964h-13v-2h-2v11.586l-7.586-7.586 1.261-1.261c.647-.647 1.072-1.457 1.241-2.338l2.55-5.95 15.08 1.508 1.747 1.747 1.414-1.414-1.707-1.706v-12.586h6v15c0 2.757-2.243 5-5 5z"/></g></svg>