<svg width="64" height="64" viewBox="0 0 64 64" fill="none" xmlns="http://www.w3.org/2000/svg">
<path d="M31 4C20.5234 4 12 12.5234 12 23C12 27.9727 14.7813 31.6875 17.4727 35.2812C19.6211 38.1523 21.6445 40.8867 22 44V51C22 54.5195 24.6133 57.4336 28 57.9219V59C28 60.1016 28.8984 61 30 61H32C33.1016 61 34 60.1016 34 59V57.9219C37.3867 57.4336 40 54.5195 40 51V44.8984C40.0156 41.4023 42.2227 38.4297 44.5625 35.2812C47.2383 31.6875 50 27.9727 50 23C50 12.5234 41.4766 4 31 4ZM31 6C40.375 6 48 13.625 48 23C48 27.3125 45.4375 30.7578 42.9609 34.0898C40.7187 37.1055 38.4062 40.2109 38.0469 43.9375H32V41C32 40.4492 31.5508 40 31 40C30.4492 40 30 40.4492 30 41V43.9414H24.0273C23.6641 40.2148 21.332 37.1016 19.0742 34.082C16.5781 30.75 14 27.3086 14 23C14 13.625 21.625 6 31 6ZM30.8633 8.99609C28.1914 9.01953 25.582 9.80469 23.3125 11.2969C22.8516 11.5977 22.7266 12.2188 23.0312 12.6797C23.2227 12.9727 23.5391 13.1289 23.8633 13.1289C24.0547 13.1289 24.2422 13.0781 24.4141 12.9648C27.0039 11.2617 30.1172 10.6367 33.1836 11.1992C33.7305 11.2969 34.25 10.9375 34.3477 10.3945C34.4492 9.85156 34.0898 9.33203 33.5469 9.23438C32.6523 9.06641 31.7578 8.98828 30.8633 8.99609ZM37.8594 10.875C37.4766 10.8203 37.0742 10.9961 36.8594 11.3477C36.5742 11.8242 36.7266 12.4375 37.2031 12.7227C38.0273 13.2227 38.7969 13.8242 39.4844 14.5156C39.6797 14.7109 39.9375 14.8086 40.1914 14.8086C40.4492 14.8086 40.707 14.7109 40.9023 14.5156C41.293 14.125 41.293 13.4922 40.9023 13.1016C40.0937 12.2969 39.1992 11.5937 38.2344 11.0117C38.1172 10.9414 37.9883 10.8945 37.8594 10.875ZM5.02344 11.5117C4.63281 11.5195 4.26562 11.7539 4.10938 12.1367C3.90625 12.6484 4.15234 13.2344 4.66406 13.4375L8.375 14.9375C8.49609 14.9883 8.62109 15.0117 8.74609 15.0117C9.14062 15.0117 9.51953 14.7734 9.67578 14.3867C9.88281 13.8711 9.63281 13.2891 9.12109 13.082L5.41406 11.582C5.28516 11.5313 5.15234 11.5078 5.02344 11.5117ZM56.9766 11.5117C56.8477 11.5078 56.7148 11.5313 56.5859 11.582L52.8789 13.082C52.3672 13.2891 52.1172 13.8711 52.3242 14.3867C52.4805 14.7734 52.8594 15.0117 53.2539 15.0117C53.3789 15.0117 53.5039 14.9883 53.625 14.9375L57.3359 13.4375C57.8477 13.2344 58.0938 12.6484 57.8906 12.1367C57.7344 11.7539 57.3672 11.5195 56.9766 11.5117ZM1 22C0.449219 22 0 22.4492 0 23C0 23.5508 0.449219 24 1 24H7C7.55078 24 8 23.5508 8 23C8 22.4492 7.55078 22 7 22H1ZM55 22C54.4492 22 54 22.4492 54 23C54 23.5508 54.4492 24 55 24H61C61.5508 24 62 23.5508 62 23C62 22.4492 61.5508 22 61 22H55ZM27 26C26.7461 26 26.4883 26.0977 26.293 26.293C25.9023 26.6836 25.9023 27.3164 26.293 27.707L28.293 29.707C28.4883 29.9023 28.7422 30 29 30C29.2578 30 29.5117 29.9023 29.707 29.707C30.0977 29.3164 30.0977 28.6836 29.707 28.293L27.707 26.293C27.5117 26.0977 27.2539 26 27 26ZM35 26C34.7461 26 34.4883 26.0977 34.293 26.293L30.293 30.293C30.1055 30.4805 30 30.7344 30 31V37C30 37.5508 30.4492 38 31 38C31.5508 38 32 37.5508 32 37V31.4141L35.707 27.707C36.0977 27.3164 36.0977 26.6836 35.707 26.293C35.5117 26.0977 35.2539 26 35 26ZM8.76562 30.9883C8.63281 30.9883 8.5 31.0117 8.375 31.0625L4.66406 32.5625C4.15234 32.7656 3.90625 33.3516 4.10938 33.8633C4.26953 34.2539 4.64453 34.4883 5.03906 34.4883C5.16406 34.4883 5.29297 34.4648 5.41406 34.418L9.12109 32.918C9.63281 32.7109 9.88281 32.1289 9.67578 31.6133C9.51953 31.2305 9.15234 30.9961 8.76562 30.9883ZM53.2344 30.9922C52.8477 31 52.4805 31.2344 52.3242 31.6172C52.1172 32.1289 52.3672 32.7148 52.8789 32.9219L56.5859 34.418C56.707 34.4687 56.8359 34.4883 56.9609 34.4883C57.3555 34.4883 57.7305 34.2539 57.8906 33.8633C58.0938 33.3516 57.8477 32.7695 57.3359 32.5625L53.625 31.0625C53.5 31.0117 53.3672 30.9883 53.2344 30.9922ZM24 46H38V47.1172L24 48.8672V46ZM38 49.1328V51C38 51.0391 37.9883 51.0781 37.9883 51.1211L27.832 52.3906C27.2852 52.457 26.8984 52.957 26.9688 53.5039C27.0312 54.0117 27.4609 54.3789 27.957 54.3789C28 54.3789 28.0391 54.3789 28.082 54.3711L37.4688 53.1992C36.6523 54.8516 34.9648 56 33 56H29C26.2422 56 24 53.7578 24 51V50.8828L38 49.1328ZM30 58H32V59H30V58Z" fill="black"/>
</svg>
