<svg width="683" height="734" viewBox="0 0 683 734" fill="none" xmlns="http://www.w3.org/2000/svg">
<path d="M581 731.607H0V733.607H581V731.607Z" fill="#3F3D56"/>
<path d="M263.761 167.703C298.306 167.703 326.31 139.699 326.31 105.155C326.31 70.6105 298.306 42.6067 263.761 42.6067C229.217 42.6067 201.213 70.6105 201.213 105.155C201.213 139.699 229.217 167.703 263.761 167.703Z" fill="#FFB8B8"/>
<path d="M523.245 521.218C523.245 521.218 620.285 526.235 597.682 556.783C575.08 587.331 515.688 538.863 515.688 538.863L523.245 521.218Z" fill="#FFB8B8"/>
<path d="M344.416 230.251L364.168 235.189C364.168 235.189 375.69 269.756 383.92 301.03C392.15 332.304 408.61 426.126 408.61 426.126L536.22 515.559L521 549.607L351 482.607L313.141 333.95L344.416 230.251Z" fill="#575A89"/>
<path opacity="0.2" d="M363 291.607L355.638 445.772L371 491.607L326 458.607L363 291.607Z" fill="black"/>
<path d="M389.681 565.214C389.681 565.214 411.079 622.824 414.371 662.328C417.663 701.832 420.955 733.107 420.955 733.107H320.548L300.796 703.478V733.107H183.93C183.93 733.107 151.01 626.116 164.178 612.948C177.346 599.78 302.442 543.816 302.442 543.816L389.681 565.214Z" fill="#2F2E41"/>
<path d="M216.027 131.491L211.089 203.915L273.637 287.862L304.911 208.853C304.911 208.853 276.929 190.747 293.389 152.889L216.027 131.491Z" fill="#FFB8B8"/>
<path d="M398.73 579.203C398.73 594.023 357.58 617.063 357.58 617.063V625.293L341.12 633.523L304.91 561.103L295.04 640.103C295.04 640.103 222.61 651.633 199.57 640.103C176.52 628.583 165 633.523 132.08 622.003C99.16 610.483 145.25 455.753 145.25 455.753L112.33 217.083L184.25 181.123L188.04 179.223L197.93 177.403L213.09 174.603L263.76 208.853L267.84 230.253L270.35 243.423L283.51 228.603L293.45 195.913L364.17 235.193L344.42 393.203C344.42 393.203 398.73 564.393 398.73 579.203Z" fill="#575A89"/>
<path d="M156.771 630.231C156.771 630.231 232.487 691.133 196.275 702.656C160.063 714.178 140.311 640.107 140.311 640.107L156.771 630.231Z" fill="#FFB8B8"/>
<path d="M128.789 220.375L112.329 217.083C112.329 217.083 87.6385 230.251 85.9925 256.588C84.3465 282.924 62.9484 467.276 62.9484 467.276L132.081 653.275L188.045 631.877L133.727 457.4L174.877 305.968L128.789 220.375Z" fill="#575A89"/>
<path d="M271 270.607C274.314 270.607 277 267.92 277 264.607C277 261.293 274.314 258.607 271 258.607C267.686 258.607 265 261.293 265 264.607C265 267.92 267.686 270.607 271 270.607Z" fill="#2F2E41"/>
<path d="M271 309.607C274.314 309.607 277 306.92 277 303.607C277 300.293 274.314 297.607 271 297.607C267.686 297.607 265 300.293 265 303.607C265 306.92 267.686 309.607 271 309.607Z" fill="#2F2E41"/>
<path d="M305 566.607C308.314 566.607 311 563.92 311 560.607C311 557.293 308.314 554.607 305 554.607C301.686 554.607 299 557.293 299 560.607C299 563.92 301.686 566.607 305 566.607Z" fill="#2F2E41"/>
<path d="M210.952 41.077L199.39 36.4481C199.39 36.4481 223.566 9.83178 257.202 12.1463L247.742 1.73117C247.742 1.73117 270.867 -7.52658 291.889 16.7752C302.94 29.55 315.727 44.5663 323.697 61.4818H336.08L330.912 72.8612L349 84.2406L330.434 82.1966C331.541 88.4281 331.71 94.7898 330.938 101.071C330.142 107.355 326.935 113.083 321.995 117.047V117.047C321.995 117.047 307.656 87.3661 307.656 82.7371V94.3094C307.656 94.3094 296.093 83.8944 296.093 76.9511L289.787 85.0517H247.742L254.048 74.6367L229.873 78.1083L239.333 65.3787L201.902 117.944C201.902 117.944 180.47 58.4354 210.952 41.077Z" fill="#2F2E41"/>
<path d="M582.898 483.545C638.126 483.545 682.898 438.774 682.898 383.545C682.898 328.317 638.126 283.545 582.898 283.545C527.669 283.545 482.898 328.317 482.898 383.545C482.898 438.774 527.669 483.545 582.898 483.545Z" fill="#3F3D56"/>
<path opacity="0.1" d="M582.898 469.545C630.394 469.545 668.898 431.042 668.898 383.545C668.898 336.049 630.394 297.545 582.898 297.545C535.401 297.545 496.898 336.049 496.898 383.545C496.898 431.042 535.401 469.545 582.898 469.545Z" fill="black"/>
<path d="M578.777 434.293V421.776C572.449 421.653 565.904 419.421 562.086 416.323L564.704 408.02C569.241 411.42 574.743 413.286 580.413 413.348C588.159 413.348 593.395 408.267 593.395 401.203C593.395 394.387 589.14 390.174 581.068 386.455C569.94 381.498 563.067 375.797 563.067 365.015C563.067 354.729 569.504 346.921 579.541 345.062V332.545H586.304V344.567C591.348 344.636 596.267 346.14 600.486 348.904L597.759 357.084C593.712 354.314 588.917 352.844 584.013 352.87C575.613 352.87 572.449 358.57 572.449 363.528C572.449 369.972 576.486 373.194 585.977 377.656C597.213 382.861 602.887 389.306 602.887 400.336C602.887 410.126 596.886 419.298 585.65 421.403V434.293H578.777Z" fill="#6C63FF"/>
<path opacity="0.2" d="M148.505 504.87L188.5 629.803L156.5 499.803L148.505 504.87Z" fill="black"/>
</svg>
