<svg width="303" height="307" viewBox="0 0 303 307" fill="none" xmlns="http://www.w3.org/2000/svg">
<path d="M100.04 91.1886C98.947 88.8573 97.4334 85.2303 96.1134 80.6997C95.8689 79.8378 95.6327 78.9576 95.4132 78.041C95.0593 76.5996 94.7388 75.0854 94.4616 73.5248C94.3636 73.0167 94.2824 72.4722 94.211 71.9543C94.0401 70.8835 93.9223 69.793 93.813 68.6843C93.7583 68.1299 93.7036 67.5755 93.6755 67.0113C93.6292 66.4387 93.601 65.8744 93.5813 65.292C93.5418 64.127 93.5289 62.9522 93.5691 61.7577C93.5713 61.0309 93.6184 60.3026 93.6738 59.5561C93.7156 58.9357 93.7756 58.3236 93.8538 57.7199C93.8986 57.189 93.9616 56.6665 94.0512 56.1342C94.1059 55.6299 94.1788 55.1341 94.2783 54.6283C94.437 53.7527 94.604 52.8588 94.8257 51.9901C94.9267 51.5291 95.0277 51.0681 95.147 50.6155C95.4203 49.6822 95.7021 48.7306 96.0202 47.7958C96.1326 47.4062 96.2815 47.0333 96.4386 46.6422C96.5526 46.2975 96.6847 45.961 96.8168 45.6246C97.7934 43.2051 99.0038 40.8046 100.485 38.4397C116.66 12.7713 135.569 14.8214 153.947 27.6552C154.6 28.1085 155.199 28.5816 155.773 29.1094C159.395 32.4675 161.311 37.1394 162.09 42.3702C164.677 59.3909 155.336 82.3694 154.1 85.0668C152.429 88.712 150.726 94.8345 156.379 99.3438C162.834 104.508 170.655 97.0653 174.832 87.9523C181.515 73.3714 191.34 66.489 203.082 74.4342C213.182 81.2688 205.664 97.6722 205.664 97.6722L165.417 180.677C165.417 180.677 137.926 216.598 114.992 228.142C92.0582 239.685 93.5009 255.786 93.5009 255.786L58.8723 239.915C59.7715 223.786 46.8613 213.459 39.4306 195.718C31.6843 178.935 30.9651 154.345 34.1545 142.574C36.8601 126.171 52.0002 113.261 70.2263 121.614C80.4392 126.295 91.8173 137.023 98.8038 131.403C100.702 129.586 102.339 124.221 103.043 121.536C107.245 105.497 100.882 93.0091 100.04 91.1886Z" fill="url(#paint0_linear)"/>
<path d="M100.04 91.1886C98.947 88.8573 97.4334 85.2303 96.1134 80.6997C95.8689 79.8378 95.6327 78.9576 95.4132 78.041C95.0593 76.5996 94.7388 75.0854 94.4616 73.5248C94.3636 73.0167 94.2824 72.4722 94.211 71.9543C94.0401 70.8835 93.9223 69.793 93.813 68.6843C93.7583 68.1299 93.7036 67.5755 93.6755 67.0113C93.6292 66.4387 93.601 65.8744 93.5813 65.292C93.5418 64.127 93.5289 62.9522 93.5691 61.7577C93.5713 61.0309 93.6184 60.3026 93.6738 59.5561C93.7156 58.9357 93.7756 58.3236 93.8538 57.7199C93.8986 57.189 93.9616 56.6665 94.0512 56.1342C94.1059 55.6299 94.1788 55.1341 94.2783 54.6283C94.437 53.7527 94.604 52.8588 94.8257 51.9901C94.9267 51.5291 95.0277 51.0681 95.147 50.6155C95.4203 49.6822 95.7021 48.7306 96.0202 47.7958C96.1326 47.4062 96.2815 47.0333 96.4386 46.6422C96.5526 46.2975 96.6847 45.961 96.8168 45.6246C97.7934 43.2051 99.0038 40.8046 100.485 38.4397C116.66 12.7713 135.569 14.8214 153.947 27.6552C154.6 28.1085 155.199 28.5816 155.773 29.1094C159.395 32.4675 161.311 37.1394 162.09 42.3702C164.677 59.3909 155.336 82.3694 154.1 85.0668C152.429 88.712 150.726 94.8345 156.379 99.3438C162.834 104.508 170.655 97.0653 174.832 87.9523C181.515 73.3714 191.34 66.489 203.082 74.4342C213.182 81.2688 205.664 97.6722 205.664 97.6722L165.417 180.677C165.417 180.677 137.926 216.598 114.992 228.142C92.0582 239.685 93.5009 255.786 93.5009 255.786L58.8723 239.915C59.7715 223.786 46.8613 213.459 39.4306 195.718C31.6843 178.935 30.9651 154.345 34.1545 142.574C36.8601 126.171 52.0002 113.261 70.2263 121.614C80.4392 126.295 91.8173 137.023 98.8038 131.403C100.702 129.586 102.339 124.221 103.043 121.536C107.245 105.497 100.882 93.0091 100.04 91.1886Z" fill="url(#paint1_linear)"/>
<path d="M135.446 140.476C135.446 140.476 97.2637 146.94 74.0355 235.835C70.6942 243.126 68.0945 242.468 64.9155 241.729C62.7131 241.217 60.6944 240.749 60.6944 240.749L84.4913 251.656L135.446 140.476Z" fill="url(#paint2_linear)"/>
<path d="M169.046 108.312C168.644 107.938 168.009 107.957 167.628 108.361C148.756 128.56 130.351 133.643 125.138 136.047C124.791 130.999 124.394 125.813 123.976 120.432C121.778 92.1213 119.506 62.8494 125.031 47.1846C125.217 46.6601 124.89 46.0823 124.42 45.9053C123.896 45.7217 123.325 45.9958 123.141 46.5166C117.475 62.5823 119.764 92.0717 121.977 120.587C122.684 129.694 123.351 138.293 123.769 146.461C125.449 179.272 101.658 208.869 84.4326 225.845C86.3908 217.201 90.5241 191.243 77.8381 163.76C77.6108 163.26 77.013 163.041 76.5077 163.27C76.0059 163.501 75.7853 164.098 76.0181 164.601C91.1568 197.401 81.8407 227.973 81.7443 228.277C81.724 228.341 81.7284 228.406 81.7212 228.47C73.5976 236.181 67.4922 240.693 67.3031 240.829C66.8556 241.154 66.7558 241.783 67.0818 242.229C67.1854 242.373 67.3232 242.482 67.4745 242.551C67.7934 242.697 68.1783 242.671 68.4812 242.45C69.0814 242.014 128.427 198.243 125.772 146.357C125.635 143.684 125.466 140.949 125.282 138.183C128.812 136.6 148.995 131.236 169.093 109.73C169.472 109.326 169.45 108.691 169.046 108.312Z" fill="#1B8C44"/>
<path d="M101.076 259.258C100.195 254.443 103.191 252.587 107.777 253.506C127.743 257.508 158.876 259.566 164.202 250.695C164.917 249.503 167.19 245.717 165.72 242.57C163.876 238.62 157.411 238.41 156.607 238.393C153.579 238.496 150.714 236.931 149.232 234.288C148.873 233.647 148.554 232.999 148.33 232.394C147.342 229.736 149.848 224.268 158.809 223.964C167.771 223.66 190.477 231.861 211.893 228.444C233.308 225.026 238.32 214.09 225.562 208.243C219.079 206.487 214.001 206.043 210.746 205.998C208.314 205.965 206.301 204.06 206.125 201.633C206.121 201.572 206.117 201.51 206.112 201.45C205.952 199.077 207.585 196.963 209.918 196.496C213.993 195.679 221.291 194.285 230.422 192.827C230.422 192.827 253.66 190.244 268.164 168.221C279.318 151.284 270.441 138.21 265.747 133.074C264.259 131.448 262.463 130.157 260.471 129.215C253.041 125.704 232.668 118.687 219.638 139.364C203.463 165.032 193.363 158.198 193.059 149.237C192.755 140.276 192.147 122.353 192.147 122.353C192.147 122.353 191.691 108.912 175.592 110.355C163.948 111.399 160.708 147.642 160.708 147.642C160.708 147.642 157.139 174.678 144.533 173.311C131.927 171.944 142.103 154.553 142.103 154.553C142.103 154.553 150.608 140.808 135.343 140.428C120.079 140.049 92.4367 171.49 81.502 219.409C77.0979 248.267 69.807 244.927 69.807 244.927L98.9688 258.292L101.076 259.258Z" fill="url(#paint3_linear)"/>
<path d="M268.165 168.221C260.281 180.178 249.835 186.417 241.914 189.602C247.738 185.941 253.829 180.639 258.88 172.985C273.385 150.962 254.019 135.47 254.019 135.47C254.019 135.47 240.622 127.169 227.014 130.923C239.629 120.811 254.967 126.544 260.848 129.394C262.584 130.237 264.154 131.371 265.474 132.779C270.084 137.696 279.54 150.949 268.165 168.221Z" fill="url(#paint4_linear)"/>
<path d="M241.514 155.98C241.875 155.56 241.828 154.926 241.405 154.568C240.985 154.194 240.351 154.256 239.993 154.676C232.15 163.835 206.443 178.589 169.808 191.987C172.696 184.517 184.078 153.954 182.027 141.104C181.938 140.554 181.395 140.24 180.853 140.328C180.306 140.416 179.881 141.044 179.969 141.59C182.178 155.431 167.464 192.482 167.318 192.854C167.318 192.854 167.314 192.881 167.31 192.892C160.819 195.223 154.01 197.509 146.899 199.71C135.539 203.225 126 207.724 118.016 212.553C117.548 209.116 116.147 193.822 124.791 174.962C125.022 174.458 124.801 173.864 124.297 173.633C123.793 173.402 123.199 173.623 122.968 174.127C114.611 192.362 115.463 208.4 116.091 213.73C91.3082 229.372 82.5313 247.921 82.4168 248.17C82.1859 248.674 82.4065 249.268 82.9105 249.499C83.4126 249.729 84.0085 249.51 84.2395 249.006C84.3359 248.795 90.8596 235.071 108.551 221.433C108.606 221.496 108.653 221.565 108.725 221.615C108.874 221.717 120.757 229.963 136.131 237.009C139.988 238.777 144.064 240.468 148.228 241.937C148.752 242.121 149.325 241.847 149.507 241.326C149.693 240.803 149.367 240.213 148.896 240.047C129.86 233.339 112.709 221.903 110.199 220.193C119.517 213.285 131.727 206.504 147.49 201.625C152.277 200.144 156.929 198.622 161.444 197.074C161.512 197.19 161.602 197.294 161.718 197.378C161.801 197.438 166.021 200.448 173.995 204.103C182.072 207.805 193.997 212.165 209.373 214.792C209.918 214.885 210.438 214.519 210.531 213.972C210.622 213.429 210.26 212.913 209.71 212.814C183.336 208.311 167.333 198.67 163.692 196.292C204.279 182.148 233.029 165.89 241.514 155.98Z" fill="#1B8C44"/>
<path d="M162.09 42.3702C160.951 40.8119 159.569 39.4503 157.896 38.2869C139.518 25.4531 120.609 23.403 104.434 49.0715C95.1039 63.8946 96.8652 80.118 100.04 91.1886C98.947 88.8573 97.4334 85.2303 96.1134 80.6997C95.8871 79.8461 95.6327 78.9576 95.4132 78.041C95.0593 76.5996 94.7388 75.0854 94.4616 73.5248C94.3636 73.0167 94.2824 72.4722 94.211 71.9543C94.0401 70.8835 93.9223 69.793 93.813 68.6843C93.7583 68.1299 93.7036 67.5755 93.6755 67.0113C93.6292 66.4387 93.601 65.8745 93.5813 65.292C93.5418 64.127 93.5289 62.9522 93.5691 61.7577C93.5713 61.0309 93.6184 60.3026 93.6738 59.5561C93.7156 58.9357 93.7756 58.3236 93.8538 57.7199C93.8986 57.189 93.9616 56.6666 94.0512 56.1342C94.1059 55.63 94.1788 55.1341 94.2783 54.6283C94.437 53.7527 94.604 52.8588 94.8257 51.9901C94.9267 51.5291 95.0277 51.0681 95.147 50.6155C95.4203 49.6822 95.7021 48.7307 96.0202 47.7958C96.1326 47.4062 96.2815 47.0334 96.4386 46.6423C96.5526 46.2975 96.6847 45.9611 96.8168 45.6246C97.7934 43.2051 99.0038 40.8046 100.485 38.4398C116.66 12.7713 135.569 14.8214 153.947 27.6552C154.6 28.1085 155.199 28.5816 155.773 29.1094C159.395 32.4675 161.311 37.1394 162.09 42.3702Z" fill="url(#paint5_linear)"/>
<path d="M146.202 173.326C154.932 168.571 157.574 148.61 157.574 148.61C157.574 148.61 160.803 112.355 172.458 111.323C172.619 111.308 172.78 111.294 172.914 111.289C163.44 117.092 160.708 147.642 160.708 147.642C160.708 147.642 157.46 172.244 146.202 173.326Z" fill="url(#paint6_linear)"/>
<path d="M83.193 129.073C81.8108 126.846 59.9594 110.292 43.2051 125.495C27.6932 139.57 33.1769 172.038 33.1769 172.038C33.1769 172.038 38.2028 143.327 52.1758 132.087C66.1488 120.848 83.193 129.073 83.193 129.073Z" fill="url(#paint7_linear)"/>
<defs>
<linearGradient id="paint0_linear" x1="49.2293" y1="106.968" x2="174.988" y2="164.605" gradientUnits="userSpaceOnUse">
<stop stop-color="#B6DD54"/>
<stop offset="0.1433" stop-color="#B2DC54"/>
<stop offset="0.2918" stop-color="#A5D753"/>
<stop offset="0.4428" stop-color="#91D051"/>
<stop offset="0.5954" stop-color="#74C64F"/>
<stop offset="0.7494" stop-color="#4EB94D"/>
<stop offset="0.9024" stop-color="#21A949"/>
<stop offset="1" stop-color="#009E47"/>
</linearGradient>
<linearGradient id="paint1_linear" x1="49.2293" y1="106.968" x2="174.988" y2="164.605" gradientUnits="userSpaceOnUse">
<stop stop-color="#B6DD54"/>
<stop offset="0.1433" stop-color="#B2DC54"/>
<stop offset="0.2918" stop-color="#A5D753"/>
<stop offset="0.4428" stop-color="#91D051"/>
<stop offset="0.5954" stop-color="#74C64F"/>
<stop offset="0.7494" stop-color="#4EB94D"/>
<stop offset="0.9024" stop-color="#21A949"/>
<stop offset="1" stop-color="#009E47"/>
</linearGradient>
<linearGradient id="paint2_linear" x1="125.427" y1="130.921" x2="72.0423" y2="247.403" gradientUnits="userSpaceOnUse">
<stop stop-color="#302926" stop-opacity="0.05"/>
<stop offset="0.2844" stop-color="#2C2523" stop-opacity="0.0784"/>
<stop offset="0.579" stop-color="#1F1B19" stop-opacity="0.1079"/>
<stop offset="0.8773" stop-color="#0B0909" stop-opacity="0.1377"/>
<stop offset="1" stop-opacity="0.15"/>
</linearGradient>
<linearGradient id="paint3_linear" x1="104.906" y1="159.463" x2="243.551" y2="223.006" gradientUnits="userSpaceOnUse">
<stop stop-color="#00E35E"/>
<stop offset="1" stop-color="#00B248"/>
</linearGradient>
<linearGradient id="paint4_linear" x1="284.961" y1="174.882" x2="217.524" y2="143.975" gradientUnits="userSpaceOnUse">
<stop stop-color="#FFFFED" stop-opacity="0"/>
<stop offset="0.4031" stop-color="#FFFFF6" stop-opacity="0.0806"/>
<stop offset="1" stop-color="white" stop-opacity="0.2"/>
</linearGradient>
<linearGradient id="paint5_linear" x1="159.152" y1="73.5497" x2="94.3435" y2="43.8473" gradientUnits="userSpaceOnUse">
<stop stop-color="#FFFFED" stop-opacity="0"/>
<stop offset="0.366" stop-color="#FFFFF5" stop-opacity="0.0732"/>
<stop offset="1" stop-color="white" stop-opacity="0.2"/>
</linearGradient>
<linearGradient id="paint6_linear" x1="175.226" y1="108.901" x2="145.974" y2="172.728" gradientUnits="userSpaceOnUse">
<stop stop-color="#302926" stop-opacity="0.05"/>
<stop offset="0.2844" stop-color="#2C2523" stop-opacity="0.0784"/>
<stop offset="0.579" stop-color="#1F1B19" stop-opacity="0.1079"/>
<stop offset="0.8773" stop-color="#0B0909" stop-opacity="0.1377"/>
<stop offset="1" stop-opacity="0.15"/>
</linearGradient>
<linearGradient id="paint7_linear" x1="67.5968" y1="161.613" x2="41.719" y2="131.171" gradientUnits="userSpaceOnUse">
<stop stop-color="#FFFFED" stop-opacity="0"/>
<stop offset="0.366" stop-color="#FFFFF5" stop-opacity="0.0732"/>
<stop offset="1" stop-color="white" stop-opacity="0.2"/>
</linearGradient>
</defs>
</svg>
