<svg width="113" height="205" viewBox="0 0 113 205" fill="none" xmlns="http://www.w3.org/2000/svg">
<path d="M39.0253 157.699C39.0253 157.699 34.9653 116.529 78.9653 108.529C78.9653 108.529 62.8953 166.019 38.9653 176.269L39.0253 157.699Z" fill="#5CAA45"/>
<path opacity="0.6" d="M42.4653 204.029C42.4653 204.029 23.4653 121.029 65.4653 14.0289" stroke="#535461" stroke-width="3" stroke-miterlimit="10"/>
<path d="M63.3553 19.5289C63.3553 19.5289 77.9653 -6.47111 112.965 1.52889C112.965 1.52889 84.0353 50.7889 57.9653 34.6589L63.3553 19.5289Z" fill="#5CAA45"/>
<path d="M54.0953 47.1189C54.0953 47.1189 52.9653 20.5289 23.9653 13.5289C23.9653 13.5289 26.9653 71.5289 49.9653 62.0289L54.0953 47.1189Z" fill="#5CAA45"/>
<path d="M44.6153 86.3889C44.6153 86.3889 49.9653 58.5289 105.965 46.5289C105.965 46.5289 88.1053 104.149 42.0353 101.839L44.6153 86.3889Z" fill="#5CAA45"/>
<path d="M40.0753 117.659C40.0753 117.659 45.9653 88.5289 10.9653 61.5289C10.9653 61.5289 -27.0347 126.199 38.4453 138.359L40.0753 117.659Z" fill="#5CAA45"/>
<path opacity="0.3" d="M58.4653 35.0289C58.4653 35.0289 96.4653 6.02893 112.465 1.02893" stroke="#535461" stroke-miterlimit="10"/>
<path opacity="0.3" d="M41.9653 101.529C41.9653 101.529 87.9653 52.5289 105.965 46.5289" stroke="#535461" stroke-miterlimit="10"/>
<path opacity="0.3" d="M23.9653 13.5289C23.9653 13.5289 51.9653 51.5289 49.9653 61.5289" stroke="#535461" stroke-miterlimit="10"/>
<path opacity="0.3" d="M10.9653 61.5289C10.9653 61.5289 25.9653 129.529 37.9653 138.529" stroke="#535461" stroke-miterlimit="10"/>
<path opacity="0.3" d="M38.9653 176.529C38.9653 176.529 62.9653 110.529 78.9653 108.529" stroke="#535461" stroke-miterlimit="10"/>
</svg>
