<svg width="100" height="100" viewBox="0 0 100 100" fill="none" xmlns="http://www.w3.org/2000/svg">
<path d="M0 15C0 6.71573 6.71573 0 15 0H85C93.2843 0 100 6.71573 100 15V85C100 93.2843 93.2843 100 85 100H15C6.71573 100 0 93.2843 0 85V15Z" fill="#673E66" fill-opacity="0.1"/>
<path d="M60.5714 30H39.8571C38.2813 30 37 31.2813 37 32.8571V67.1429C37 68.7188 38.2813 70 39.8571 70H60.5714C62.1473 70 63.4286 68.7188 63.4286 67.1429V32.8571C63.4286 31.2813 62.1473 30 60.5714 30ZM60.2143 66.7857H40.2143V33.2143H60.2143V66.7857ZM48.4286 62.2321C48.4286 62.7057 48.6167 63.1599 48.9516 63.4948C49.2865 63.8297 49.7407 64.0179 50.2143 64.0179C50.6879 64.0179 51.1421 63.8297 51.477 63.4948C51.8119 63.1599 52 62.7057 52 62.2321C52 61.7585 51.8119 61.3043 51.477 60.9695C51.1421 60.6346 50.6879 60.4464 50.2143 60.4464C49.7407 60.4464 49.2865 60.6346 48.9516 60.9695C48.6167 61.3043 48.4286 61.7585 48.4286 62.2321Z" fill="#673E66"/>
</svg>
