<svg width="100" height="100" viewBox="0 0 100 100" fill="none" xmlns="http://www.w3.org/2000/svg">
<path d="M0 15C0 6.71573 6.71573 0 15 0H85C93.2843 0 100 6.71573 100 15V85C100 93.2843 93.2843 100 85 100H15C6.71573 100 0 93.2843 0 85V15Z" fill="#0F69C9" fill-opacity="0.1"/>
<path d="M38.8814 30C38.0105 30 37.2932 30.7133 37.2932 31.5791V48.9495H33.7837C33.0286 48.9495 32.4151 49.4126 32.151 50.0074C31.8869 50.6022 31.9558 51.3659 32.4643 51.9207L48.3943 69.3003C49.2498 70.2332 50.7473 70.2332 51.6029 69.3003L67.5359 51.9186V51.9176C68.0437 51.3633 68.1132 50.6005 67.8492 50.0064C67.5852 49.4121 66.9722 48.9495 66.2176 48.9495H62.705V31.5791C62.705 30.7133 61.9877 30 61.1168 30H38.8814ZM38.8814 31.0528H61.1168C61.4159 31.0528 61.6462 31.2817 61.6462 31.5791V49.4759C61.6462 49.6155 61.702 49.7494 61.8013 49.8481C61.9006 49.9468 62.0352 50.0023 62.1756 50.0023H66.2176C66.5531 50.0023 66.7696 50.1827 66.8804 50.432C66.9911 50.6813 66.9791 50.963 66.7532 51.2092L50.8211 68.5909C50.3743 69.0782 49.6239 69.0782 49.1771 68.5909L33.2471 51.2113C33.0208 50.9644 33.008 50.6827 33.1189 50.433C33.2297 50.1834 33.4477 50.0023 33.7837 50.0023H37.8226C37.963 50.0023 38.0976 49.9468 38.1969 49.8481C38.2962 49.7494 38.352 49.6155 38.352 49.4759V31.5791C38.352 31.2817 38.5823 31.0528 38.8814 31.0528ZM40.2049 32.6319C40.1347 32.6319 40.0674 32.6596 40.0178 32.709C39.9681 32.7583 39.9402 32.8253 39.9402 32.8951V51.5814H36.3346C36.2834 51.5815 36.2334 51.5964 36.1905 51.6243C36.1476 51.6521 36.1138 51.6917 36.0931 51.7383C36.0725 51.7849 36.0658 51.8364 36.074 51.8866C36.0822 51.9369 36.1048 51.9837 36.1392 52.0214L49.8037 66.9296C49.8285 66.9566 49.8587 66.9781 49.8923 66.9929C49.926 67.0076 49.9623 67.0152 49.9991 67.0152C50.0359 67.0152 50.0722 67.0076 50.1059 66.9929C50.1395 66.9781 50.1697 66.9566 50.1945 66.9296L63.859 52.0214C63.8934 51.9837 63.916 51.9369 63.9242 51.8866C63.9324 51.8364 63.9257 51.7849 63.9051 51.7383C63.8844 51.6917 63.8505 51.6521 63.8077 51.6243C63.7648 51.5964 63.7148 51.5815 63.6636 51.5814H60.058V41.8435C60.0585 41.8086 60.052 41.7739 60.0389 41.7416C60.0258 41.7092 60.0064 41.6798 59.9818 41.6549C59.9571 41.6301 59.9278 41.6104 59.8954 41.5969C59.8631 41.5834 59.8283 41.5765 59.7933 41.5765C59.7582 41.5765 59.7235 41.5834 59.6911 41.5969C59.6587 41.6104 59.6294 41.6301 59.6047 41.6549C59.5801 41.6798 59.5607 41.7092 59.5476 41.7416C59.5345 41.7739 59.5281 41.8086 59.5286 41.8435V51.8446C59.5286 51.9144 59.5565 51.9813 59.6061 52.0307C59.6557 52.08 59.7231 52.1078 59.7933 52.1078H63.0649L49.9991 66.3621L36.9333 52.1078H40.2049C40.2751 52.1078 40.3425 52.08 40.3921 52.0307C40.4417 51.9813 40.4696 51.9144 40.4696 51.8446V33.1583H53.4403C53.4754 33.1587 53.5102 33.1523 53.5427 33.1393C53.5753 33.1263 53.6049 33.107 53.6299 33.0825C53.6549 33.058 53.6747 33.0288 53.6883 32.9967C53.7018 32.9645 53.7088 32.9299 53.7088 32.8951C53.7088 32.8602 53.7018 32.8257 53.6883 32.7935C53.6747 32.7613 53.6549 32.7321 53.6299 32.7076C53.6049 32.6831 53.5753 32.6638 53.5427 32.6508C53.5102 32.6378 53.4754 32.6314 53.4403 32.6319H40.2049ZM59.7891 36.3124C59.7544 36.3129 59.72 36.3203 59.6881 36.334C59.6562 36.3477 59.6274 36.3676 59.6032 36.3924C59.579 36.4172 59.5599 36.4465 59.5471 36.4787C59.5343 36.5108 59.528 36.5451 59.5286 36.5797V37.1061C59.5281 37.1409 59.5345 37.1756 59.5476 37.2079C59.5607 37.2403 59.5801 37.2698 59.6047 37.2946C59.6294 37.3194 59.6587 37.3392 59.6911 37.3526C59.7235 37.3661 59.7582 37.373 59.7933 37.373C59.8283 37.373 59.8631 37.3661 59.8954 37.3526C59.9278 37.3392 59.9571 37.3194 59.9818 37.2946C60.0064 37.2698 60.0258 37.2403 60.0389 37.2079C60.052 37.1756 60.0585 37.1409 60.058 37.1061V36.5797C60.0585 36.5444 60.0519 36.5094 60.0386 36.4768C60.0253 36.4441 60.0055 36.4144 59.9805 36.3895C59.9554 36.3645 59.9255 36.3449 59.8927 36.3316C59.8598 36.3184 59.8246 36.3118 59.7891 36.3124ZM59.7891 37.8915C59.7544 37.8921 59.72 37.8994 59.6881 37.9131C59.6562 37.9269 59.6274 37.9467 59.6032 37.9715C59.579 37.9963 59.5599 38.0257 59.5471 38.0578C59.5343 38.0899 59.528 38.1243 59.5286 38.1588V39.7379C59.5281 39.7728 59.5345 39.8075 59.5476 39.8398C59.5607 39.8722 59.5801 39.9016 59.6047 39.9265C59.6294 39.9513 59.6587 39.971 59.6911 39.9845C59.7235 39.998 59.7582 40.0049 59.7933 40.0049C59.8283 40.0049 59.8631 39.998 59.8954 39.9845C59.9278 39.971 59.9571 39.9513 59.9818 39.9265C60.0064 39.9016 60.0258 39.8722 60.0389 39.8398C60.052 39.8075 60.0585 39.7728 60.058 39.7379V38.1588C60.0585 38.1236 60.0519 38.0886 60.0386 38.0559C60.0253 38.0232 60.0055 37.9935 59.9805 37.9686C59.9554 37.9437 59.9255 37.924 59.8927 37.9107C59.8598 37.8975 59.8246 37.891 59.7891 37.8915ZM50.2576 40.0011C50.1215 40.0011 50.0085 40.0384 49.9164 40.1163C49.8243 40.1942 49.7768 40.2801 49.7768 40.3754V40.913C49.3337 40.9494 48.9218 41.0294 48.5401 41.1546C48.1589 41.2804 47.7979 41.4626 47.4596 41.7016C47.1202 41.94 46.8531 42.2661 46.6561 42.6782C46.4592 43.0909 46.3614 43.5677 46.3614 44.1083C46.3614 44.5526 46.435 44.9507 46.5827 45.305C46.731 45.6598 46.8939 45.9421 47.0728 46.1521C47.2507 46.3627 47.5214 46.5694 47.8845 46.7731C48.2477 46.9778 48.546 47.1222 48.78 47.2059L49.7778 47.5668V52.3576C49.2934 52.3339 48.8583 52.2465 48.4729 52.0965C48.0875 51.947 47.8065 51.7844 47.6302 51.6102C47.4534 51.436 47.2805 51.2774 47.1101 51.1332C46.9391 50.9895 46.8052 50.9162 46.7078 50.9162C46.5363 50.9162 46.3803 51.0071 46.2394 51.1876C46.0986 51.3677 46.0285 51.5533 46.0285 51.7449C46.0285 52.1644 46.389 52.5955 47.109 53.0382C47.8296 53.4803 48.719 53.7077 49.7778 53.7188V54.3428C49.7778 54.4434 49.8243 54.5352 49.9164 54.6173C50.0085 54.6989 50.1215 54.7397 50.2576 54.7397C50.3804 54.7397 50.491 54.6989 50.5895 54.6163C50.6875 54.5347 50.7374 54.4434 50.7374 54.3428V53.6643C51.729 53.5343 52.5157 53.1685 53.097 52.5663C53.6783 51.9647 53.9687 51.1446 53.9687 50.1061C53.9687 49.5181 53.8803 49.0045 53.7029 48.566C53.5256 48.1281 53.2629 47.7687 52.914 47.4866C52.5651 47.2044 52.2347 46.9815 51.9224 46.8193C51.6105 46.6572 51.2149 46.4933 50.7374 46.3248V42.2218C51.2668 42.2465 51.7592 42.3629 52.2129 42.5713C52.6666 42.7803 52.9234 42.8849 52.9853 42.8849C53.1839 42.8849 53.3448 42.7891 53.4692 42.5981C53.5937 42.407 53.6564 42.2278 53.6564 42.0604C53.6564 41.7256 53.3536 41.4541 52.7506 41.2451C52.1471 41.0367 51.4764 40.9144 50.7374 40.8791V40.3774C50.7374 40.2821 50.689 40.1952 50.5906 40.1173C50.4916 40.0394 50.3804 40.0011 50.2576 40.0011ZM49.8512 42.2454V46.0185C49.1683 45.7784 48.6591 45.5167 48.324 45.234C47.9883 44.9524 47.8204 44.5297 47.8204 43.9654C47.8204 42.9506 48.4965 42.377 49.8512 42.2454ZM50.664 47.9091C51.2553 48.1491 51.7106 48.4433 52.0309 48.7912C52.3507 49.1391 52.5107 49.6263 52.5107 50.2511C52.5107 51.4396 51.8949 52.13 50.664 52.3216V47.9091Z" fill="#0F69C9"/>
</svg>
