<svg width="100" height="100" viewBox="0 0 100 100" fill="none" xmlns="http://www.w3.org/2000/svg">
<path d="M56.0245 59.9921C55.8185 59.9921 55.6124 59.9529 55.4476 59.8745L50.0081 57.1305L44.5685 59.8745C44.1564 60.0705 43.6619 60.0313 43.2498 59.7961C42.8789 59.5217 42.6729 59.0905 42.7553 58.6593L43.7855 52.8969L39.3762 48.7416C38.8817 48.2712 38.8817 47.5264 39.335 47.0952C39.7883 46.664 40.6125 46.6248 41.0658 47.056L45.9284 51.5641C46.2168 51.8385 46.3405 52.2305 46.2993 52.6225L45.6399 56.6601L49.4311 54.7393C49.802 54.5433 50.2141 54.5433 50.585 54.7393L54.3762 56.6601L53.6344 52.6225C53.552 52.2305 53.7168 51.8385 54.0053 51.5641L57.096 48.7024L52.8515 48.1144C52.4394 48.0752 52.1097 47.8008 51.9037 47.4872L50.0081 43.8416L49.8432 44.1552C49.5548 44.7432 48.813 44.9784 48.1949 44.704C47.5767 44.4296 47.3295 43.724 47.6179 43.136L48.8954 40.6664C49.1015 40.2744 49.5135 40 50.0081 40C50.4613 40 50.9146 40.2352 51.1207 40.6664L53.8405 45.9192L59.9394 46.7424C60.3927 46.8208 60.8047 47.1344 60.9284 47.5264C61.0932 47.9576 60.9696 48.428 60.5987 48.7416L56.2306 52.8577L57.2608 58.6201C57.3432 59.0513 57.1372 59.5217 56.7663 59.7569C56.5602 59.9137 56.2718 59.9921 56.0245 59.9921Z" fill="#6100FF"/>
<path d="M46.5246 47.9513C46.1311 47.9513 45.7377 47.8052 45.4918 47.5131C45.4426 47.4644 45.3443 47.367 45.2951 47.2696C45.2459 47.1722 45.1967 47.1235 45.1475 47.0261C45.0984 46.9287 45.0984 46.8313 45.0492 46.7339C45.0492 46.6365 45 46.5392 45 46.4418C45 46.0522 45.1475 45.6627 45.4426 45.4192C45.7869 45.0783 46.2787 44.9322 46.7705 45.0296C46.8689 45.0296 46.9672 45.0783 47.0656 45.127C47.1639 45.1757 47.2623 45.2244 47.3115 45.2731C47.4098 45.3218 47.459 45.3705 47.5574 45.4679C47.8525 45.76 48 46.1009 48 46.4905C48 46.5879 48 46.6852 47.9508 46.7826C47.9508 46.88 47.9016 46.9774 47.8525 47.0748C47.8033 47.1722 47.7541 47.2696 47.7049 47.3183C47.6557 47.4157 47.6066 47.4644 47.5082 47.5617C47.459 47.6104 47.3607 47.7078 47.2623 47.7565C47.1639 47.8052 47.1148 47.8539 47.0164 47.9026C46.918 47.9513 46.8197 47.9513 46.7213 48C46.7213 47.9513 46.623 47.9513 46.5246 47.9513Z" fill="#6100FF"/>
<path d="M50 71C38.4302 71 29 61.5698 29 50C29 38.4302 38.4302 29 50 29C61.5698 29 71 38.4302 71 50C71 61.5698 61.5698 71 50 71ZM50 31.3774C39.7377 31.3774 31.3774 39.7377 31.3774 50C31.3774 60.2623 39.7377 68.6226 50 68.6226C60.2623 68.6226 68.6226 60.2623 68.6226 50C68.6226 39.7377 60.2623 31.3774 50 31.3774Z" fill="#6100FF"/>
<path d="M0 15C0 6.71573 6.71573 0 15 0H85C93.2843 0 100 6.71573 100 15V85C100 93.2843 93.2843 100 85 100H15C6.71573 100 0 93.2843 0 85V15Z" fill="#6100FF" fill-opacity="0.1"/>
</svg>
