<svg width="485" height="304" viewBox="0 0 485 304" fill="none" xmlns="http://www.w3.org/2000/svg">
<g clip-path="url(#clip0)">
<path d="M478.08 122.582C460.284 52.603 398.792 2.08779 326.614 0.0616652C288.455 -1.00948 248.302 11.646 219.067 55.9321C166.807 135.098 222.279 189.805 260.952 215.8C279.636 228.384 296.471 243.516 310.97 260.756C337.093 291.755 387.347 330.275 447.197 269.92C490.576 226.174 489.935 169.195 478.08 122.582Z" fill="#F2F2F2"/>
<path d="M66.7958 175.637C66.3163 174.927 65.8449 174.198 65.3947 173.47L66.1219 173.02C66.5662 173.738 67.0313 174.458 67.5043 175.158L66.7958 175.637Z" fill="#3F3D56"/>
<path d="M62.8166 168.887C62.0235 167.331 61.2864 165.723 60.626 164.109L61.4171 163.785C62.0691 165.378 62.7961 166.964 63.5785 168.499L62.8166 168.887ZM58.8391 159.164C58.3145 157.5 57.8533 155.792 57.4682 154.09L58.3024 153.901C58.6821 155.581 59.1369 157.265 59.6544 158.907L58.8391 159.164ZM56.5227 148.919C56.2804 147.193 56.1067 145.434 56.0061 143.688L56.8599 143.639C56.9588 145.361 57.1304 147.097 57.3694 148.8L56.5227 148.919ZM56.7718 138.453L55.9172 138.433C55.9583 136.685 56.0719 134.921 56.2545 133.189L57.105 133.279C56.9246 134.987 56.8125 136.728 56.7718 138.453V138.453ZM57.8608 128.149L57.0208 127.99C57.3465 126.275 57.7479 124.553 58.214 122.872L59.0382 123.1C58.5781 124.759 58.1821 126.458 57.8608 128.149V128.149ZM60.6301 118.166L59.8281 117.87C60.4326 116.232 61.1138 114.599 61.8526 113.015L62.6274 113.377C61.8985 114.939 61.2265 116.55 60.6301 118.166V118.166ZM177.73 115.523C177.062 113.938 176.318 112.36 175.519 110.832L176.277 110.436C177.086 111.984 177.84 113.584 178.518 115.19L177.73 115.523ZM65.0137 108.77L64.2714 108.346C65.1373 106.831 66.0777 105.333 67.0665 103.893L67.7713 104.377C66.7958 105.798 65.8679 107.276 65.0137 108.77ZM172.929 106.34C172.008 104.886 171.015 103.451 169.977 102.077L170.66 101.562C171.711 102.955 172.718 104.409 173.651 105.883L172.929 106.34ZM70.8806 100.225L70.2176 99.6846C71.3207 98.3312 72.493 97.0073 73.7027 95.7492L74.3189 96.3417C73.1255 97.5831 71.9686 98.8894 70.8806 100.225ZM166.686 98.0693C165.539 96.7838 164.325 95.5304 163.077 94.3439L163.666 93.7243C164.931 94.9269 166.161 96.1972 167.324 97.4998L166.686 98.0693ZM78.0633 92.7532L77.4976 92.1124C78.8058 90.9576 80.1784 89.8426 81.577 88.7987L82.0884 89.4838C80.7084 90.514 79.3542 91.6139 78.0633 92.7532ZM159.176 90.9264C157.835 89.8455 156.432 88.807 155.007 87.8401L155.487 87.1324C156.932 88.1127 158.353 89.165 159.712 90.2605L159.176 90.9264ZM86.367 86.5561L85.9136 85.8313C87.394 84.9052 88.93 84.0304 90.4792 83.2309L90.8712 83.9907C89.3429 84.7794 87.8276 85.6426 86.367 86.5561ZM150.599 85.1065C149.097 84.2588 147.543 83.4645 145.981 82.7457L146.338 81.9687C147.922 82.6975 149.497 83.5026 151.02 84.3616L150.599 85.1065ZM95.571 81.8061L95.2428 81.0166C96.8542 80.3474 98.5127 79.7376 100.172 79.2045L100.434 80.0186C98.7966 80.5445 97.1604 81.1459 95.571 81.8061ZM141.183 80.7747C139.564 80.1873 137.901 79.6604 136.238 79.2089L136.462 78.3839C138.147 78.8415 139.834 79.3754 141.474 79.971L141.183 80.7747ZM105.432 78.6394L105.239 77.8065C106.937 77.4128 108.674 77.0852 110.403 76.8327L110.527 77.6787C108.821 77.928 107.107 78.2511 105.432 78.6394V78.6394ZM131.18 78.0586C129.49 77.7472 127.763 77.5021 126.046 77.3305L126.131 76.4797C127.871 76.6538 129.622 76.902 131.335 77.2178L131.18 78.0586ZM115.683 77.1412L115.63 76.2878C117.369 76.178 119.142 76.139 120.884 76.1705L120.869 77.0255C119.148 76.994 117.4 77.0331 115.683 77.1412V77.1412Z" fill="#3F3D56"/>
<path d="M180.305 122.88C180.076 122.066 179.827 121.246 179.565 120.442L180.378 120.177C180.644 120.992 180.896 121.823 181.128 122.648L180.305 122.88Z" fill="#3F3D56"/>
<path d="M175.091 74.9971H174.236C174.236 74.1414 174.251 73.2733 174.281 72.417L175.136 72.4466C175.106 73.2933 175.091 74.1513 175.091 74.9971Z" fill="#3F3D56"/>
<path d="M175.498 67.3051L174.648 67.2145C174.831 65.4925 175.079 63.7565 175.384 62.0548L176.226 62.2059C175.924 63.8876 175.679 65.6033 175.498 67.3051ZM177.319 57.1723L176.49 56.9611C176.918 55.2829 177.413 53.6004 177.96 51.96L178.771 52.2306C178.23 53.8517 177.742 55.5142 177.319 57.1723V57.1723ZM313.682 48.1514C313.043 46.5647 312.338 44.9815 311.586 43.4463L312.354 43.0706C313.115 44.6241 313.828 46.2261 314.475 47.832L313.682 48.1514ZM180.579 47.402L179.789 47.0734C180.454 45.4756 181.186 43.8805 181.966 42.3324L182.729 42.717C181.959 44.2469 181.236 45.823 180.579 47.402V47.402ZM309.157 38.9035C308.297 37.426 307.373 35.9599 306.409 34.5463L307.115 34.0645C308.091 35.495 309.026 36.9784 309.896 38.4735L309.157 38.9035ZM185.211 38.1994L184.477 37.761C185.363 36.2764 186.316 34.803 187.309 33.3821L188.01 33.8718C187.028 35.2761 186.087 36.7321 185.211 38.1994H185.211ZM303.356 30.3963C302.293 29.0542 301.169 27.7347 300.015 26.4743L300.646 25.8969C301.813 27.1724 302.951 28.5073 304.027 29.8652L303.356 30.3963ZM191.11 29.7559L190.446 29.2173C191.537 27.8721 192.689 26.5499 193.872 25.2873L194.496 25.8718C193.327 27.1198 192.188 28.4265 191.11 29.7559ZM296.404 22.8001C295.161 21.6231 293.861 20.4767 292.539 19.3922L293.081 18.7313C294.418 19.8283 295.734 20.9885 296.992 22.1793L296.404 22.8001ZM198.149 22.2394L197.568 21.6119C198.838 20.4364 200.166 19.2914 201.517 18.209L202.051 18.8762C200.717 19.946 199.404 21.0775 198.149 22.2394V22.2394ZM288.441 16.2685C287.044 15.2803 285.594 14.3305 284.131 13.4453L284.573 12.7139C286.054 13.6094 287.521 14.5705 288.935 15.5704L288.441 16.2685ZM206.182 15.8001L205.696 15.0966C207.12 14.1138 208.597 13.17 210.088 12.2912L210.522 13.0276C209.049 13.8962 207.589 14.829 206.182 15.8V15.8001ZM279.629 10.9385C278.105 10.1598 276.534 9.42753 274.959 8.76141L275.292 7.974C276.886 8.64784 278.476 9.38912 280.018 10.1769L279.629 10.9385ZM215.048 10.5738L214.668 9.8081C216.217 9.03906 217.813 8.31657 219.413 7.66089L219.738 8.45206C218.156 9.09999 216.579 9.81392 215.048 10.5738V10.5738ZM270.144 6.9267C268.527 6.37602 266.866 5.87711 265.209 5.44395L265.425 4.61688C267.103 5.05505 268.783 5.56001 270.42 6.11717L270.144 6.9267ZM224.566 6.6737L224.3 5.86124C225.943 5.32267 227.628 4.8369 229.309 4.41751L229.516 5.24708C227.855 5.66145 226.19 6.14137 224.566 6.67368L224.566 6.6737ZM260.181 4.32191C258.5 4.00982 256.786 3.75494 255.086 3.56414L255.181 2.71453C256.901 2.90762 258.636 3.16543 260.337 3.48107L260.181 4.32191ZM234.555 4.18121L234.408 3.33869C236.112 3.04206 237.849 2.80344 239.572 2.62915L239.658 3.48001C237.955 3.65202 236.238 3.8879 234.555 4.1812L234.555 4.18121ZM249.95 3.17211C248.237 3.10259 246.497 3.09341 244.798 3.14414L244.772 2.28952C246.491 2.23817 248.252 2.24714 249.985 2.31791L249.95 3.17211Z" fill="#3F3D56"/>
<path d="M316.183 55.4883C315.954 54.6746 315.707 53.8532 315.449 53.0464L316.263 52.7858C316.525 53.6021 316.775 54.4333 317.006 55.2566L316.183 55.4883Z" fill="#3F3D56"/>
<path d="M66.2958 186.249C74.1613 186.249 80.5375 185.771 80.5375 185.181C80.5375 184.591 74.1613 184.113 66.2958 184.113C58.4303 184.113 52.054 184.591 52.054 185.181C52.054 185.771 58.4303 186.249 66.2958 186.249Z" fill="#EAAF00"/>
<path d="M179.874 134.623C187.739 134.623 194.116 134.144 194.116 133.555C194.116 132.965 187.739 132.486 179.874 132.486C172.008 132.486 165.632 132.965 165.632 133.555C165.632 134.144 172.008 134.623 179.874 134.623Z" fill="#EAAF00"/>
<path d="M320.155 80.86C328.021 80.86 334.397 80.3818 334.397 79.7918C334.397 79.2019 328.021 78.7237 320.155 78.7237C312.29 78.7237 305.914 79.2019 305.914 79.7918C305.914 80.3818 312.29 80.86 320.155 80.86Z" fill="#EAAF00"/>
<path d="M314.512 76.2851L271.688 119.11L272.292 119.715L315.117 76.8897L314.512 76.2851Z" fill="#3F3D56"/>
<path d="M259.272 124.582H187.351V125.437H259.272V124.582Z" fill="#3F3D56"/>
<path d="M174.224 130.411L133.998 170.637L134.603 171.241L174.829 131.015L174.224 130.411Z" fill="#3F3D56"/>
<path d="M121.839 176.208H73.7726V177.063H121.839V176.208Z" fill="#3F3D56"/>
<path d="M60.7066 181.62L12.9429 229.384L13.5475 229.989L61.3112 182.225L60.7066 181.62Z" fill="#3F3D56"/>
<path d="M66.2958 184.54C64.7324 184.54 63.2042 184.077 61.9042 183.208C60.6043 182.34 59.5911 181.105 58.9928 179.661C58.3945 178.217 58.2379 176.627 58.5429 175.094C58.8479 173.561 59.6007 172.152 60.7062 171.047C61.8116 169.941 63.2201 169.188 64.7534 168.883C66.2868 168.578 67.8761 168.735 69.3205 169.333C70.7649 169.931 71.9994 170.944 72.868 172.244C73.7366 173.544 74.2002 175.072 74.2002 176.636C74.1978 178.732 73.3643 180.741 71.8824 182.223C70.4006 183.704 68.3915 184.538 66.2958 184.54V184.54ZM66.2958 169.586C64.9015 169.586 63.5386 170 62.3793 170.774C61.22 171.549 60.3164 172.65 59.7828 173.938C59.2492 175.226 59.1095 176.644 59.3815 178.011C59.6535 179.379 60.3249 180.635 61.3108 181.621C62.2967 182.606 63.5528 183.278 64.9202 183.55C66.2877 183.822 67.7052 183.682 68.9933 183.149C70.2814 182.615 71.3824 181.712 72.157 180.552C72.9317 179.393 73.3451 178.03 73.3451 176.636C73.343 174.767 72.5996 172.975 71.2781 171.654C69.9565 170.332 68.1648 169.589 66.2958 169.586V169.586Z" fill="#3F3D56"/>
<path d="M129.316 184.54C127.752 184.54 126.224 184.077 124.924 183.208C123.624 182.34 122.611 181.105 122.013 179.661C121.414 178.216 121.258 176.627 121.563 175.094C121.868 173.56 122.621 172.152 123.726 171.047C124.832 169.941 126.24 169.188 127.773 168.883C129.307 168.578 130.896 168.735 132.34 169.333C133.785 169.931 135.019 170.944 135.888 172.244C136.756 173.544 137.22 175.072 137.22 176.636C137.218 178.732 136.384 180.741 134.902 182.223C133.42 183.705 131.411 184.538 129.316 184.54ZM129.316 169.586C127.921 169.586 126.558 170 125.399 170.774C124.24 171.549 123.336 172.65 122.803 173.938C122.269 175.226 122.129 176.644 122.401 178.011C122.673 179.379 123.345 180.635 124.331 181.621C125.317 182.607 126.573 183.278 127.94 183.55C129.308 183.822 130.725 183.682 132.013 183.149C133.301 182.615 134.402 181.712 135.177 180.552C135.952 179.393 136.365 178.03 136.365 176.636C136.363 174.767 135.62 172.975 134.298 171.653C132.976 170.332 131.185 169.588 129.316 169.586V169.586Z" fill="#3F3D56"/>
<path d="M179.874 132.914C178.311 132.914 176.782 132.45 175.482 131.582C174.183 130.713 173.169 129.479 172.571 128.034C171.973 126.59 171.816 125.001 172.121 123.467C172.426 121.934 173.179 120.526 174.285 119.42C175.39 118.315 176.799 117.562 178.332 117.257C179.865 116.952 181.455 117.108 182.899 117.707C184.343 118.305 185.578 119.318 186.446 120.618C187.315 121.918 187.778 123.446 187.778 125.009C187.776 127.105 186.943 129.114 185.461 130.596C183.979 132.078 181.97 132.912 179.874 132.914V132.914ZM179.874 117.96C178.48 117.96 177.117 118.374 175.957 119.148C174.798 119.923 173.895 121.024 173.361 122.312C172.828 123.6 172.688 125.017 172.96 126.385C173.232 127.752 173.903 129.008 174.889 129.994C175.875 130.98 177.131 131.651 178.499 131.923C179.866 132.195 181.284 132.056 182.572 131.522C183.86 130.989 184.961 130.085 185.735 128.926C186.51 127.767 186.923 126.404 186.923 125.009C186.921 123.14 186.178 121.349 184.856 120.027C183.535 118.705 181.743 117.962 179.874 117.96V117.96Z" fill="#3F3D56"/>
<path d="M266.749 132.914C265.185 132.914 263.657 132.45 262.357 131.582C261.057 130.713 260.044 129.479 259.446 128.034C258.848 126.59 258.691 125.001 258.996 123.467C259.301 121.934 260.054 120.526 261.159 119.42C262.265 118.315 263.673 117.562 265.207 117.257C266.74 116.952 268.329 117.108 269.773 117.707C271.218 118.305 272.452 119.318 273.321 120.618C274.189 121.918 274.653 123.446 274.653 125.009C274.651 127.105 273.817 129.114 272.335 130.596C270.853 132.078 268.844 132.912 266.749 132.914V132.914ZM266.749 117.96C265.354 117.96 263.991 118.374 262.832 119.148C261.673 119.923 260.769 121.024 260.236 122.312C259.702 123.6 259.563 125.017 259.835 126.385C260.107 127.752 260.778 129.008 261.764 129.994C262.75 130.98 264.006 131.651 265.373 131.923C266.741 132.195 268.158 132.056 269.446 131.522C270.735 130.989 271.835 130.085 272.61 128.926C273.385 127.767 273.798 126.404 273.798 125.009C273.796 123.14 273.053 121.349 271.731 120.027C270.409 118.705 268.618 117.962 266.749 117.96V117.96Z" fill="#3F3D56"/>
<path d="M320.155 79.1512C318.592 79.1512 317.064 78.6876 315.764 77.8191C314.464 76.9505 313.451 75.716 312.853 74.2717C312.254 72.8273 312.098 71.238 312.403 69.7047C312.708 68.1714 313.461 66.763 314.566 65.6575C315.672 64.5521 317.08 63.7992 318.613 63.4942C320.147 63.1893 321.736 63.3458 323.18 63.944C324.625 64.5423 325.859 65.5554 326.728 66.8553C327.596 68.1551 328.06 69.6833 328.06 71.2467C328.058 73.3424 327.224 75.3516 325.742 76.8334C324.26 78.3153 322.251 79.1489 320.155 79.1512V79.1512ZM320.155 64.1974C318.761 64.1974 317.398 64.6109 316.239 65.3855C315.08 66.1601 314.176 67.2611 313.643 68.5492C313.109 69.8373 312.969 71.2547 313.241 72.6222C313.513 73.9896 314.185 75.2457 315.171 76.2316C316.157 77.2174 317.413 77.8888 318.78 78.1608C320.148 78.4328 321.565 78.2931 322.853 77.7596C324.141 77.226 325.242 76.3224 326.017 75.1632C326.791 74.0039 327.205 72.6409 327.205 71.2467C327.203 69.3777 326.459 67.586 325.138 66.2644C323.816 64.9429 322.024 64.1995 320.155 64.1974V64.1974Z" fill="#3F3D56"/>
<path d="M7.90452 242.932C6.34114 242.932 4.81285 242.468 3.51293 241.6C2.213 240.731 1.19983 239.497 0.601517 238.052C0.00320891 236.608 -0.153358 235.019 0.151618 233.485C0.456593 231.952 1.20941 230.543 2.31488 229.438C3.42034 228.332 4.8288 227.58 6.36213 227.275C7.89547 226.969 9.48482 227.126 10.9292 227.724C12.3736 228.323 13.6081 229.336 14.4767 230.636C15.3453 231.936 15.8089 233.464 15.8089 235.027C15.8065 237.123 14.973 239.132 13.4911 240.614C12.0093 242.096 10.0002 242.929 7.90452 242.932V242.932ZM7.90452 227.978C6.51025 227.978 5.14728 228.391 3.98796 229.166C2.82865 229.94 1.92507 231.041 1.39147 232.329C0.857881 233.617 0.718247 235.035 0.990231 236.402C1.26221 237.77 1.9336 239.026 2.91948 240.012C3.90536 240.998 5.16146 241.669 6.52894 241.941C7.89642 242.213 9.31385 242.074 10.602 241.54C11.8901 241.007 12.9911 240.103 13.7657 238.944C14.5404 237.784 14.9538 236.421 14.9538 235.027C14.9517 233.158 14.2083 231.366 12.8868 230.045C11.5652 228.723 9.77347 227.98 7.90452 227.978V227.978Z" fill="#3F3D56"/>
<path d="M66.2958 129.994C64.4255 129.994 62.5736 130.362 60.8457 131.078C59.1178 131.794 57.5478 132.843 56.2253 134.165C54.9029 135.488 53.8538 137.058 53.1381 138.786C52.4224 140.514 52.054 142.366 52.054 144.236C52.054 152.101 66.2958 178.06 66.2958 178.06C66.2958 178.06 80.5376 152.101 80.5376 144.236C80.5376 142.366 80.1692 140.514 79.4535 138.786C78.7377 137.058 77.6887 135.488 76.3662 134.165C75.0438 132.843 73.4738 131.794 71.7459 131.078C70.018 130.362 68.166 129.994 66.2958 129.994V129.994ZM66.2958 151.713C64.817 151.713 63.3714 151.274 62.1418 150.453C60.9123 149.631 59.9539 148.463 59.388 147.097C58.8221 145.731 58.674 144.228 58.9625 142.777C59.251 141.327 59.9631 139.995 61.0088 138.949C62.0545 137.903 63.3867 137.191 64.8371 136.903C66.2875 136.614 67.7908 136.762 69.1571 137.328C70.5233 137.894 71.691 138.852 72.5126 140.082C73.3342 141.311 73.7727 142.757 73.7727 144.236C73.7727 146.219 72.985 148.121 71.5828 149.523C70.1806 150.925 68.2788 151.713 66.2958 151.713V151.713Z" fill="#EAAF00"/>
<path d="M179.874 76.5874C176.097 76.5874 172.474 78.0879 169.803 80.7588C167.133 83.4296 165.632 87.0521 165.632 90.8292C165.632 98.6947 179.874 124.653 179.874 124.653C179.874 124.653 194.116 98.6947 194.116 90.8292C194.116 88.959 193.747 87.107 193.032 85.3791C192.316 83.6512 191.267 82.0812 189.944 80.7587C188.622 79.4363 187.052 78.3872 185.324 77.6715C183.596 76.9558 181.744 76.5874 179.874 76.5874V76.5874ZM179.874 98.3061C178.395 98.3061 176.95 97.8676 175.72 97.046C174.49 96.2245 173.532 95.0567 172.966 93.6905C172.4 92.3243 172.252 90.8209 172.541 89.3705C172.829 87.9202 173.541 86.5879 174.587 85.5422C175.633 84.4966 176.965 83.7845 178.415 83.496C179.866 83.2075 181.369 83.3555 182.735 83.9214C184.101 84.4874 185.269 85.4457 186.091 86.6753C186.912 87.9048 187.351 89.3504 187.351 90.8292C187.351 92.8122 186.563 94.714 185.161 96.1162C183.759 97.5184 181.857 98.3061 179.874 98.3061V98.3061Z" fill="#EAAF00"/>
<path d="M459.462 302.403H265.566V303.448H459.462V302.403Z" fill="#2F2E41"/>
<path d="M425.569 30.9661C422.554 39.8909 417.932 48.0228 408.512 48.0228C399.092 48.0228 391.986 40.3713 391.455 30.9661C390.777 18.9482 398.875 13.8597 408.512 13.9095C419.897 13.9683 429.146 20.3746 425.569 30.9661Z" fill="#2F2E41"/>
<path d="M425.12 29.6196H391.455V72.2611H425.12V29.6196Z" fill="#2F2E41"/>
<path d="M426.108 61.3877H428.972C428.972 61.3877 435.971 70.296 432.789 82.3858C429.608 94.4755 432.153 96.7026 432.153 96.7026C432.153 96.7026 436.295 109.795 431.841 129.52C427.387 149.246 435.971 154.606 435.971 154.606L428.017 138.699L423.563 96.7026L426.108 61.3877Z" fill="#575A89"/>
<path opacity="0.1" d="M426.108 62.4343H428.972C428.972 62.4343 435.971 71.3425 432.789 83.4323C429.608 95.5221 432.153 97.7491 432.153 97.7491C432.153 97.7491 436.295 110.841 431.841 130.567C427.387 150.292 435.971 155.653 435.971 155.653L428.017 139.745L423.563 97.7491L426.108 62.4343Z" fill="black"/>
<path d="M416.086 45.9573C416.086 45.9573 413.541 56.1382 414.814 56.1382C416.086 56.1382 420.541 61.5468 420.541 61.5468L423.404 72.0458L421.177 79.6815L413.541 78.0907L403.997 67.5917L401.133 64.7283L398.588 55.5019C398.588 55.5019 401.77 51.6841 399.543 48.5025C397.315 45.321 416.086 45.9573 416.086 45.9573Z" fill="#FBBEBE"/>
<path opacity="0.1" d="M416.086 45.9573C416.086 45.9573 413.541 56.1382 414.814 56.1382C416.086 56.1382 420.541 61.5468 420.541 61.5468L423.404 72.0458L421.177 79.6815L413.541 78.0907L403.997 67.5917L401.133 64.7283L398.588 55.5019C398.588 55.5019 401.77 51.6841 399.543 48.5025C397.315 45.321 416.086 45.9573 416.086 45.9573Z" fill="black"/>
<path d="M339.094 74.2729L332.094 62.8194C332.094 62.8194 324.539 46.1023 319.13 52.1472C313.722 58.1921 327.322 70.4551 327.322 70.4551L334.321 79.6815L339.094 74.2729Z" fill="#FBBEBE"/>
<path d="M431.994 173.854L426.904 211.078C426.904 211.078 427.54 213.942 421.177 224.441C414.814 234.94 397.634 257.847 397.634 257.847L392.543 248.302C392.543 248.302 398.588 218.078 409.087 211.715L407.814 165.901L431.994 173.854Z" fill="#FBBEBE"/>
<path opacity="0.1" d="M431.994 173.854L426.904 211.078C426.904 211.078 427.54 213.942 421.177 224.441C414.814 234.94 397.634 257.847 397.634 257.847L392.543 248.302C392.543 248.302 398.588 218.078 409.087 211.715L407.814 165.901L431.994 173.854Z" fill="black"/>
<path d="M392.543 244.484L399.543 257.847C399.543 257.847 393.816 274.072 396.043 275.663C398.27 277.254 401.133 291.571 395.088 289.98C389.043 288.389 384.271 282.026 384.271 281.072C384.271 280.117 387.771 266.755 385.862 263.573C383.953 260.392 382.68 259.437 382.68 259.437L377.908 267.391L376.317 266.437L384.271 253.074C384.271 253.074 385.226 250.529 389.044 248.938L392.543 244.484Z" fill="#2F2E41"/>
<path opacity="0.1" d="M392.543 244.484L399.543 257.847C399.543 257.847 393.816 274.072 396.043 275.663C398.27 277.254 401.133 291.571 395.088 289.98C389.043 288.389 384.271 282.026 384.271 281.072C384.271 280.117 387.771 266.755 385.862 263.573C383.953 260.392 382.68 259.437 382.68 259.437L377.908 267.391L376.317 266.437L384.271 253.074C384.271 253.074 385.226 250.529 389.044 248.938L392.543 244.484Z" fill="black"/>
<path d="M407.889 168.573C407.889 168.573 410.36 203.761 404.951 212.987V258.801L397.634 259.756C397.634 259.756 382.856 235.501 388.265 211.639C393.673 187.778 382.68 165.901 382.68 165.901L407.889 168.573Z" fill="#FBBEBE"/>
<path d="M406.065 53.7521C413.444 53.7521 419.427 47.7695 419.427 40.3897C419.427 33.0098 413.444 27.0273 406.065 27.0273C398.685 27.0273 392.702 33.0098 392.702 40.3897C392.702 47.7695 398.685 53.7521 406.065 53.7521Z" fill="#FBBEBE"/>
<path d="M419.586 75.5455L406.224 58.6834L398.588 53.593L395.407 57.729L386.498 60.2742C386.498 60.2742 380.772 61.5468 374.727 68.5462C368.682 75.5455 357.865 79.6815 357.865 79.6815L348.956 78.0907C348.956 78.0907 338.457 73.3184 338.457 72.0458C338.457 70.7732 329.231 80.6359 331.458 84.4538C333.685 88.2716 338.457 93.0439 341.003 95.5891C343.548 98.1343 344.502 105.452 360.092 103.225C375.681 100.998 381.408 93.362 381.408 93.362C381.408 93.362 384.271 107.997 392.543 110.86C400.815 113.724 427.858 115.633 427.858 115.633L433.585 96.5435C433.585 96.5435 439.948 88.2716 431.358 76.1818C431.358 76.1818 431.193 69.4204 430.269 64.9211C429.91 63.171 429.436 61.7632 428.813 61.2287C426.585 59.3198 414.814 56.1382 414.814 56.1382C414.814 56.1382 416.723 62.5013 417.677 62.8194C418.632 63.1376 420.859 73.9547 419.586 75.5455Z" fill="#575A89"/>
<path d="M376.795 170.514C392.817 169.4 402.145 172.025 406.306 174.026C407.08 174.376 407.809 174.819 408.476 175.343C408.782 175.601 408.928 175.802 408.928 175.922C408.928 176.877 430.88 178.786 438.834 176.877C446.788 174.968 433.426 133.926 429.926 130.427C426.426 126.927 428.313 114.118 428.313 114.118C428.313 114.118 421.336 112.61 419.427 113.247C417.518 113.883 407.655 112.292 404.156 110.383C400.656 108.474 396.202 109.747 393.339 109.111C392.06 108.827 391.414 109.305 391.092 109.922C390.592 110.848 389.837 111.611 388.916 112.12C382.162 116.011 376.741 142.914 372.659 157.788C368.205 174.014 376.795 170.514 376.795 170.514Z" fill="#2F2E41"/>
<path d="M406.224 255.938L407.496 262.937C407.496 262.937 414.177 272.482 412.269 280.435C412.269 280.435 413.859 290.934 419.586 293.798C425.313 296.661 420.541 303.342 415.132 303.024C409.723 302.706 404.633 303.342 403.997 301.752C403.36 300.161 399.543 284.571 399.543 284.571L398.498 302.814L395.316 303.132L396.361 282.026C396.361 282.026 393.816 277.254 397.315 269.3L396.432 257.091C396.432 257.091 405.269 259.119 406.224 255.938Z" fill="#2F2E41"/>
<path opacity="0.1" d="M406.306 174.026C407.08 174.376 407.809 174.819 408.476 175.343C408.645 172.337 409.618 154.154 408.451 154.447L406.306 174.026Z" fill="black"/>
<path d="M400.533 21.989C400.533 21.989 400.385 21.1652 394.597 23.3355C388.81 25.5059 385.34 41.5222 388.234 50.9271C389.4 54.7173 388.452 57.45 386.903 59.362C381.093 66.537 383.38 77.3137 391.844 81.0034C392.082 81.1075 392.326 81.2105 392.575 81.3122L396.192 83.4826C396.192 83.4826 391.581 77.4152 393.889 69.6538C395.893 63.0408 396.14 56.02 394.607 49.2823C394.342 48.1457 394.041 46.9741 393.7 45.7785C390.806 35.6501 392.213 36.8198 402.342 26.6914C402.342 26.6914 408.129 31.0321 413.193 33.2025C418.258 35.3729 422.598 37.5432 418.981 44.7778C415.364 52.0123 406.682 58.5234 412.47 67.9283C418.258 77.3332 418.981 73.716 418.258 77.3333L417.534 80.9505L421.875 76.6098L418.981 82.3974C418.981 82.3974 428.386 82.3974 431.28 75.1629L432.727 76.6098C432.727 76.6098 438.514 66.4814 427.662 57.0765C427.662 57.0765 424.045 54.9061 429.109 47.6716C434.174 40.437 430.284 24.8828 423.773 21.9889C417.262 19.0951 400.533 21.989 400.533 21.989Z" fill="#2F2E41"/>
<path d="M408.512 17.5004C412.23 17.5004 415.245 14.486 415.245 10.7675C415.245 7.04902 412.23 4.03461 408.512 4.03461C404.793 4.03461 401.779 7.04902 401.779 10.7675C401.779 14.486 404.793 17.5004 408.512 17.5004Z" fill="#2F2E41"/>
<path d="M400.432 7.17661C400.433 5.50757 401.053 3.89806 402.172 2.66028C403.292 1.42251 404.831 0.6447 406.492 0.477733C406.271 0.455733 406.046 0.443733 405.819 0.443733C404.033 0.443733 402.321 1.15309 401.058 2.41575C399.795 3.67841 399.086 5.39095 399.086 7.17662C399.086 8.96229 399.795 10.6748 401.058 11.9375C402.321 13.2001 404.033 13.9095 405.819 13.9095C406.046 13.9095 406.271 13.8975 406.492 13.8755C404.831 13.7085 403.292 12.9307 402.172 11.6929C401.053 10.4552 400.433 8.84566 400.432 7.17661V7.17661Z" fill="#2F2E41"/>
<path d="M320.155 25.3171C318.285 25.3171 316.433 25.6854 314.705 26.4012C312.977 27.1169 311.407 28.1659 310.085 29.4884C308.762 30.8109 307.713 32.3809 306.998 34.1087C306.282 35.8366 305.914 37.6886 305.914 39.5588C305.914 47.4243 320.155 73.383 320.155 73.383C320.155 73.383 334.397 47.4243 334.397 39.5588C334.397 37.6886 334.029 35.8366 333.313 34.1087C332.597 32.3809 331.548 30.8109 330.226 29.4884C328.903 28.1659 327.333 27.1169 325.605 26.4012C323.878 25.6854 322.026 25.3171 320.155 25.3171V25.3171ZM320.155 47.0358C318.677 47.0358 317.231 46.5973 316.001 45.7757C314.772 44.9541 313.813 43.7864 313.248 42.4201C312.682 41.0539 312.534 39.5506 312.822 38.1002C313.111 36.6498 313.823 35.3175 314.868 34.2719C315.914 33.2262 317.246 32.5141 318.697 32.2256C320.147 31.9371 321.65 32.0852 323.017 32.6511C324.383 33.217 325.551 34.1753 326.372 35.4049C327.194 36.6345 327.632 38.0801 327.632 39.5589C327.632 41.5419 326.844 43.4436 325.442 44.8458C324.04 46.248 322.138 47.0358 320.155 47.0358V47.0358Z" fill="#EAAF00"/>
<path d="M205.347 290.308C209.603 290.308 213.053 286.857 213.053 282.601C213.053 278.345 209.603 274.895 205.347 274.895C201.091 274.895 197.641 278.345 197.641 282.601C197.641 286.857 201.091 290.308 205.347 290.308Z" fill="#F1F1F1"/>
<path d="M253.292 257.711C257.548 257.711 260.998 254.261 260.998 250.005C260.998 245.749 257.548 242.299 253.292 242.299C249.036 242.299 245.586 245.749 245.586 250.005C245.586 254.261 249.036 257.711 253.292 257.711Z" fill="#F1F1F1"/>
<path d="M194 227.36C198.256 227.36 201.706 223.91 201.706 219.654C201.706 215.398 198.256 211.947 194 211.947C189.744 211.947 186.294 215.398 186.294 219.654C186.294 223.91 189.744 227.36 194 227.36Z" fill="#F1F1F1"/>
</g>
<defs>
<clipPath id="clip0">
<rect width="485" height="303.448" fill="white"/>
</clipPath>
</defs>
</svg>
